{
.appVersion = "3067";
.formatVersion = 3;
DisplayStrings = (
JILL,
ONERS,
"D/.notdef @D©DER",
"/S.ss05/S.ss05/Z.ss05/Z.ss05 
/s.ss05/s.ss05/z.ss05 z",
"DḌḎḤĿḶḸNṂṄṆRṚṜSṠṢṬYẎZẒodḍḏḥĭŀlḷḹṃṅṇṛṝṡṣtṭyẏẓ",
"/l.ss06",
"/a.ss07",
""
);
date = "2021-01-24 15:42:49 +0000";
familyName = Megavolt;
featurePrefixes = (
{
automatic = 1;
code = "languagesystem DFLT dflt;

languagesystem latn dflt;
languagesystem latn AZE;
languagesystem latn CRT;
languagesystem latn KAZ;
languagesystem latn TAT;
languagesystem latn TRK;
languagesystem latn ROM;
languagesystem latn MOL;
languagesystem latn CAT;
languagesystem latn NLD;
";
name = Languagesystems;
}
);
features = (
{
automatic = 1;
code = "feature locl;
feature ordn;
feature ss01;
feature ss02;
feature ss03;
feature ss04;
feature ss05;
feature ss06;
feature ss07;
";
tag = aalt;
},
{
automatic = 1;
code = "lookup ccmp_Other_1 {
	@CombiningTopAccents = [acutecomb brevecomb caroncomb circumflexcomb commaturnedabovecomb dieresiscomb dotaccentcomb gravecomb hookabovecomb hungarumlautcomb macroncomb ringcomb tildecomb];
	@CombiningNonTopAccents = [brevebelowcomb cedillacomb dotbelowcomb macronbelowcomb ogonekcomb horncomb];
	sub [i j]' @CombiningTopAccents by [idotless jdotless];
	sub [i j]' @CombiningNonTopAccents @CombiningTopAccents by [idotless jdotless];
} ccmp_Other_1;

lookup ccmp_latn_1 {
	lookupflag 0;
	sub brevecomb acutecomb by brevecomb_acutecomb;
	sub brevecomb gravecomb by brevecomb_gravecomb;
	sub brevecomb hookabovecomb by brevecomb_hookabovecomb;
	sub brevecomb tildecomb by brevecomb_tildecomb;
	sub circumflexcomb acutecomb by circumflexcomb_acutecomb;
	sub circumflexcomb gravecomb by circumflexcomb_gravecomb;
	sub circumflexcomb hookabovecomb by circumflexcomb_hookabovecomb;
	sub circumflexcomb tildecomb by circumflexcomb_tildecomb;
} ccmp_latn_1;

script latn;
lookup ccmp_latn_1;
";
tag = ccmp;
},
{
automatic = 1;
code = "lookup locl_latn_0 {
	script latn;
	language AZE;
	sub i by idotaccent;
	language CRT;

glyphs = (
{
color = 0;
glyphname = B;
kernLeft = N;
kernRight = B;
lastChange = "2021-02-09 05:24:34 +0000";
layers = (
{
background = {
shapes = (
{
closed = 1;
nodes = (
(1095,0,l),
(1506,564,l),
(1526,551,l),
(910,551,l),
(910,683,l),
(53,683,l),
(53,0,l)
);
},
{
closed = 1;
nodes = (
(415,525,l),
(373,469,l),
(684,469,l),
(673,517,l),
(527,310,l),
(479,338,l),
(966,338,l),
(957,361,l),
(818,166,l),
(882,225,l),
(373,225,l),
(415,158,l)
);
}
);
};
guides = (
{
angle = 54.2461;
pos = (1169,0);
}
);
layerId = m01;
shapes = (
{
alignment = -1;
pos = (100,0);
ref = pixel;
},
{
alignment = -1;
pos = (100,100);
ref = pixel;
},
{
alignment = -1;
pos = (100,200);
ref = pixel;
},
{
alignment = -1;
pos = (100,300);
ref = pixel;
},
{
alignment = -1;
pos = (100,400);
ref = pixel;
},
{
alignment = -1;
pos = (100,500);
ref = pixel;
},
{
alignment = -1;
pos = (100,600);
ref = pixel;
},
{
alignment = -1;
pos = (200,0);
ref = pixel;
},
{
alignment = -1;
pos = (200,100);
ref = pixel;
},
{
alignment = -1;
pos = (200,200);
ref = pixel;
},
{
alignment = -1;
pos = (200,300);
ref = pixel;
},
{
alignment = -1;
pos = (200,400);
ref = pixel;
},
{
alignment = -1;
pos = (200,500);
ref = pixel;
},
{
alignment = -1;
pos = (200,600);
ref = pixel;
},
{
alignment = -1;
pos = (300,0);
ref = pixel;
},
{
alignment = -1;
pos = (300,100);
ref = pixel;
},
{
alignment = -1;
pos = (300,200);
ref = pixel;
},
{
alignment = -1;
pos = (300,300);
ref = pixel;
},
{
alignment = -1;
pos = (300,400);
ref = pixel;
},
{
alignment = -1;
pos = (300,500);
ref = pixel;
},
{
alignment = -1;
pos = (300,600);
ref = pixel;
},
{
alignment = -1;
pos = (400,0);
ref = pixel;
},
{
alignment = -1;
pos = (400,100);
ref = pixel;
},
{
alignment = -1;
pos = (400,500);
ref = pixel;
},
{
alignment = -1;
pos = (400,600);
ref = pixel;
},
{
alignment = -1;
pos = (500,0);
ref = pixel;
},
{
alignment = -1;
pos = (500,100);
ref = pixel;
},
{
alignment = -1;
pos = (500,500);
ref = pixel;
},
{
alignment = -1;
pos = (500,600);
ref = pixel;
},
{
alignment = -1;
pos = (600,0);
ref = pixel;
},
{
alignment = -1;
pos = (600,100);
ref = pixel;
},
{
alignment = -1;
pos = (600,500);
ref = pixel;
},
{
alignment = -1;
pos = (600,600);
ref = pixel;
},
{
alignment = -1;
pos = (700,0);
ref = pixel;
},
{
alignment = -1;
pos = (700,100);
ref = pixel;
},
{
alignment = -1;
pos = (700,400);
ref = pixel;
},
{
alignment = -1;
pos = (700,500);
ref = pixel;
},
{
alignment = -1;
pos = (700,600);
ref = pixel;
},
{
alignment = -1;
pos = (800,0);
ref = pixel;
},
{
alignment = -1;
pos = (800,100);
ref = pixel;
},
{
alignment = -1;
pos = (800,400);
ref = pixel;
},
{
alignment = -1;
pos = (800,500);
ref = pixel;
},
{
alignment = -1;
pos = (800,600);
ref = pixel;
},
{
alignment = -1;
pos = (900,0);
ref = pixel;
},
{
alignment = -1;
pos = (900,100);
ref = pixel;
},
{
alignment = -1;
pos = (900,200);
ref = pixel;
},
{
alignment = -1;
pos = (900,400);
ref = pixel;
},
{
alignment = -1;
pos = (900,500);
ref = pixel;
},
{
alignment = -1;
pos = (1000,100);
ref = pixel;
},
{
alignment = -1;
pos = (1000,200);
ref = pixel;
},
{
alignment = -1;
pos = (1000,300);
ref = pixel;
},
{
alignment = -1;
pos = (1000,400);
ref = pixel;
},
{
alignment = -1;
pos = (1000,500);
ref = pixel;
},
{
alignment = -1;
pos = (1100,200);
ref = pixel;
},
{
alignment = -1;
pos = (1100,300);
ref = pixel;
},
{
alignment = -1;
pos = (1100,400);
ref = pixel;
},
{
alignment = -1;
pos = (1100,500);
ref = pixel;
},
{
alignment = -1;
pos = (1200,300);
ref = pixel;
},
{
alignment = -1;
pos = (1200,400);
ref = pixel;
},
{
alignment = -1;
pos = (1200,500);
ref = pixel;
},
{
alignment = -1;
pos = (1300,400);
ref = pixel;
},
{
alignment = -1;
pos = (1300,500);
ref = pixel;
},
{
alignment = -1;
pos = (1400,500);
ref = pixel;
},
{
alignment = -1;
pos = (800,200);
ref = pixel;
},
{
alignment = -1;
pos = (900,300);
ref = pixel;
},
{
alignment = -1;
pos = (400,400);
ref = pixel;
},
{
alignment = -1;
pos = (400,300);
ref = pixel;
},
{
alignment = -1;
pos = (400,200);
ref = pixel;
}
);
width = 1400;
}
);
metricLeft = "=N";
unicode = 66;
},
{
color = 0;
glyphname = C;
kernLeft = O;
kernRight = C;
lastChange = "2021-02-09 05:16:44 +0000";
layers = (
{
anchors = (
{
name = bottom;
pos = (726,0);
},
{
name = top;
pos = (883,683);
}
);
background = {
shapes = (
{
closed = 1;
nodes = (
(-79,0,l),
(1320,0,l),
(1320,244,l),
(528,244,l),
(669,438,l),
(1320,438,l),
(1320,683,l),
(413,683,l)
);
}
);
};
layerId = m01;
shapes = (
{
alignment = -1;
ref = pixel;
},
{
alignment = -1;
pos = (0,100);
ref = pixel;
},
{
alignment = -1;
pos = (100,0);
ref = pixel;
},
{
alignment = -1;
pos = (100,100);
ref = pixel;
},
{
alignment = -1;
pos = (100,200);
ref = pixel;
},
{
alignment = -1;
pos = (200,0);
ref = pixel;
},
{
alignment = -1;
pos = (200,100);
ref = pixel;
},
{
alignment = -1;
pos = (200,200);
ref = pixel;
},
{
alignment = -1;
pos = (200,300);
ref = pixel;
},
{
alignment = -1;
pos = (300,0);
ref = pixel;
},
{
alignment = -1;
pos = (300,100);
ref = pixel;
},
{
alignment = -1;
pos = (300,200);
ref = pixel;
},
{
alignment = -1;
pos = (300,300);
ref = pixel;
},
{
alignment = -1;
pos = (300,400);
ref = pixel;
},
{
alignment = -1;
pos = (400,0);
ref = pixel;
},
{
alignment = -1;
pos = (400,100);
ref = pixel;
},
{
alignment = -1;
pos = (400,300);
ref = pixel;
},
{
alignment = -1;
pos = (400,400);
ref = pixel;
},
{
alignment = -1;
pos = (400,500);
ref = pixel;
},
{
alignment = -1;
pos = (500,0);
ref = pixel;
},
{
alignment = -1;
pos = (500,100);
ref = pixel;
},
{
alignment = -1;
pos = (500,400);
ref = pixel;
},
{
alignment = -1;
pos = (500,500);
ref = pixel;
},
{
alignment = -1;
pos = (500,600);
ref = pixel;
},
{
alignment = -1;
pos = (600,0);
ref = pixel;
},
{
alignment = -1;
pos = (600,100);
ref = pixel;
},
{
alignment = -1;
pos = (600,500);
ref = pixel;
},
{
alignment = -1;
pos = (600,600);
ref = pixel;
},
{
alignment = -1;
pos = (700,0);
ref = pixel;
},
{
alignment = -1;
pos = (700,100);
ref = pixel;
},
{
alignment = -1;
pos = (700,500);
ref = pixel;
},
{
alignment = -1;
pos = (700,600);
ref = pixel;
},
{
alignment = -1;
pos = (800,0);
ref = pixel;
},
{
alignment = -1;
pos = (800,100);
ref = pixel;
},
{
alignment = -1;
pos = (800,500);
ref = pixel;
},
{
alignment = -1;
pos = (800,600);
ref = pixel;
},
{
alignment = -1;
pos = (900,0);
ref = pixel;
},
{
alignment = -1;
pos = (900,100);
ref = pixel;
},
{
alignment = -1;
pos = (900,500);
ref = pixel;
},
{
alignment = -1;
pos = (900,600);
ref = pixel;
},
{
alignment = -1;
pos = (1000,0);
ref = pixel;
},
{
alignment = -1;
pos = (1000,100);
ref = pixel;
},
{
alignment = -1;
pos = (1000,500);
ref = pixel;
},
{
alignment = -1;
pos = (1000,600);
ref = pixel;
},
{
alignment = -1;
pos = (1100,0);
ref = pixel;
},
{
alignment = -1;
pos = (1100,100);
ref = pixel;
},
{
alignment = -1;
pos = (1100,500);
ref = pixel;
},
{
alignment = -1;
pos = (1100,600);
ref = pixel;
},
{
alignment = -1;
pos = (1200,0);
ref = pixel;
},
{
alignment = -1;
pos = (1200,100);
ref = pixel;
},
{
alignment = -1;
pos = (1200,500);
ref = pixel;
},
{
alignment = -1;
pos = (1200,600);
ref = pixel;
},
{
alignment = -1;
pos = (400,200);
ref = pixel;
},
{
alignment = -1;
pos = (500,300);
ref = pixel;
},
{
alignment = -1;
pos = (600,400);
ref = pixel;
}
);
width = 1300;
}
);
metricLeft = "=O";
unicode = 67;
},
{
color = 0;
glyphname = Eth;
kernLeft = N;
kernRight = D;
lastChange = "2021-01-31 23:05:00 +0000";
layers = (
{
anchors = (
{
name = bottom;
pos = (558,0);
},
{
name = bottomleft;
pos = (24,0);
},
{
name = bottomright;
pos = (1430,0);
},
{
name = center;
pos = (726,341);
},
{
name = ogonek;
pos = (88,683);
},
{
name = top;
pos = (715,683);
}
);
background = {
shapes = (
{
closed = 1;
nodes = (
(1530,683,l),
(1119,683,l),
(796,235,l),
(420,235,l),
(420,683,l),
(53,683,l),
(53,0,l),
(1038,0,l)
);
},
{
closed = 1;
nodes = (
(376,438,l),
(943,438,l),
(765,683,l),
(376,683,l)
);
}
);
};
layerId = m01;
shapes = (
{
closed = 1;
nodes = (
(1530,683,l),
(52,683,l),
(52,0,l),
(1038,0,l)
);
},
{
closed = 1;
nodes = (
(771,200,l),
(842,226,l),
(375,226,l),
(420,191,l),
(420,494,l),
(375,459,l),
(996,459,l),
(977,485,l)
);
},
{
closed = 1;
nodes = (
(0,288,l),
(621,288,l),
(621,395,l),
(0,395,l)
);
}
);
width = 1451;
}
);
metricRight = "=D@0";
unicode = 208;
},
{
color = 0;
glyphname = E;
kernLeft = N;
kernRight = E;
lastChange = "2021-02-09 05:18:21 +0000";
layers = (
{
anchors = (
{
name = bottom;
pos = (646,0);
},
{
name = ogonek;
pos = (1274,0);
},
{
name = top;
pos = (688,683);
},
{
name = topleft;
pos = (21,683);
}
);
background = {
shapes = (
{
closed = 1;
nodes = (
(1271,244,l),
(604,244,l),
(1381,683,l),
(53,683,l),
(53,0,l),
(1271,0,l)
);
},
{
closed = 1;
nodes = (
(420,438,l),
(793,438,l),
(400,207,l),
(420,184,l)
);
}
);
};
layerId = m01;
shapes = (
{
alignment = -1;
pos = (100,0);
ref = pixel;
},
{
alignment = -1;
pos = (100,100);
ref = pixel;
},
{
alignment = -1;
pos = (100,200);
ref = pixel;
},
{
alignment = -1;
pos = (100,300);
ref = pixel;
},
{
alignment = -1;
pos = (100,400);
ref = pixel;
},
{
alignment = -1;
pos = (100,500);
ref = pixel;
},
{
alignment = -1;
pos = (100,600);
ref = pixel;
},
{
alignment = -1;
pos = (200,0);
ref = pixel;
},
{
alignment = -1;
pos = (200,100);
ref = pixel;
},
{
alignment = -1;
pos = (200,200);
ref = pixel;
},
{
alignment = -1;
pos = (200,300);
ref = pixel;
},
{
alignment = -1;
pos = (200,400);
ref = pixel;
},
{
alignment = -1;
pos = (200,500);
ref = pixel;
},
{
alignment = -1;
pos = (200,600);
ref = pixel;
},
{
alignment = -1;
pos = (300,0);
ref = pixel;
},
{
alignment = -1;
pos = (300,100);
ref = pixel;
},
{
alignment = -1;
pos = (300,200);
ref = pixel;
},
{
alignment = -1;
pos = (300,300);
ref = pixel;
},
{
alignment = -1;
pos = (300,400);
ref = pixel;
},
{
alignment = -1;
pos = (300,500);
ref = pixel;
},
{
alignment = -1;
pos = (300,600);
ref = pixel;
},
{
alignment = -1;
pos = (400,0);
ref = pixel;
},
{
alignment = -1;
pos = (400,100);
ref = pixel;
},
{
alignment = -1;
pos = (400,500);
ref = pixel;
},
{
alignment = -1;
pos = (400,600);
ref = pixel;
},
{
alignment = -1;
pos = (500,0);
ref = pixel;
},
{
alignment = -1;
pos = (500,100);
ref = pixel;
},
{
alignment = -1;
pos = (500,500);
ref = pixel;
},
{
alignment = -1;
pos = (500,600);
ref = pixel;
},
{
alignment = -1;
pos = (600,0);
ref = pixel;
},
{
alignment = -1;
pos = (600,100);
ref = pixel;
},
{
alignment = -1;
pos = (600,500);
ref = pixel;
},
{
alignment = -1;
pos = (600,600);
ref = pixel;
},
{
alignment = -1;
pos = (700,0);
ref = pixel;
},
{
alignment = -1;
pos = (700,100);
ref = pixel;
},
{
alignment = -1;
pos = (700,500);
ref = pixel;
},
{
alignment = -1;
pos = (700,600);
ref = pixel;
},
{
alignment = -1;
pos = (800,0);
ref = pixel;
},
{
alignment = -1;
pos = (800,100);
ref = pixel;
},
{
alignment = -1;
pos = (800,500);
ref = pixel;
},
{
alignment = -1;
pos = (800,600);
ref = pixel;
},
{
alignment = -1;
pos = (900,0);
ref = pixel;
},
{
alignment = -1;
pos = (900,100);
ref = pixel;
},
{
alignment = -1;
pos = (900,500);
ref = pixel;
},
{
alignment = -1;
pos = (900,600);
ref = pixel;
},
{
alignment = -1;
pos = (1000,0);
ref = pixel;
},
{
alignment = -1;
pos = (1000,100);
ref = pixel;
},
{
alignment = -1;
pos = (1000,500);
ref = pixel;
},
{
alignment = -1;
pos = (1000,600);
ref = pixel;
},
{
alignment = -1;
pos = (1100,0);
ref = pixel;
},
{
alignment = -1;
pos = (1100,100);
ref = pixel;
},
{
alignment = -1;
pos = (1100,600);
ref = pixel;
},
{
alignment = -1;
pos = (1200,0);
ref = pixel;
},
{
alignment = -1;
pos = (1200,100);
ref = pixel;
},
{
alignment = -1;
pos = (1200,600);
ref = pixel;
},
{
alignment = -1;
pos = (1000,400);
ref = pixel;
},
{
alignment = -1;
pos = (900,400);
ref = pixel;
},
{
alignment = -1;
pos = (800,300);
ref = pixel;
},
{
alignment = -1;
pos = (700,300);
ref = pixel;
},
{
alignment = -1;
pos = (600,200);
ref = pixel;
},
{
alignment = -1;
pos = (500,200);
ref = pixel;
},
{
alignment = -1;
pos = (1100,500);
ref = pixel;
}
);
width = 1300;
}
);
metricLeft = "=N";
unicode = 69;
},
{
color = 0;
glyphname = F;
kernLeft = N;
kernRight = F;
lastChange = "2021-01-31 18:53:35 +0000";
layers = (
{
anchors = (
{
name = bottom;
pos = (633,0);
},
{
name = top;
pos = (633,683);
}
);
layerId = m01;
shapes = (
{
closed = 1;
nodes = (
(420,0,l),
(420,438,l),
(1244,438,l),
(1244,683,l),
(53,683,l),
(53,0,l)
);
},
{
closed = 1;
nodes = (
(587,98,l),
(1244,98,l),
(1244,341,l),
(420,341,l)
);
}
);
width = 1276;
}
);
metricLeft = "=N";
unicode = 70;
},
{
color = 0;
glyphname = G;
kernLeft = O;
kernRight = Y;
lastChange = "2021-01-31 19:00:03 +0000";
layers = (
{
anchors = (
{
name = bottom;
pos = (800,-131);
},
{
name = top;
pos = (924,683);
}
);
background = {
shapes = (
{
closed = 1;
nodes = (
(-37,0,l),
(1441,0,l),
(1441,683,l),
(455,683,l)
);
},
{
closed = 1;
nodes = (
(696,447,l),
(1073,447,l),
(1073,234,l),
(542,234,l)
);
}
);
};
layerId = m01;
shapes = (
{
closed = 1;
nodes = (
(1073,447,l),
(1073,87,l),
(520,87,l),
(520,-131,l),
(1441,-131,l),
(1441,683,l),
(419,683,l),
(-79,0,l),
(740,0,l),
(938,272,l),
(958,218,l),
(453,218,l),
(487,195,l),
(668,447,l)
);
}
);
width = 1494;
}
);
metricLeft = "=O";
metricRight = "=U";
unicode = 71;
},
{
color = 0;
glyphname = H;
kernLeft = N;
kernRight = U;
lastChange = "2021-01-31 18:53:35 +0000";
layers = (
{
anchors = (
{
name = bottom;
pos = (710,0);
},
{
name = center;
pos = (710,341);
},
{
name = top;
pos = (710,683);
},
{
name = topleft;
pos = (53,683);
}
);
layerId = m01;
shapes = (
{
closed = 1;
nodes = (
(53,0,l),
(421,0,l),
(421,683,l),
(53,683,l)
);
},
{
closed = 1;
nodes = (
(1367,0,l),
(1367,683,l),
(999,683,l),
(999,0,l)
);
},
{
closed = 1;
nodes = (
(200,194,l),
(1219,194,l),
(1219,459,l),
(420,459,l)
);
}
);
width = 1420;
}
);
metricLeft = "=N";
metricRight = "=U";
unicode = 72;
},
{
color = 0;
glyphname = Hbar;
kernLeft = N;
kernRight = U;
lastChange = "2021-02-01 19:44:42 +0000";
layers = (
{
anchors = (
{
name = bottom;
pos = (720,0);
},
{
name = center;
pos = (720,341);
},
{
name = ogonek;
pos = (1272,0);
},
{
name = top;
pos = (720,683);
},
{
name = topleft;
pos = (53,683);
},
{
name = topright;
pos = (1388,683);
}
);
layerId = m01;
shapes = (
{
closed = 1;
nodes = (
(53,0,l),
(420,0,l),
(420,683,l),
(53,683,l)
);
},
{
closed = 1;
nodes = (
(1367,0,l),
(1367,683,l),
(1000,683,l),
(1000,0,l)
);
},
{
closed = 1;
nodes = (
(305,121,l),
(1219,121,l),
(1219,375,l),
(420,375,l)
);
},
{
closed = 1;
nodes = (
(0,438,l),
(1421,438,l),
(1421,545,l),
(0,545,l)
);
}
);
width = 1420;
}
);
metricLeft = "=H@0";
metricRight = "=H@0";
unicode = 294;
},
{
color = 0;
glyphname = I;
kernLeft = N;
kernRight = U;
lastChange = "2021-01-31 18:53:35 +0000";
layers = (
{
anchors = (
{
name = bottom;
pos = (247,0);
},
{
name = ogonek;
pos = (442,11);
},
{
name = top;
pos = (247,683);
},
{
name = topleft;
pos = (0,683);
}
);
layerId = m01;
shapes = (
{
closed = 1;
nodes = (
(53,683,l),
(53,0,l),
(441,0,l),
(441,683,l)
);
}
);
width = 494;
}
);
metricRight = "=|";
unicode = 73;
},
{
color = 0;
glyphname = IJ;
kernLeft = N;
kernRight = D;
lastChange = "2021-01-31 19:07:12 +0000";
layers = (
{
anchors = (
{
name = bottom;
pos = (257,0);
},
{
name = bottomleft;
pos = (-7,0);
},
{
name = bottomright;
pos = (1399,0);
},
{
name = center;
pos = (694,341);
},
{
name = ogonek;
pos = (463,11);
},
{
name = top;
pos = (257,683);
},
{
name = topleft;
pos = (21,683);
}
);
layerId = m01;
shapes = (
{
closed = 1;
nodes = (
(53,683,l),
(53,305,l),
(441,305,l),
(441,683,l)
);
},
{
closed = 1;
nodes = (
(53,0,l),
(965,0,l),
(1456,683,l),
(542,683,l),
(542,438,l),
(925,438,l),
(884,486,l),
(702,235,l),
(53,235,l)
);
}
);
width = 1377;
}
);
metricRight = J;
unicode = 306;
},
{
color = 0;
glyphname = Icircumflex;
kernLeft = N;
kernRight = U;
lastChange = "2021-01-31 18:53:35 +0000";
layers = (
{
anchors = (
{
name = _top;
pos = (237,683);
},
{
name = top;
pos = (237,903);
}
);
layerId = m01;
shapes = (
{
closed = 1;
nodes = (
(16,698,l),
(302,752,l),
(467,698,l),
(467,820,l),
(313,875,l),
(16,820,l)
);
},
{
ref = I;
}
);
width = 494;
}
);
unicode = 206;
},
{
color = 0;
glyphname = Idieresis;
kernLeft = N;
kernRight = U;
lastChange = "2021-01-31 18:53:35 +0000";
layers = (
{
anchors = (
{
name = _top;
pos = (236,683);
},
{
name = top;
pos = (236,814);
}
);
layerId = m01;
shapes = (
{
closed = 1;
nodes = (
(231,814,l),
(21,814,l),
(21,716,l),
(231,716,l)
);
},
{
closed = 1;
nodes = (
(473,716,l),
(473,814,l),
(263,814,l),
(263,716,l)
);
},
{
ref = I;
}
);
width = 494;
}
);
unicode = 207;
},
{
color = 0;
glyphname = Idotaccent;
kernLeft = N;
kernRight = U;
lastChange = "2021-01-31 18:53:35 +0000";
layers = (
{
anchors = (
{
name = _top;
pos = (247,683);
},
{
name = top;
pos = (247,848);
}
);
layerId = m01;
shapes = (
{
closed = 1;
nodes = (
(441,714,l),
(441,814,l),
(53,814,l),
(53,714,l)
);
},
{
ref = I;
}
);
width = 494;
}
);
unicode = 304;
},
{
color = 0;
glyphname = Idotbelow;
kernLeft = N;
kernRight = U;
lastChange = "2021-01-31 18:53:35 +0000";
layers = (
{
anchors = (
{
name = _bottom;
pos = (247,0);
},
{
name = bottom;
pos = (247,-165);
}
);
layerId = m01;
shapes = (
{
closed = 1;
nodes = (
(441,-131,l),
(441,-32,l),
(53,-32,l),
(53,-131,l)
);
},
{
ref = I;
}
);
width = 494;
}
);
unicode = 7882;
},
{
color = 0;
glyphname = Imacron;
kernLeft = N;
kernRight = U;
lastChange = "2021-01-31 18:53:35 +0000";
layers = (
{
anchors = (
{
name = _top;
pos = (247,683);
},
{
name = top;
pos = (247,814);
}
);
layerId = m01;
shapes = (
{
closed = 1;
nodes = (
(21,714,l),
(473,714,l),
(473,814,l),
(21,814,l)
);
},
{
ref = I;
}
);
width = 494;
}
);
unicode = 298;
},
{
color = 0;
glyphname = Itilde;
kernLeft = N;
kernRight = U;
lastChange = "2021-01-31 18:53:35 +0000";
layers = (
{
anchors = (
{
name = _top;
pos = (247,683);
},
{
name = top;
pos = (247,903);
}
);
layerId = m01;
shapes = (
{
closed = 1;
nodes = (
(128,803,l),
(402,708,l),
(534,924,l),
(397,924,l),
(327,809,l),
(461,814,l),
(107,929,l),
(-25,714,l),
(112,714,l),
(203,861,l)
);
},
{
ref = I;
}
);
width = 494;
}
);
unicode = 296;
},
{
color = 0;
glyphname = J;
kernLeft = S;
kernRight = D;
lastChange = "2021-01-31 19:00:05 +0000";
layers = (
{
anchors = (
{
name = bottom;
pos = (558,0);
},
{
name = bottomleft;
pos = (14,0);
},
{
name = bottomright;
pos = (1420,0);
},
{
name = center;
pos = (715,341);
},
{
name = ogonek;
pos = (134,683);
},
{
name = top;
pos = (1030,683);
}
);
background = {
shapes = (
{
closed = 1;
nodes = (
(1260,0,l),
(940,438,l),
(1402,438,l),
(1402,683,l),
(333,683,l),
(655,234,l),
(431,234,l),
(431,438,l),
(42,438,l),
(42,0,l)
);
}
);
};
layerId = m01;
shapes = (
{
closed = 1;
nodes = (
(21,438,l),
(21,0,l),
(986,0,l),
(1477,683,l),
(563,683,l),
(563,438,l),
(946,438,l),
(905,486,l),
(723,235,l),
(389,235,l),
(389,438,l)
);
}
);
width = 1398;
}
);
metricLeft = "=S";
metricRight = "=D";
unicode = 74;
},
{
color = 0;
glyphname = K;
kernLeft = N;
kernRight = K;
lastChange = "2021-01-31 18:53:35 +0000";
layers = (
{
anchors = (
{
name = bottom;
pos = (714,32);
},
{
name = top;
pos = (693,683);
}
);
guides = (
{
angle = 234.2461;
pos = (384,250);
}
);
layerId = m01;
shapes = (
{
closed = 1;
nodes = (
(53,0,l),
(420,0,l),
(420,683,l),
(53,683,l)
);
},
{
closed = 1;
nodes = (
(798,455,l),
(795,438,l),
(1364,438,l),
(1364,683,l),
(684,683,l),
(420,315,l),
(1364,-87,l),
(1364,243,l)
);
}
);
width = 1385;
}
);
metricLeft = "=N";
unicode = 75;
},
{
color = 0;
glyphname = L;
kernLeft = O;
kernRight = L.hook;
lastChange = "2021-01-31 18:53:35 +0000";
layers = (
{
anchors = (
{
name = bottom;
pos = (746,0);
},
{
name = center;
pos = (641,341);
},
{
name = top;
pos = (683,683);
},
{
name = topright;
pos = (1037,683);
}
);
background = {
shapes = (
{
closed = 1;
nodes = (
(1349,361,l),
(982,361,l),
(982,187,l),
(1029,224,l),
(458,224,l),
(467,195,l),
(823,683,l),
(420,683,l),
(-79,0,l),
(1349,0,l)
);
},
{
closed = 0;
nodes = (
(854,683,l),
(355,0,l)
);
}
);
};
layerId = m01;
shapes = (
{
closed = 1;
nodes = (
(1349,438,l),
(982,438,l),
(982,234,l),
(526,234,l),
(854,683,l),
(420,683,l),
(-79,0,l),
(1349,0,l)
);
}
);
width = 1370;
}
);
metricLeft = "=O";
metricRight = "=Z";
unicode = 76;
},
{
glyphname = Ldot;
kernLeft = O;
lastChange = "2021-02-01 19:40:47 +0000";
layers = (
{
anchors = (
{
name = bottom;
pos = (746,0);
},
{
name = center;
pos = (641,341);
},
{
name = top;
pos = (683,683);
},
{
name = topright;
pos = (1037,683);
}
);
layerId = m01;
shapes = (
{
closed = 1;
nodes = (
(1349,234,l),
(526,234,l),
(854,683,l),
(420,683,l),
(-79,0,l),
(1179,0,l)
);
},
{
pos = (931,30);
ref = periodcentered;
}
);
width = 1360;
}
);
unicode = 319;
},
{
color = 0;
glyphname = Lslash;
kernLeft = O;
lastChange = "2021-01-31 18:53:35 +0000";
layers = (
{
background = {
shapes = (
{
closed = 0;
nodes = (
(823,683,l),
(324,0,l)
);
}
);
};
layerId = m01;
shapes = (
{
closed = 1;
nodes = (
(1349,361,l),
(982,361,l),
(982,187,l),
(1029,224,l),
(458,224,l),
(467,195,l),
(823,683,l),
(420,683,l),
(-79,0,l),
(1349,0,l)
);
},
{
closed = 1;
nodes = (
(443,230,l),
(1124,511,l),
(1124,624,l),
(443,337,l)
);
}
);
width = 1370;
}
);
unicode = 321;
},
{
color = 0;
glyphname = M;
kernLeft = N;
kernRight = N;
lastChange = "2021-01-31 18:53:35 +0000";
layers = (
{
anchors = (
{
name = bottom;
pos = (987,0);
},
{
name = top;
pos = (987,683);
}
);
background = {
shapes = (
{
closed = 1;
nodes = (
(1988,683,l),
(581,683,l),
(581,0,l),
(948,0,l),
(948,438,l),
(1471,438,l),
(1485,485,l),
(1130,0,l),
(1946,0,l),
(1946,244,l),
(1613,244,l),
(1642,193,l)
);
}
);
};
layerId = m01;
shapes = (
{
closed = 1;
nodes = (
(1988,683,l),
(688,683,l),
(688,0,l),
(1055,0,l),
(1055,438,l),
(1471,438,l),
(1486,486,l),
(1131,-1,l),
(1946,0,l),
(1946,244,l),
(1613,244,l),
(1642,194,l)
);
},
{
closed = 1;
nodes = (
(872,683,l),
(53,681,l),
(53,0,l),
(420,0,l),
(420,438,l),
(867,438,l)
);
}
);
width = 1972;
}
);
metricLeft = "=N";
metricRight = "=N";
unicode = 77;
},
{
color = 0;
glyphname = N;
kernLeft = N;
kernRight = N;
lastChange = "2021-02-09 05:21:32 +0000";
layers = (
{
anchors = (
{
name = bottom;
pos = (610,0);
},
{
name = top;
pos = (768,683);
}
);
background = {
shapes = (
{
closed = 1;
nodes = (
(1460,683,l),
(53,683,l),
(53,0,l),
(420,0,l),
(420,438,l),
(943,438,l),
(957,485,l),
(602,0,l),
(1418,0,l),
(1418,245,l),
(1085,245,l),
(1114,193,l)
);
}
);
};
layerId = m01;
shapes = (
{
alignment = -1;
pos = (100,0);
ref = pixel;
},
{
alignment = -1;
pos = (100,100);
ref = pixel;
},
{
alignment = -1;
pos = (100,200);
ref = pixel;
},
{
alignment = -1;
pos = (100,300);
ref = pixel;
},
{
alignment = -1;
pos = (100,400);
ref = pixel;
},
{
alignment = -1;
pos = (100,500);
ref = pixel;
},
{
alignment = -1;
pos = (100,600);
ref = pixel;
},
{
alignment = -1;
pos = (200,0);
ref = pixel;
},
{
alignment = -1;
pos = (200,100);
ref = pixel;
},
{
alignment = -1;
pos = (200,200);
ref = pixel;
},
{
alignment = -1;
pos = (200,300);
ref = pixel;
},
{
alignment = -1;
pos = (200,400);
ref = pixel;
},
{
alignment = -1;
pos = (200,500);
ref = pixel;
},
{
alignment = -1;
pos = (200,600);
ref = pixel;
},
{
alignment = -1;
pos = (300,0);
ref = pixel;
},
{
alignment = -1;
pos = (300,100);
ref = pixel;
},
{
alignment = -1;
pos = (300,200);
ref = pixel;
},
{
alignment = -1;
pos = (300,300);
ref = pixel;
},
{
alignment = -1;
pos = (300,400);
ref = pixel;
},
{
alignment = -1;
pos = (300,500);
ref = pixel;
},
{
alignment = -1;
pos = (300,600);
ref = pixel;
},
{
alignment = -1;
pos = (400,500);
ref = pixel;
},
{
alignment = -1;
pos = (400,600);
ref = pixel;
},
{
alignment = -1;
pos = (500,500);
ref = pixel;
},
{
alignment = -1;
pos = (500,600);
ref = pixel;
},
{
alignment = -1;
pos = (600,0);
ref = pixel;
},
{
alignment = -1;
pos = (600,500);
ref = pixel;
},
{
alignment = -1;
pos = (600,600);
ref = pixel;
},
{
alignment = -1;
pos = (700,0);
ref = pixel;
},
{
alignment = -1;
pos = (700,100);
ref = pixel;
},
{
alignment = -1;
pos = (700,500);
ref = pixel;
},
{
alignment = -1;
pos = (700,600);
ref = pixel;
},
{
alignment = -1;
pos = (800,0);
ref = pixel;
},
{
alignment = -1;
pos = (800,100);
ref = pixel;
},
{
alignment = -1;
pos = (800,200);
ref = pixel;
},
{
alignment = -1;
pos = (800,500);
ref = pixel;
},
{
alignment = -1;
pos = (800,600);
ref = pixel;
},
{
alignment = -1;
pos = (900,0);
ref = pixel;
},
{
alignment = -1;
pos = (900,100);
ref = pixel;
},
{
alignment = -1;
pos = (900,200);
ref = pixel;
},
{
alignment = -1;
pos = (900,300);
ref = pixel;
},
{
alignment = -1;
pos = (900,500);
ref = pixel;
},
{
alignment = -1;
pos = (900,600);
ref = pixel;
},
{
alignment = -1;
pos = (1000,0);
ref = pixel;
},
{
alignment = -1;
pos = (1000,100);
ref = pixel;
},
{
alignment = -1;
pos = (1000,200);
ref = pixel;
},
{
alignment = -1;
pos = (1000,300);
ref = pixel;
},
{
alignment = -1;
pos = (1000,400);
ref = pixel;
},
{
alignment = -1;
pos = (1000,500);
ref = pixel;
},
{
alignment = -1;
pos = (1000,600);
ref = pixel;
},
{
alignment = -1;
pos = (1100,0);
ref = pixel;
},
{
alignment = -1;
pos = (1100,100);
ref = pixel;
},
{
alignment = -1;
pos = (1100,300);
ref = pixel;
},
{
alignment = -1;
pos = (1100,400);
ref = pixel;
},
{
alignment = -1;
pos = (1100,500);
ref = pixel;
},
{
alignment = -1;
pos = (1100,600);
ref = pixel;
},
{
alignment = -1;
pos = (1200,0);
ref = pixel;
},
{
alignment = -1;
pos = (1200,100);
ref = pixel;
},
{
alignment = -1;
pos = (1200,400);
ref = pixel;
},
{
alignment = -1;
pos = (1200,500);
ref = pixel;
},
{
alignment = -1;
pos = (1200,600);
ref = pixel;
},
{
alignment = -1;
pos = (1300,0);
ref = pixel;
},
{
alignment = -1;
pos = (1300,100);
ref = pixel;
},
{
alignment = -1;
pos = (1300,500);
ref = pixel;
},
{
alignment = -1;
pos = (1300,600);
ref = pixel;
},
{
alignment = -1;
pos = (1400,600);
ref = pixel;
},
{
alignment = -1;
pos = (500,0);
ref = pixel;
},
{
alignment = -1;
pos = (600,100);
ref = pixel;
},
{
alignment = -1;
pos = (700,200);
ref = pixel;
},
{
alignment = -1;
pos = (800,300);
ref = pixel;
},
{
alignment = -1;
pos = (900,400);
ref = pixel;
}
);
width = 1400;
}
);
unicode = 78;
},
{
glyphname = Eng;
kernLeft = N;
kernRight = D;
lastChange = "2021-01-31 22:40:59 +0000";
layers = (
{
anchors = (
{
name = bottom;
pos = (689,0);
},
{
name = center;
pos = (689,341);
},
{
name = ogonek;
pos = (1240,0);
},
{
name = top;
pos = (689,683);
},
{
name = topleft;
pos = (21,683);
},
{
name = topright;
pos = (1357,683);
}
);
layerId = m01;
shapes = (
{
closed = 1;
nodes = (
(389,438,l),
(870.9,438,l),
(458,-131,l),
(892,-131,l),
(1477,683,l),
(21,683,l),
(21,0,l),
(389,0,l)
);
}
);
width = 1378;
}
);
unicode = 330;
},
{
color = 0;
glyphname = O;
kernLeft = O;
kernRight = U;
lastChange = "2021-02-01 00:17:45 +0000";
layers = (
{
anchors = (
{
name = bottom;
pos = (726,0);
},
{
name = center;
pos = (726,341);
},
{
name = ogonek;
pos = (1306,0);
},
{
name = top;
pos = (914,683);
},
{
name = topleft;
pos = (21,683);
},
{
name = topright;
pos = (1427,683);
}
);
guides = (
{
angle = 54.1329;
pos = (577,341);
}
);
layerId = m01;
shapes = (
{
closed = 1;
nodes = (
(-79,0,l),
(1399,0,l),
(1399,683,l),
(413,683,l)
);
},
{
closed = 1;
nodes = (
(654,447,l),
(1031,447,l),
(1031,234,l),
(500,234,l)
);
}
);
width = 1451;
}
);
unicode = 79;
},
{
color = 0;
glyphname = Oslash;
kernLeft = O;
kernRight = U;
lastChange = "2021-01-31 22:42:38 +0000";
layers = (
{
layerId = m01;
shapes = (
{
closed = 1;
nodes = (
(-79,0,l),
(1399,0,l),
(1399,683,l),
(413,683,l)
);
},
{
closed = 1;
nodes = (
(643,458,l),
(1057,458,l),
(1057,224,l),
(474,224,l)
);
},
{
closed = 1;
nodes = (
(406,-131,l),
(545,-131,l),
(1225,814,l),
(1084,814,l)
);
}
);
width = 1451;
}
);
unicode = 216;
},
{
color = 0;
glyphname = P;
kernLeft = N;
kernRight = D;
lastChange = "2021-01-31 18:53:35 +0000";
layers = (
{
anchors = (
{
name = bottom;
pos = (715,0);
},
{
name = bottomleft;
pos = (11,0);
},
{
name = bottomright;
pos = (1420,0);
},
{
name = center;
pos = (715,341);
},
{
name = ogonek;
pos = (134,672);
},
{
name = top;
pos = (715,683);
}
);
background = {
shapes = (
{
closed = 1;
nodes = (
(1426,184,l),
(1226,184,l),
(1337,339,l),
(847,339,l),
(931,457,l),
(1426,457,l)
);
},
{
closed = 1;
nodes = (
(639,662,l),
(263,137,l),
(812,137,l),
(697,-21,l),
(1814,-21,l),
(1814,662,l)
);
}
);
};
layerId = m01;
shapes = (
{
closed = 1;
nodes = (
(1467,683,l),
(53,683,l),
(53,0,l),
(421,0,l),
(421,175,l),
(374,99,l),
(1120,99,l),
(1002,26,l)
);
},
{
closed = 1;
nodes = (
(421,448,l),
(914,448,l),
(794,284,l),
(868,332,l),
(421,332,l)
);
}
);
width = 1378;
}
);
metricLeft = "=N";
unicode = 80;
},
{
color = 0;
glyphname = Thorn;
kernLeft = N;
kernRight = B;
lastChange = "2021-01-31 18:53:35 +0000";
layers = (
{
anchors = (
{
name = bottom;
pos = (715,-50);
},
{
name = bottomleft;
pos = (11,-50);
},
{
name = bottomright;
pos = (1420,-50);
},
{
name = center;
pos = (715,291);
},
{
name = ogonek;
pos = (134,622);
},
{
name = top;
pos = (715,632);
}
);
layerId = m01;
shapes = (
{
closed = 1;
nodes = (
(1467,632,l),
(53,632,l),
(53,160,l),
(421,160,l),
(421,125,l),
(374,48,l),
(1120,48,l),
(1002,-24,l)
);
},
{
closed = 1;
nodes = (
(421,398,l),
(914,398,l),
(794,233,l),
(868,281,l),
(421,281,l)
);
},
{
closed = 1;
nodes = (
(53,683,l),
(53,0,l),
(421,0,l),
(421,683,l)
);
}
);
width = 1409;
}
);
unicode = 222;
},
{
color = 0;
glyphname = Q;
kernLeft = N;
kernRight = R;
lastChange = "2021-01-31 18:53:35 +0000";
layers = (
{
anchors = (
{
name = bottom;
pos = (757,0);
},
{
name = bottomleft;
pos = (56,0);
},
{
name = bottomright;
pos = (1462,0);
},
{
name = center;
pos = (757,341);
},
{
name = ogonek;
pos = (1338,0);
},
{
name = top;
pos = (945,683);
},
{
name = topleft;
pos = (53,683);
},
{
name = topright;
pos = (1458,683);
}
);
background = {
shapes = (
{
ref = D;
}
);
};
layerId = m01;
shapes = (
{
closed = 1;
nodes = (
(1484,683,l),
(53,683,l),
(53,0,l),
(421,0,l),
(421,448,l),
(963,448,l),
(970,486,l),
(720,125,l),
(672,292,l),
(1466,-87,l),
(1466,244,l),
(1162,377,l),
(1097,133,l)
);
},
{
closed = 1;
nodes = (
(53,0,l),
(443,0,l),
(420,244,l),
(349,0,l),
(796,0,l),
(796,235,l),
(420,235,l),
(420,683,l),
(53,683,l)
);
}
);
width = 1484;
},
{
anchors = (
{
name = bottom;
pos = (726,0);
},
{
name = center;
pos = (726,341);
},
{
name = ogonek;
pos = (1306,0);
},
{
name = top;
pos = (914,683);
},
{
name = topleft;
pos = (21,683);
},
{
name = topright;
pos = (1427,683);
}
);
associatedMasterId = m01;
layerId = "5C087BF7-5111-4B8A-A07B-319610ABC035";
name = "Jan 28, 21, 23:33";
shapes = (
{
closed = 1;
nodes = (
(1530,-63,l),
(1530,171,l),
(453,269,l),
(473,196,l),
(654,447,l),
(989,447,l),
(989,276,l),
(1357,284,l),
(1357,683,l),
(413,683,l),
(-106,-39,l),
(-126,76,l)
);
}
);
width = 1530;
}
);
metricLeft = "=N";
unicode = 81;
},
{
color = 0;
glyphname = R;
kernLeft = N;
kernRight = R;
lastChange = "2021-01-31 23:08:53 +0000";
layers = (
{
anchors = (
{
name = bottom;
pos = (701,32);
},
{
name = top;
pos = (701,683);
}
);
background = {
anchors = (
{
name = bottom;
pos = (405,0);
},
{
name = bottomleft;
pos = (-139,0);
},
{
name = bottomright;
pos = (1267,0);
},
{
name = center;
pos = (563,341);
},
{
name = ogonek;
pos = (-18,683);
},
{
name = top;
pos = (563,683);
}
);
shapes = (
{
closed = 1;
nodes = (
(1367,683,l),
(-110,683,l),
(-110,0,l),
(876,0,l)
);
},
{
closed = 1;
nodes = (
(634,235,l),
(257,235,l),
(257,448,l),
(789,448,l)
);
}
);
};
layerId = m01;
shapes = (
{
closed = 1;
nodes = (
(1368,683,l),
(53,683,l),
(53,0,l),
(421,0,l),
(421,437,l),
(847,437,l),
(855,486,l),
(595,125,l),
(536,271,l),
(1382,-87,l),
(1382,244,l),
(1026,377,l),
(972,133,l)
);
}
);
width = 1382;
}
);
metricLeft = "=N";
unicode = 82;
},
{
color = 0;
glyphname = S;
kernLeft = S;
kernRight = S;
lastChange = "2021-01-31 18:53:35 +0000";
layers = (
{
anchors = (
{
name = bottom;
pos = (615,0);
},
{
name = top;
pos = (857,683);
}
);
layerId = m01;
shapes = (
{
closed = 1;
nodes = (
(1218,0,l),
(898,438,l),
(1370,438,l),
(1370,683,l),
(291,683,l),
(613,234,l),
(389,234,l),
(389,438,l),
(21,438,l),
(21,0,l)
);
}
);
width = 1370;
}
);
unicode = 83;
},
{
color = 0;
glyphname = Saltillo;
kernLeft = quotesingle;
kernRight = quotesingle;
lastChange = "2021-01-31 18:53:35 +0000";
layers = (
{
layerId = m01;
shapes = (
{
closed = 1;
nodes = (
(63,683,l),
(63,263,l),
(473,263,l),
(473,683,l)
);
}
);
width = 536;
}
);
unicode = 42891;
},
{
color = 0;
glyphname = Germandbls;
kernLeft = N;
kernRight = B;
lastChange = "2021-01-31 18:53:35 +0000";
layers = (
{
layerId = m01;
shapes = (
{
closed = 1;
nodes = (
(420,0,l),
(420,467,l),
(625,467,l),
(541,349,l),
(962,349,l),
(623,-131,l),
(1027,-131,l),
(1515,551,l),
(888,551,l),
(888,683,l),
(53,683,l),
(53,0,l)
);
}
);
width = 1436;
},
{
associatedMasterId = m01;
layerId = "0A32C4B5-7430-455C-8C39-EEE02128C649";
name = "Jan 27, 21, 22:39";
shapes = (
{
closed = 1;
nodes = (
(441,0,l),
(441,438,l),
(900,438,l),
(786,303,l),
(949,77,l),
(725,77,l),
(725,209,l),
(399,209,l),
(399,-158,l),
(1575,-158,l),
(1226,318,l),
(1169,239,l),
(1496,683,l),
(53,683,l),
(53,0,l)
);
}
);
width = 1451;
},
{
associatedMasterId = m01;
layerId = "1269CD64-D601-4970-9310-0F255304312E";
name = "Jan 27, 21, 23:17";
shapes = (
{
closed = 1;
nodes = (
(1229,678,l),
(47,683,l),
(47,0,l),
(415,0,l),
(415,520,l),
(368,448,l),
(709,448,l),
(713,504,l),
(521,280,l),
(473,285,l),
(930,285,l),
(910,355,l),
(540,-162,l),
(965,-162,l),
(1484,565,l),
(1504,505,l),
(972,505,l),
(1013,573,l),
(1042,370,l),
(1007,379,l)
);
}
);
width = 1362;
}
);
metricRight = "=B";
unicode = 7838;
},
{
color = 0;
glyphname = T;
kernLeft = T;
kernRight = T;
lastChange = "2021-01-31 18:53:35 +0000";
layers = (
{
anchors = (
{
name = bottom;
pos = (668,0);
},
{
name = center;
pos = (668,341);
},
{
name = top;
pos = (668,683);
}
);
layerId = m01;
shapes = (
{
closed = 1;
nodes = (
(861,0,l),
(861,438,l),
(1335,438,l),
(1335,683,l),
(0,683,l),
(0,438,l),
(473,438,l),
(473,0,l)
);
}
);
width = 1335;
}
);
unicode = 84;
},
{
glyphname = Tbar;
kernLeft = T;
kernRight = T;
lastChange = "2021-02-01 19:45:24 +0000";
layers = (
{
layerId = m01;
shapes = (
{
pos = (10,0);
ref = T;
},
{
closed = 1;
nodes = (
(210,168,l),
(1145,168,l),
(1145,275,l),
(210,275,l)
);
}
);
width = 1355;
}
);
unicode = 358;
},
{
color = 3;
glyphname = V;
kernLeft = N;
kernRight = D;
lastChange = "2021-03-05 14:26:13 +0000";
layers = (
{
anchors = (
{
name = bottom;
pos = (558,0);
},
{
name = top;
pos = (715,683);
}
);
background = {
anchors = (
{
name = bottom;
pos = (568,0);
},
{
name = bottomleft;
pos = (24,0);
},
{
name = bottomright;
pos = (1430,0);
},
{
name = center;
pos = (726,341);
},
{
name = ogonek;
pos = (145,683);
},
{
name = top;
pos = (726,683);
}
);
shapes = (
{
closed = 1;
nodes = (
(1530,683,l),
(53,683,l),
(53,0,l),
(1038,0,l)
);
},
{
closed = 1;
nodes = (
(797,235,l),
(420,235,l),
(420,448,l),
(951,448,l)
);
}
);
};
layerId = m01;
width = 1500;
}
);
unicode = 86;
},
{
color = 0;
glyphname = X;
kernLeft = X;
kernRight = X;
lastChange = "2021-01-31 18:53:35 +0000";
layers = (
{
anchors = (
{
name = bottom;
pos = (693,0);
},
{
name = top;
pos = (693,683);
}
);
layerId = m01;
shapes = (
{
closed = 1;
nodes = (
(21,-87,l),
(944,315,l),
(680,683,l),
(21,683,l),
(21,438,l),
(590,434,l),
(587,455,l),
(21,243,l)
);
},
{
closed = 1;
nodes = (
(1364,770,l),
(441,368,l),
(705,0,l),
(1364,0,l),
(1364,245,l),
(795,249,l),
(798,228,l),
(1364,440,l)
);
}
);
width = 1385;
}
);
unicode = 88;
},
{
color = 0;
glyphname = Y;
kernLeft = U;
kernRight = Y;
lastChange = "2021-01-31 18:58:43 +0000";
layers = (
{
anchors = (
{
name = bottom;
pos = (726,0);
},
{
name = top;
pos = (883,683);
},
{
name = topleft;
pos = (21,683);
}
);
layerId = m01;
shapes = (
{
closed = 1;
nodes = (
(1024,210,l),
(1024,-131,l),
(1391,-131,l),
(1391,210,l)
);
},
{
ref = U;
}
);
width = 1444;
}
);
metricRight = "=U";
unicode = 89;
},
{
color = 0;
glyphname = B.ss01;
kernLeft = H;
kernRight = D;
lastChange = "2021-01-31 18:53:35 +0000";
layers = (
{
anchors = (
{
name = bottom;
pos = (726,0);
},
{
name = bottomleft;
pos = (24,0);
},
{
name = bottomright;
pos = (1430,0);
},
{
name = center;
pos = (726,341);
},
{
name = ogonek;
pos = (145,683);
},
{
name = top;
pos = (726,683);
}
);
layerId = m01;
shapes = (
{
closed = 1;
nodes = (
(1530,683,l),
(380,683,l),
(420,448,l),
(420,814,l),
(53,814,l),
(53,0,l),
(1038,0,l)
);
},
{
closed = 1;
nodes = (
(420,448,l),
(951,448,l),
(797,235,l),
(420,235,l)
);
}
);
width = 1451;
}
);
metricLeft = "=N";
metricRight = "=D";
},
{
color = 0;
glyphname = Hbar.ss01;
kernLeft = H;
kernRight = N;
lastChange = "2021-01-31 18:53:35 +0000";
layers = (
{
anchors = (
{
name = bottom;
pos = (722,0);
},
{
name = bottomleft;
pos = (24,0);
},
{
name = bottomright;
pos = (1423,0);
},
{
name = center;
pos = (722,341);
},
{
name = ogonek;
pos = (144,683);
},
{
name = top;
pos = (239,777);
},
{
name = topleft;
pos = (21,683);
}
);
layerId = m01;
shapes = (
{
closed = 1;
nodes = (
(1487,721,l),
(1507,630,l),
(5,630,l),
(53,730,l),
(53,0,l),
(420,0,l),
(420,485,l),
(373,385,l),
(990,385,l),
(930,393,l),
(957,485,l),
(602,0,l),
(1397,0,l),
(1397,244,l),
(1085,244,l),
(1114,193,l)
);
},
{
closed = 1;
nodes = (
(420,473,l),
(420,814,l),
(53,814,l),
(53,473,l)
);
},
{
closed = 1;
nodes = (
(0,671,l),
(812,671,l),
(812,757,l),
(0,757,l)
);
}
);
width = 1433;
}
);
metricLeft = "=H@0";
},
{
color = 0;
glyphname = P.ss01;
kernLeft = N;
kernRight = D;
lastChange = "2021-01-31 19:00:11 +0000";
layers = (
{
anchors = (
{
name = bottom;
pos = (727,0);
},
{
name = top;
pos = (884,683);
}
);
background = {
shapes = (
{
closed = 1;
nodes = (
(1373,683,l),
(64,681,l),
(64,-1,l),
(454,-1,l),
(454,438,l),
(828,438,l),
(819,486,l),
(535,97,l),
(958,97,l)
);
}
);
};
layerId = m01;
shapes = (
{
closed = 1;
nodes = (
(53,105,l),
(53,-131,l),
(420,-131,l),
(420,105,l)
);
},
{
pos = (1,0);
ref = D;
}
);
width = 1452;
}
);
metricLeft = "=N";
metricRight = "=|O";
},
{
color = 0;
glyphname = Q.ss01;
kernLeft = O;
kernRight = Y;
lastChange = "2021-01-31 18:53:35 +0000";
layers = (
{
anchors = (
{
name = bottom;
pos = (726,0);
},
{
name = top;
pos = (914,683);
}
);
layerId = m01;
shapes = (
{
closed = 1;
nodes = (
(1031,105,l),
(1031,-131,l),
(1399,-131,l),
(1399,105,l)
);
},
{
ref = O;
}
);
width = 1451;
}
);
metricLeft = "=O";
},
{
color = 0;
glyphname = G.ss02;
kernLeft = O;
kernRight = u;
lastChange = "2021-01-31 22:50:26 +0000";
layers = (
{
anchors = (
{
name = bottom;
pos = (720,0);
},
{
name = top;
pos = (604,683);
}
);
background = {
shapes = (
{
closed = 1;
nodes = (
(-68,0,l),
(1409,0,l),
(1409,683,l),
(423,683,l)
);
},
{
closed = 1;
nodes = (
(665,447,l),
(1042,447,l),
(1042,234,l),
(510,234,l)
);
}
);
};
layerId = m01;
shapes = (
{
closed = 1;
nodes = (
(-79,0,l),
(1399,0,l),
(1399,551,l),
(856,551,l),
(688,318,l),
(1031,318,l),
(1031,234,l),
(500,234,l),
(966,878,l),
(874,683,l),
(368,683,l),
(554,878,l)
);
}
);
width = 1441;
}
);
metricLeft = "=O";
},
{
color = 0;
glyphname = H.ss02;
kernLeft = O;
kernRight = U;
lastChange = "2021-01-31 19:00:13 +0000";
layers = (
{
anchors = (
{
name = bottom;
pos = (726,0);
},
{
name = top;
pos = (914,683);
}
);
layerId = m01;
shapes = (
{
closed = 1;
nodes = (
(-79,0,l),
(352,0,l),
(845,683,l),
(413,683,l)
);
},
{
closed = 1;
nodes = (
(1177,173,l),
(1177,427,l),
(462,427,l),
(263,173,l)
);
},
{
closed = 1;
nodes = (
(1399,0,l),
(1399,683,l),
(1010,683,l),
(1010,0,l)
);
}
);
width = 1452;
}
);
metricLeft = "=O";
metricRight = "=U";
},
{
color = 0;
glyphname = Hbar.ss02;
kernLeft = O;
kernRight = U;
lastChange = "2021-01-31 19:00:15 +0000";
layers = (
{
layerId = m01;
shapes = (
{
closed = 1;
nodes = (
(-79,0,l),
(352,0,l),
(845,683,l),
(413,683,l)
);
},
{
closed = 1;
nodes = (
(1177,121,l),
(1177,375,l),
(462,375,l),
(263,121,l)
);
},
{
closed = 1;
nodes = (
(1399,0,l),
(1399,683,l),
(1010,683,l),
(1010,0,l)
);
},
{
closed = 1;
nodes = (
(105,444,l),
(1442,444,l),
(1442,551,l),
(105,551,l)
);
}
);
width = 1452;
}
);
metricLeft = "=H.ss02";
metricRight = "=H@0";
},
{
color = 0;
glyphname = Y.ss02;
kernLeft = Y.ss02;
kernRight = U;
lastChange = "2021-01-31 21:03:15 +0000";
layers = (
{
anchors = (
{
name = bottom;
pos = (685,53);
},
{
name = ogonek;
pos = (1259,0);
},
{
name = top;
pos = (862,683);
},
{
name = topleft;
pos = (-20,683);
},
{
name = topright;
pos = (1379,683);
}
);
background = {
shapes = (
{
closed = 1;
nodes = (
(1426,683,l),
(12,681,l),
(12,0,l),
(380,0,l),
(380,175,l),
(333,88,l),
(1079,88,l),
(961,26,l)
);
},
{
closed = 1;
nodes = (
(380,448,l),
(873,448,l),
(780,321,l),
(380,321,l)
);
}
);
};
layerId = m01;
shapes = (
{
closed = 1;
nodes = (
(-105,-39,l),
(-104,99,l),
(1329,99,l),
(1329,683,l),
(962,683,l),
(962,342,l),
(460,342,l),
(457,197,l),
(812,683,l),
(33,683,l),
(33,439,l),
(318,439,l),
(289,489,l)
);
},
{
closed = 1;
nodes = (
(962,263,l),
(962,0,l),
(1329,0,l),
(1329,263,l)
);
}
);
width = 1382;
}
);
metricRight = "=U";
},
{
color = 0;
glyphname = C.ss03;
kernLeft = N;
kernRight = C;
lastChange = "2021-01-31 18:53:35 +0000";
layers = (
{
anchors = (
{
name = bottom;
pos = (726,0);
},
{
name = top;
pos = (726,683);
}
);
layerId = m01;
shapes = (
{
closed = 1;
nodes = (
(53,0,l),
(1231,0,l),
(1231,245,l),
(441,245,l),
(441,438,l),
(1231,438,l),
(1231,683,l),
(53,683,l)
);
}
);
width = 1252;
}
);
metricLeft = "=O.ss03";
metricRight = "=C";
},
{
color = 0;
glyphname = E.ss03;
kernLeft = N;
kernRight = U;
lastChange = "2021-02-01 19:54:29 +0000";
layers = (
{
anchors = (
{
name = bottom;
pos = (701,0);
},
{
name = ogonek;
pos = (1276,0);
},
{
name = top;
pos = (722,683);
},
{
name = topleft;
pos = (21,683);
}
);
layerId = m01;
shapes = (
{
closed = 1;
nodes = (
(400,0,l),
(400,438,l),
(1276,438,l),
(1276,683,l),
(53,683,l),
(53,0,l)
);
},
{
closed = 1;
nodes = (
(378,0,l),
(1276,0,l),
(1276,244,l),
(231,244,l)
);
},
{
closed = 1;
nodes = (
(315,305,l),
(1276,305,l),
(1276,374,l),
(315,374,l)
);
}
);
width = 1318;
}
);
metricLeft = "=N";
},
{
color = 0;
glyphname = J.ss03;
kernLeft = J;
kernRight = U;
lastChange = "2021-01-31 19:00:18 +0000";
layers = (
{
anchors = (
{
name = bottom;
pos = (610,0);
},
{
name = top;
pos = (936,683);
}
);
layerId = m01;
shapes = (
{
closed = 1;
nodes = (
(757,683,l),
(757,244,l),
(21,244,l),
(21,0,l),
(1146,0,l),
(1146,683,l)
);
}
);
width = 1199;
}
);
metricLeft = "=|L";
metricRight = "=U";
},
{
color = 0;
glyphname = L.ss03;
kernLeft = N;
kernRight = L.ss03;
lastChange = "2021-01-31 18:53:35 +0000";
layers = (
{
anchors = (
{
name = bottom;
pos = (589,0);
},
{
name = center;
pos = (589,341);
},
{
name = top;
pos = (257,683);
},
{
name = topright;
pos = (922,683);
}
);
layerId = m01;
shapes = (
{
closed = 1;
nodes = (
(53,0,l),
(464,0,l),
(441,244,l),
(370,0,l),
(1177,0,l),
(1177,244,l),
(441,244,l),
(441,683,l),
(53,683,l)
);
}
);
width = 1177;
}
);
},
{
color = 0;
glyphname = Lslash.ss03;
kernLeft = N;
lastChange = "2021-01-31 18:53:35 +0000";
layers = (
{
layerId = m01;
shapes = (
{
closed = 1;
nodes = (
(53,0,l),
(464,0,l),
(441,244,l),
(370,0,l),
(1177,0,l),
(1177,244,l),
(420,244,l),
(420,683,l),
(53,683,l)
);
},
{
closed = 1;
nodes = (
(296,240,l),
(977,522,l),
(977,634,l),
(296,348,l)
);
}
);
width = 1177;
}
);
metricLeft = "=N";
metricRight = L.ss03;
},
{
color = 0;
glyphname = O.ss03;
kernLeft = N;
kernRight = U;
lastChange = "2021-01-31 18:53:35 +0000";
layers = (
{
anchors = (
{
name = bottom;
pos = (689,0);
},
{
name = center;
pos = (689,341);
},
{
name = ogonek;
pos = (1240,0);
},
{
name = top;
pos = (689,683);
},
{
name = topleft;
pos = (21,683);
},
{
name = topright;
pos = (1357,683);
}
);
layerId = m01;
shapes = (
{
closed = 1;
nodes = (
(53,0,l),
(1325,0,l),
(1325,683,l),
(53,683,l)
);
},
{
closed = 1;
nodes = (
(420,447,l),
(958,447,l),
(958,234,l),
(420,234,l)
);
}
);
width = 1378;
}
);
metricLeft = "=N";
metricRight = "=U";
},
{
color = 0;
glyphname = Oslash.ss03;
kernLeft = N;
kernRight = U;
lastChange = "2021-01-31 22:42:46 +0000";
layers = (
{
layerId = m01;
shapes = (
{
closed = 1;
nodes = (
(280,-131,l),
(419,-131,l),
(1099,814,l),
(958,814,l)
);
},
{
ref = O.ss03;
}
);
width = 1378;
}
);
},
{
color = 0;
glyphname = W.ss04;
kernLeft = N;
kernRight = D;
lastChange = "2021-01-31 18:53:35 +0000";
layers = (
{
anchors = (
{
name = bottom;
pos = (897,0);
},
{
name = top;
pos = (897,683);
}
);
layerId = m01;
shapes = (
{
closed = 1;
nodes = (
(2018,683,l),
(1245,683,l),
(1076,448,l),
(1439,448,l),
(1284,235,l),
(1076,235,l),
(1076,683,l),
(709,683,l),
(709,233,l),
(420,233,l),
(420,683,l),
(53,683,l),
(53,0,l),
(1527,0,l)
);
}
);
width = 1939;
}
);
metricLeft = "=N";
metricRight = "=D";
},
{
color = 0;
glyphname = Y.ss04;
kernLeft = N;
kernRight = D;
lastChange = "2021-03-05 14:26:13 +0000";
layers = (
{
anchors = (
{
name = bottom;
pos = (355,0);
},
{
name = top;
pos = (841,683);
},
{
name = topleft;
pos = (21,683);
}
);
layerId = m01;
shapes = (
{
closed = 1;
nodes = (
(1530,683,l),
(951,448,l),
(485,-195,l),
(486,-131,l),
(992,-131,l),
(897,-195,l)
);
}
);
width = 1451;
}
);
},
{
color = 0;
glyphname = S.ss05;
kernLeft = S.ss09;
kernRight = S;
lastChange = "2021-01-31 22:46:23 +0000";
layers = (
{
anchors = (
{
name = bottom;
pos = (529,0);
},
{
name = top;
pos = (718,683);
}
);
background = {
shapes = (
{
closed = 1;
nodes = (
(152,683,l),
(473,245,l),
(0,245,l),
(0,0,l),
(1079,0,l),
(757,448,l),
(982,448,l),
(982,245,l),
(1349,245,l),
(1349,683,l)
);
}
);
};
layerId = m01;
shapes = (
{
closed = 1;
nodes = (
(1079,0,l),
(759,438,l),
(1253,438,l),
(1253,683,l),
(152,683,l),
(474,244,l),
(-21,244,l),
(-21,0,l)
);
}
);
width = 1253;
}
);
metricRight = "=S";
},
{
color = 0;
glyphname = Y.ss02.ss04;
kernLeft = N;
kernRight = D;
lastChange = "2021-01-31 22:52:24 +0000";
layers = (
{
anchors = (
{
name = bottom;
pos = (388,80);
},
{
name = ogonek;
pos = (1252,0);
},
{
name = top;
pos = (834,683);
},
{
name = topleft;
pos = (14,683);
},
{
name = topright;
pos = (1372,683);
}
);
background = {
shapes = (
{
closed = 1;
nodes = (
(-112,-39,l),
(-111,99,l),
(1322,99,l),
(1322,683,l),
(955,683,l),
(955,342,l),
(453,342,l),
(450,197,l),
(805,683,l),
(26,683,l),
(26,439,l),
(311,439,l),
(282,489,l)
);
},
{
closed = 1;
nodes = (
(955,263,l),
(955,0,l),
(1322,0,l),
(1322,263,l)
);
}
);
};
layerId = m01;
shapes = (
{
closed = 1;
nodes = (
(1523,683,l),
(582,683,l),
(413,449,l),
(413,683,l),
(45,683,l),
(45,-45,l),
(20,99,l),
(1196,99,l),
(1005,-37,l)
);
},
{
closed = 1;
nodes = (
(763,200,l),
(954,335,l),
(388,335,l),
(413,191,l),
(413,449,l),
(943,449,l)
);
},
{
closed = 1;
nodes = (
(1523,683,l),
(944,448,l),
(478,-195,l),
(589,0,l),
(1095,0,l),
(890,-195,l)
);
}
);
width = 1444;
}
);
},
{
color = 0;
export = 0;
glyphname = U.ss01X;
kernLeft = O;
kernRight = U;
lastChange = "2021-01-31 18:53:35 +0000";
layers = (
{
anchors = (
{
name = bottom;
pos = (712,0);
},
{
name = ogonek;
pos = (1300,0);
},
{
name = top;
pos = (826,683);
},
{
name = topright;
pos = (1420,683);
}
);
background = {
shapes = (
{
closed = 1;
nodes = (
(-79,0,l),
(1399,0,l),
(1399,683,l),
(413,683,l)
);
},
{
closed = 1;
nodes = (
(654,447,l),
(1031,447,l),
(1031,234,l),
(500,234,l)
);
}
);
};
layerId = m01;
shapes = (
{
closed = 1;
nodes = (
(-79,0,l),
(1399,0,l),
(1399,683,l),
(1031,683,l),
(1031,244,l),
(507,244,l),
(824,683,l),
(413,683,l)
);
}
);
width = 1451;
}
);
},
{
color = 0;
export = 0;
glyphname = G.ss02X;
kernLeft = O;
kernRight = U;
lastChange = "2021-01-31 18:53:35 +0000";
layers = (
{
anchors = (
{
name = bottom;
pos = (726,0);
},
{
name = center;
pos = (726,341);
},
{
name = ogonek;
pos = (1306,0);
},
{
name = top;
pos = (914,683);
},
{
name = topleft;
pos = (21,683);
},
{
name = topright;
pos = (1427,683);
}
);
layerId = m01;
shapes = (
{
closed = 1;
nodes = (
(1052,437,l),
(1052,234,l),
(500,234,l),
(681,485,l),
(607,436,l),
(1052,436,l),
(973,400,l),
(973,683,l),
(413,683,l),
(-79,0,l),
(1420,0,l),
(1420,437,l)
);
}
);
width = 1451;
}
);
},
{
color = 0;
export = 0;
glyphname = T.ss05X;
kernRight = D;
lastChange = "2021-01-31 18:53:35 +0000";
layers = (
{
layerId = m01;
shapes = (
{
closed = 1;
nodes = (
(21,245,l),
(389,245,l),
(389,448,l),
(844,448,l),
(522,0,l),
(971,0,l),
(1470,683,l),
(21,683,l)
);
}
);
width = 1391;
}
);
metricRight = "=D";
},
{
color = 0;
export = 0;
glyphname = M.ss0X;
kernLeft = O;
kernRight = U;
lastChange = "2021-01-31 19:00:29 +0000";
layers = (
{
layerId = m01;
shapes = (
{
closed = 1;
nodes = (
(-79,0,l),
(363,0,l),
(687,447,l),
(863,447,l),
(863,0,l),
(1231,0,l),
(1231,449,l),
(1519,449,l),
(1519,0,l),
(1887,0,l),
(1887,683,l),
(413,683,l)
);
}
);
width = 1940;
}
);
metricLeft = "=O";
metricRight = "=U";
},
{
color = 0;
export = 0;
glyphname = N.ss0X;
kernLeft = N;
kernRight = D;
lastChange = "2021-01-31 18:53:35 +0000";
layers = (
{
anchors = (
{
name = bottom;
pos = (568,0);
},
{
name = bottomleft;
pos = (24,0);
},
{
name = bottomright;
pos = (1430,0);
},
{
name = center;
pos = (726,341);
},
{
name = ogonek;
pos = (145,683);
},
{
name = top;
pos = (726,683);
}
);
layerId = m01;
shapes = (
{
closed = 1;
nodes = (
(1530,683,l),
(1120,683,l),
(627,0,l),
(1038,0,l)
);
},
{
closed = 1;
nodes = (
(53,683,l),
(53,0,l),
(420,0,l),
(420,683,l)
);
},
{
closed = 1;
nodes = (
(858,148,l),
(1128,295,l),
(419,683,l),
(191,509,l)
);
}
);
width = 1451;
}
);
},
{
color = 0;
export = 0;
glyphname = N.ss0X2;
kernLeft = O;
kernRight = U;
lastChange = "2021-01-31 18:53:35 +0000";
layers = (
{
anchors = (
{
name = bottom;
pos = (659,0);
},
{
name = ogonek;
pos = (1247,0);
},
{
name = top;
pos = (774,683);
},
{
name = topright;
pos = (1367,683);
}
);
background = {
shapes = (
{
closed = 1;
nodes = (
(-131,0,l),
(1346,0,l),
(1346,683,l),
(979,683,l),
(979,244,l),
(455,244,l),
(772,683,l),
(360,683,l)
);
}
);
};
layerId = m01;
shapes = (
{
closed = 1;
nodes = (
(-79,0,l),
(336,0,l),
(830,683,l),
(413,683,l)
);
},
{
closed = 1;
nodes = (
(1230,438,l),
(1230,683,l),
(567,683,l),
(368,438,l)
);
},
{
closed = 1;
nodes = (
(1346,0,l),
(1346,683,l),
(968,683,l),
(968,0,l)
);
}
);
width = 1399;
}
);
},
{
color = 0;
glyphname = a;
kernLeft = a;
kernRight = a;
lastChange = "2021-02-09 05:22:09 +0000";
layers = (
{
anchors = (
{
name = bottom;
pos = (562,0);
},
{
name = ogonek;
pos = (1172,0);
},
{
name = top;
pos = (507,551);
}
);
background = {
shapes = (
{
closed = 1;
nodes = (
(805,0,l),
(1156,0,l),
(1156,268,l),
(1203,215,l),
(943,215,l),
(990,173,l),
(990,551,l),
(627,551,l),
(9,551,l),
(9,336,l),
(566,336,l),
(561,353,l),
(-100,0,l),
(659,0,l),
(659,257,l),
(707,205,l),
(370,205,l),
(375,188,l),
(659,340,l),
(659,163,l),
(627,249,l)
);
}
);
};
layerId = m01;
shapes = (
{
alignment = -1;
pos = (0,400);
ref = pixel;
},
{
alignment = -1;
pos = (0,500);
ref = pixel;
},
{
alignment = -1;
pos = (100,0);
ref = pixel;
},
{
alignment = -1;
pos = (100,400);
ref = pixel;
},
{
alignment = -1;
pos = (100,500);
ref = pixel;
},
{
alignment = -1;
pos = (200,0);
ref = pixel;
},
{
alignment = -1;
pos = (200,100);
ref = pixel;
},
{
alignment = -1;
pos = (200,400);
ref = pixel;
},
{
alignment = -1;
pos = (200,500);
ref = pixel;
},
{
alignment = -1;
pos = (300,0);
ref = pixel;
},
{
alignment = -1;
pos = (300,100);
ref = pixel;
},
{
alignment = -1;
pos = (300,400);
ref = pixel;
},
{
alignment = -1;
pos = (300,500);
ref = pixel;
},
{
alignment = -1;
pos = (400,0);
ref = pixel;
},
{
alignment = -1;
pos = (400,100);
ref = pixel;
},
{
alignment = -1;
pos = (400,400);
ref = pixel;
},
{
alignment = -1;
pos = (400,500);
ref = pixel;
},
{
alignment = -1;
pos = (500,0);
ref = pixel;
},
{
alignment = -1;
pos = (500,100);
ref = pixel;
},
{
alignment = -1;
pos = (500,400);
ref = pixel;
},
{
alignment = -1;
pos = (500,500);
ref = pixel;
},
{
alignment = -1;
pos = (600,0);
ref = pixel;
},
{
alignment = -1;
pos = (600,100);
ref = pixel;
},
{
alignment = -1;
pos = (600,400);
ref = pixel;
},
{
alignment = -1;
pos = (600,500);
ref = pixel;
},
{
alignment = -1;
pos = (700,200);
ref = pixel;
},
{
alignment = -1;
pos = (700,300);
ref = pixel;
},
{
alignment = -1;
pos = (700,400);
ref = pixel;
},
{
alignment = -1;
pos = (700,500);
ref = pixel;
},
{
alignment = -1;
pos = (800,100);
ref = pixel;
},
{
alignment = -1;
pos = (800,200);
ref = pixel;
},
{
alignment = -1;
pos = (800,300);
ref = pixel;
},
{
alignment = -1;
pos = (800,400);
ref = pixel;
},
{
alignment = -1;
pos = (800,500);
ref = pixel;
},
{
alignment = -1;
pos = (900,0);
ref = pixel;
},
{
alignment = -1;
pos = (900,100);
ref = pixel;
},
{
alignment = -1;
pos = (900,200);
ref = pixel;
},
{
alignment = -1;
pos = (900,300);
ref = pixel;
},
{
alignment = -1;
pos = (900,400);
ref = pixel;
},
{
alignment = -1;
pos = (900,500);
ref = pixel;
},
{
alignment = -1;
pos = (1000,0);
ref = pixel;
},
{
alignment = -1;
pos = (1000,100);
ref = pixel;
},
{
alignment = -1;
pos = (1100,0);
ref = pixel;
},
{
alignment = -1;
pos = (1100,100);
ref = pixel;
},
{
alignment = -1;
ref = pixel;
},
{
alignment = -1;
pos = (100,100);
ref = pixel;
},
{
alignment = -1;
pos = (200,200);
ref = pixel;
},
{
alignment = -1;
pos = (300,300);
ref = pixel;
},
{
alignment = -1;
pos = (300,200);
ref = pixel;
},
{
alignment = -1;
pos = (400,300);
ref = pixel;
}
);
width = 1200;
},
{
associatedMasterId = m01;
layerId = "44749AA1-E4DE-44A6-82F0-797A2E00BDA9";
name = "Jan 24, 21, 10:58";
shapes = (
{
alignment = -1;
pos = (210,420);
ref = pixel;
},
{
alignment = -1;
pos = (315,420);
ref = pixel;
},
{
alignment = -1;
pos = (420,420);
ref = pixel;
},
{
alignment = -1;
pos = (525,315);
ref = pixel;
},
{
alignment = -1;
pos = (525,210);
ref = pixel;
},
{
alignment = -1;
pos = (525,105);
ref = pixel;
},
{
alignment = -1;
pos = (420,210);
ref = pixel;
},
{
alignment = -1;
pos = (315,210);
ref = pixel;
},
{
alignment = -1;
pos = (210,210);
ref = pixel;
},
{
alignment = -1;
pos = (105,105);
ref = pixel;
},
{
alignment = -1;
pos = (210,0);
ref = pixel;
},
{
alignment = -1;
pos = (315,0);
ref = pixel;
},
{
alignment = -1;
pos = (420,0);
ref = pixel;
},
{
alignment = -1;
pos = (630,0);
ref = pixel;
}
);
width = 840;
},
{
associatedMasterId = m01;
layerId = "988FB804-28FE-4481-BF8A-E0E4352EE2E4";
name = "Jan 24, 21, 12:37";
shapes = (
{
closed = 1;
nodes = (
(210,95,l),
(210,221,l),
(525,221,l),
(525,95,l)
);
},
{
closed = 1;
nodes = (
(735,0,l),
(735,95,l),
(630,95,l),
(630,431,l),
(525,525,l),
(210,525,l),
(210,431,l),
(525,431,l),
(525,315,l),
(105,315,l),
(104,105,l),
(210,0,l),
(525,0,l),
(525,95,l),
(525,95,l),
(630,0,l)
);
}
);
width = 840;
},
{
associatedMasterId = m01;
layerId = "2160B781-8C99-428B-98CA-CAB20E31E13E";
name = "Jan 24, 21, 15:30";
shapes = (
{
closed = 1;
nodes = (
(558,0,l),
(631,0,l),
(631,95,l),
(526,95,l),
(526,399,l),
(390,525,l),
(53,525,l),
(53,431,l),
(421,431,l),
(421,420,l),
(1,134,l),
(0,126,l),
(137,0,l),
(421,0,l),
(421,95,l),
(127,95,l),
(127,105,l),
(421,305,l),
(421,126,l)
);
}
);
width = 631;
}
);
unicode = 97;
},
{
color = 0;
glyphname = ae;
kernLeft = a;
kernRight = e;
lastChange = "2021-01-31 19:03:54 +0000";
layers = (
{
anchors = (
{
name = bottom;
pos = (1148,0);
},
{
name = ogonek;
pos = (1664,0);
},
{
name = top;
pos = (1192,551);
}
);
layerId = m01;
shapes = (
{
closed = 1;
nodes = (
(659,0,l),
(659,205,l),
(811,0,l),
(1641,0,l),
(1641,268,l),
(1688,215,l),
(1085,215,l),
(1090,198,l),
(1750,551,l),
(9,551,l),
(9,284,l),
(-38,336,l),
(566,336,l),
(561,353,l),
(-100,0,l)
);
},
{
closed = 1;
nodes = (
(659,205,l),
(370,205,l),
(375,188,l),
(659,340,l),
(659,163,l)
);
},
{
closed = 1;
nodes = (
(990,342,l),
(1235,342,l),
(990,211,l)
);
}
);
width = 1650;
}
);
metricLeft = "=a";
metricRight = "=e";
unicode = 230;
},
{
color = 0;
glyphname = b;
kernLeft = h;
kernRight = p;
lastChange = "2021-01-31 18:53:35 +0000";
layers = (
{
anchors = (
{
name = bottom;
pos = (601,0);
},
{
name = top;
pos = (601,882);
}
);
layerId = m01;
shapes = (
{
closed = 1;
nodes = (
(1284,551,l),
(380,551,l),
(380,683,l),
(49,683,l),
(49,0,l),
(887,0,l)
);
},
{
closed = 1;
nodes = (
(380,389,l),
(333,347,l),
(798,347,l),
(778,380,l),
(630,172,l),
(705,205,l),
(333,205,l),
(380,164,l)
);
}
);
width = 1201;
}
);
metricLeft = "=n";
metricRight = "=|o";
unicode = 98;
},
{
color = 0;
glyphname = c;
kernLeft = o;
kernRight = c;
lastChange = "2021-01-31 18:53:35 +0000";
layers = (
{
anchors = (
{
name = bottom;
pos = (524,0);
},
{
name = top;
pos = (677,551);
}
);
background = {
shapes = (
{
closed = 1;
nodes = (
(-68,0,l),
(1103,0,l),
(1103,525,l),
(310,525,l)
);
},
{
closed = 1;
nodes = (
(529,323,l),
(788,323,l),
(788,200,l),
(440,200,l)
);
}
);
};
layerId = m01;
shapes = (
{
closed = 1;
nodes = (
(412,215,l),
(432,182,l),
(565,370,l),
(490,336,l),
(1073,336,l),
(1026,284,l),
(1026,551,l),
(314,551,l),
(-83,0,l),
(1026,0,l),
(1026,268,l),
(1073,215,l)
);
}
);
width = 1045;
}
);
metricLeft = "=o";
unicode = 99;
},
{
color = 0;
glyphname = d;
kernLeft = o;
kernRight = d;
lastChange = "2021-01-31 18:53:35 +0000";
layers = (
{
anchors = (
{
name = bottom;
pos = (601,0);
},
{
name = center;
pos = (601,276);
},
{
name = top;
pos = (601,882);
},
{
name = topright;
pos = (1423,717);
}
);
layerId = m01;
shapes = (
{
closed = 1;
nodes = (
(1152,0,l),
(1152,683,l),
(821,683,l),
(821,551,l),
(314,551,l),
(-83,0,l)
);
},
{
closed = 1;
nodes = (
(868,205,l),
(403,205,l),
(422,172,l),
(573,377,l),
(498,347,l),
(868,347,l),
(821,386,l),
(821,163,l)
);
}
);
width = 1201;
}
);
metricLeft = "=o";
metricRight = "=|h";
unicode = 100;
},
{
color = 0;
glyphname = eth;
kernLeft = n;
kernRight = eth;
lastChange = "2021-01-31 23:08:40 +0000";
layers = (
{
background = {
shapes = (
{
closed = 0;
nodes = (
(471,0,l),
(962,683,l)
);
},
{
closed = 0;
nodes = (
(362,0,l),
(853,683,l)
);
}
);
};
layerId = m01;
shapes = (
{
closed = 1;
nodes = (
(586,171,l),
(651,195,l),
(333,195,l),
(380,163,l),
(380,389,l),
(333,315,l),
(744,315,l),
(718,257,l),
(591,509,l),
(49,509,l),
(49,0,l),
(857,0,l),
(1347,683,l),
(952,683,l)
);
},
{
closed = 1;
nodes = (
(380,551,l),
(1092,551,l),
(1092,637,l),
(380,637,l)
);
}
);
width = 1289;
}
);
unicode = 240;
},
{
glyphname = dcroat;
kernLeft = o;
kernRight = d;
lastChange = "2021-01-31 18:53:35 +0000";
layers = (
{
layerId = m01;
shapes = (
{
closed = 1;
nodes = (
(1152,0,l),
(1152,683,l),
(821,683,l),
(821,509,l),
(267,509,l),
(341,590,l),
(-83,0,l)
);
},
{
closed = 1;
nodes = (
(868,205,l),
(403,205,l),
(422,172,l),
(573,377,l),
(498,305,l),
(868,305,l),
(821,386,l),
(821,163,l)
);
},
{
closed = 1;
nodes = (
(1201,551,l),
(1201,637,l),
(390,637,l),
(390,551,l)
);
}
);
width = 1201;
}
);
unicode = 273;
},
{
color = 0;
glyphname = e;
kernLeft = n;
kernRight = e;
lastChange = "2021-01-31 19:00:32 +0000";
layers = (
{
anchors = (
{
name = bottom;
pos = (568,0);
},
{
name = ogonek;
pos = (1063,0);
},
{
name = top;
pos = (581,551);
}
);
background = {
shapes = (
{
closed = 1;
nodes = (
(229,525,l),
(-100,525,l),
(-100,326,l),
(58,326,l),
(58,0,l),
(404,0,l),
(972,0,l),
(972,200,l),
(478,200,l),
(1054,525,l),
(373,525,l),
(373,326,l),
(583,326,l),
(373,201,l),
(373,326,l)
);
}
);
};
layerId = m01;
shapes = (
{
closed = 1;
nodes = (
(1031,268,l),
(1089,215,l),
(475,215,l),
(480,198,l),
(1140,551,l),
(49,551,l),
(49,0,l),
(1031,0,l)
);
},
{
closed = 1;
nodes = (
(380,390,l),
(333,348,l),
(671,348,l),
(666,364,l),
(380,211,l)
);
}
);
width = 1040;
}
);
metricRight = "=|a";
unicode = 101;
},
{
color = 0;
glyphname = f;
kernLeft = h;
kernRight = f;
lastChange = "2021-01-31 18:53:35 +0000";
layers = (
{
anchors = (
{
name = bottom;
pos = (471,0);
},
{
name = top;
pos = (471,882);
}
);
background = {
shapes = (
{
closed = 0;
nodes = (
(373,368,l),
(517,168,l)
);
}
);
};
layerId = m01;
shapes = (
{
closed = 1;
nodes = (
(380,0,l),
(380,467,l),
(931,467,l),
(931,683,l),
(49,683,l),
(49,0,l)
);
},
{
closed = 1;
nodes = (
(566,92,l),
(491,137,l),
(979,137,l),
(931,84,l),
(931,352,l),
(380,352,l)
);
}
);
width = 947;
}
);
metricLeft = "=n";
unicode = 102;
},
{
color = 0;
glyphname = g;
kernLeft = o;
kernRight = y;
lastChange = "2021-01-31 18:53:35 +0000";
layers = (
{
anchors = (
{
name = bottom;
pos = (676,-131);
},
{
name = top;
pos = (768,551);
}
);
background = {
shapes = (
{
closed = 1;
nodes = (
(-41,0,l),
(1194,0,l),
(1194,551,l),
(356,551,l)
);
},
{
closed = 1;
nodes = (
(615,377,l),
(540,347,l),
(910,347,l),
(863,386,l),
(863,163,l),
(910,205,l),
(445,205,l),
(464,172,l)
);
}
);
};
layerId = m01;
shapes = (
{
closed = 1;
nodes = (
(-83,0,l),
(606,0,l),
(789,243,l),
(807,194,l),
(414,194,l),
(412,172,l),
(563,377,l),
(508,347,l),
(863,347,l),
(863,63,l),
(385,63,l),
(385,-131,l),
(1194,-131,l),
(1194,551,l),
(314,551,l)
);
}
);
width = 1243;
}
);
metricLeft = "=o";
metricRight = "=u";
unicode = 103;
},
{
color = 0;
glyphname = h;
kernLeft = h;
kernRight = n;
lastChange = "2021-01-31 18:53:35 +0000";
layers = (
{
anchors = (
{
name = bottom;
pos = (595,0);
},
{
name = center;
pos = (595,441);
},
{
name = top;
pos = (240,652);
}
);
background = {
shapes = (
{
closed = 1;
nodes = (
(872,410,l),
(735,525,l),
(63,525,l),
(63,0,l),
(168,0,l),
(168,431,l),
(756,431,l),
(517,122,l),
(630,0,l),
(914,0,l),
(914,95,l),
(630,95,l)
);
}
);
};
layerId = m01;
shapes = (
{
closed = 1;
nodes = (
(380,497,l),
(380,683,l),
(49,683,l),
(49,497,l)
);
},
{
ref = n;
}
);
width = 1191;
}
);
metricLeft = "=n";
metricRight = "=n";
unicode = 104;
},
{
color = 0;
glyphname = hbar;
kernLeft = h;
kernRight = n;
lastChange = "2021-01-31 18:53:35 +0000";
layers = (
{
layerId = m01;
shapes = (
{
closed = 1;
nodes = (
(1244,589,l),
(1263,509,l),
(2,509,l),
(49,599,l),
(49,0,l),
(380,0,l),
(380,378,l),
(333,293,l),
(754,293,l),
(735,369,l),
(461,0,l),
(1133,0,l),
(1133,215,l),
(927,215,l),
(946,183,l)
);
},
{
closed = 1;
nodes = (
(380,497,l),
(380,683,l),
(49,683,l),
(49,497,l)
);
},
{
closed = 1;
nodes = (
(0,551,l),
(812,551,l),
(812,637,l),
(0,637,l)
);
}
);
width = 1164;
}
);
unicode = 295;
},
{
color = 0;
glyphname = idotless;
kernLeft = n;
kernRight = u;
lastChange = "2021-01-31 18:53:35 +0000";
layers = (
{
anchors = (
{
name = bottom;
pos = (226,0);
},
{
name = ogonek;
pos = (402,0);
},
{
name = top;
pos = (226,551);
}
);
layerId = m01;
shapes = (
{
closed = 1;
nodes = (
(49,0,l),
(402,0,l),
(402,551,l),
(49,551,l)
);
}
);
width = 453;
}
);
unicode = 305;
},
{
color = 0;
glyphname = icircumflex;
kernLeft = i;
kernRight = i;
lastChange = "2021-01-31 18:53:35 +0000";
layers = (
{
layerId = m01;
shapes = (
{
closed = 1;
nodes = (
(0,572,l),
(288,626,l),
(453,572,l),
(453,694,l),
(298,749,l),
(0,694,l)
);
},
{
ref = idotless;
}
);
width = 453;
}
);
unicode = 238;
},
{
color = 0;
glyphname = idieresis;
kernLeft = i;
kernRight = i;
lastChange = "2021-01-31 18:53:35 +0000";
layers = (
{
anchors = (
{
name = _top;
pos = (226,551);
},
{
name = top;
pos = (226,772);
}
);
layerId = m01;
shapes = (
{
closed = 1;
nodes = (
(210,683,l),
(0,683,l),
(0,583,l),
(210,583,l)
);
},
{
closed = 1;
nodes = (
(452,583,l),
(452,683,l),
(242,683,l),
(242,583,l)
);
},
{
ref = idotless;
}
);
width = 453;
}
);
unicode = 239;
},
{
color = 0;
glyphname = imacron;
kernLeft = i;
kernRight = i;
lastChange = "2021-01-31 18:53:35 +0000";
layers = (
{
anchors = (
{
name = _top;
pos = (226,551);
},
{
name = top;
pos = (226,717);
}
);
layerId = m01;
shapes = (
{
closed = 1;
nodes = (
(5,583,l),
(446,583,l),
(446,683,l),
(5,683,l)
);
},
{
ref = idotless;
}
);
width = 453;
}
);
unicode = 299;
},
{
color = 0;
glyphname = itilde;
kernLeft = i;
kernRight = i;
lastChange = "2021-01-31 18:53:35 +0000";
layers = (
{
layerId = m01;
shapes = (
{
closed = 1;
nodes = (
(128,672,l),
(402,576,l),
(534,793,l),
(397,793,l),
(327,677,l),
(461,683,l),
(107,798,l),
(-25,583,l),
(112,583,l),
(203,730,l)
);
},
{
ref = idotless;
}
);
width = 453;
}
);
unicode = 297;
},
{
color = 3;
glyphname = j;
kernLeft = i;
kernRight = i;
lastChange = "2021-01-31 20:54:58 +0000";
layers = (
{
background = {
shapes = (
{
closed = 1;
nodes = (
(47,525,l),
(47,53,l),
(-110,53,l),
(47,-158,l),
(362,-158,l),
(362,525,l)
);
}
);
};
layerId = m01;
shapes = (
{
ref = jdotless;
},
{
pos = (-105,0);
ref = dotaccentcomb;
}
);
width = 453;
}
);
metricLeft = "=i";
metricRight = "=i";
unicode = 106;
},
{
color = 0;
glyphname = jdotless;
kernLeft = n;
kernRight = u;
lastChange = "2021-01-31 18:53:35 +0000";
layers = (
{
anchors = (
{
name = bottom;
pos = (226,-131);
},
{
name = ogonek;
pos = (406,12);
},
{
name = top;
pos = (226,551);
}
);
layerId = m01;
shapes = (
{
closed = 1;
nodes = (
(49,-131,l),
(402,-131,l),
(402,551,l),
(49,551,l)
);
}
);
width = 453;
}
);
unicode = 567;
},
{
color = 0;
glyphname = jcircumflex;
kernLeft = i;
kernRight = i;
lastChange = "2021-01-31 18:53:35 +0000";
layers = (
{
layerId = m01;
shapes = (
{
closed = 1;
nodes = (
(0,572,l),
(288,626,l),
(453,572,l),
(453,694,l),
(298,749,l),
(0,694,l)
);
},
{
ref = jdotless;
}
);
width = 453;
}
);
unicode = 309;
},
{
color = 0;
glyphname = k;
kernLeft = h;
kernRight = k;
lastChange = "2021-01-31 18:53:35 +0000";
layers = (
{
anchors = (
{
name = bottom;
pos = (623,32);
},
{
name = top;
pos = (560,882);
}
);
background = {
shapes = (
{
closed = 0;
nodes = (
(198,525,l),
(576,0,l)
);
}
);
};
layerId = m01;
shapes = (
{
closed = 1;
nodes = (
(49,0,l),
(380,0,l),
(380,683,l),
(49,683,l)
);
},
{
closed = 1;
nodes = (
(749,353,l),
(744,339,l),
(1156,336,l),
(1109,284,l),
(1109,551,l),
(586,551,l),
(380,265,l),
(1109,-78,l),
(1109,198,l)
);
}
);
width = 1128;
}
);
metricLeft = "=h";
unicode = 107;
},
{
color = 0;
glyphname = l;
kernLeft = h;
kernRight = l;
lastChange = "2021-01-31 18:53:35 +0000";
layers = (
{
anchors = (
{
name = bottom;
pos = (412,0);
},
{
name = center;
pos = (356,441);
},
{
name = top;
pos = (226,683);
},
{
name = topright;
pos = (693,684);
}
);
layerId = m01;
shapes = (
{
closed = 1;
nodes = (
(203,0,l),
(767,0,l),
(767,214,l),
(402,214,l),
(402,683,l),
(49,683,l),
(49,0,l)
);
}
);
width = 767;
}
);
metricLeft = "=n";
metricRight = "=a";
unicode = 108;
},
{
color = 0;
glyphname = lslash;
kernLeft = h;
lastChange = "2021-01-31 18:53:35 +0000";
layers = (
{
background = {
shapes = (
{
closed = 0;
nodes = (
(381,221,l),
(1000,551,l)
);
},
{
closed = 0;
nodes = (
(381,441,l),
(1000,772,l)
);
}
);
};
layerId = m01;
shapes = (
{
closed = 1;
nodes = (
(203,0,l),
(767,0,l),
(767,215,l),
(392,215,l),
(392,683,l),
(49,683,l),
(49,0,l)
);
},
{
closed = 1;
nodes = (
(86,177,l),
(767,459,l),
(767,561,l),
(86,274,l)
);
}
);
width = 767;
}
);
unicode = 322;
},
{
color = 0;
glyphname = m;
kernLeft = n;
kernRight = n;
lastChange = "2021-01-31 18:53:35 +0000";
layers = (
{
anchors = (
{
name = bottom;
pos = (860,0);
},
{
name = top;
pos = (860,551);
}
);
background = {
shapes = (
{
closed = 1;
nodes = (
(1575,410,l),
(1439,525,l),
(767,525,l),
(767,0,l),
(872,0,l),
(872,431,l),
(1460,431,l),
(1220,122,l),
(1334,0,l),
(1617,0,l),
(1617,95,l),
(1334,95,l)
);
}
);
};
layerId = m01;
shapes = (
{
closed = 1;
nodes = (
(803,551,l),
(49,551,l),
(49,0,l),
(380,0,l),
(380,336,l),
(803,336,l)
);
},
{
closed = 1;
nodes = (
(1745,551,l),
(876,551,l),
(931,342,l),
(930,551,l),
(601,551,l),
(601,0,l),
(931,0,l),
(931,336,l),
(1283,336,l),
(1263,381,l),
(990,0,l),
(1694,0,l),
(1694,215,l),
(1449,215,l),
(1468,172,l)
);
}
);
width = 1720;
}
);
metricLeft = "=n";
metricRight = "=n";
unicode = 109;
},
{
color = 0;
glyphname = n;
kernLeft = n;
kernRight = n;
lastChange = "2021-01-31 18:53:35 +0000";
layers = (
{
anchors = (
{
name = bottom;
pos = (553,0);
},
{
name = top;
pos = (651,551);
}
);
background = {
shapes = (
{
closed = 1;
nodes = (
(1157,525,l),
(324,525,l),
(378,315,l),
(377,525,l),
(63,525,l),
(63,0,l),
(378,0,l),
(378,315,l),
(672,315,l),
(438,0,l),
(1098,0,l),
(1098,200,l),
(920,200,l)
);
}
);
};
layerId = m01;
shapes = (
{
closed = 1;
nodes = (
(1216,551,l),
(49,551,l),
(49,0,l),
(380,0,l),
(380,378,l),
(333,336,l),
(754,336,l),
(735,369,l),
(461,0,l),
(1164,0,l),
(1164,215,l),
(927,215,l),
(946,183,l)
);
}
);
width = 1191;
},
{
associatedMasterId = m01;
layerId = "5B049EFC-FAD1-40C4-AADF-96B7F8DC2997";
name = "Jan 24, 21, 11:04";
shapes = (
{
alignment = -1;
pos = (420,420);
ref = pixel;
},
{
alignment = -1;
pos = (525,315);
ref = pixel;
},
{
alignment = -1;
pos = (525,210);
ref = pixel;
},
{
alignment = -1;
pos = (525,105);
ref = pixel;
},
{
alignment = -1;
pos = (525,0);
ref = pixel;
},
{
alignment = -1;
pos = (315,420);
ref = pixel;
},
{
alignment = -1;
pos = (210,315);
ref = pixel;
},
{
alignment = -1;
pos = (105,420);
ref = pixel;
},
{
alignment = -1;
pos = (105,315);
ref = pixel;
},
{
alignment = -1;
pos = (105,210);
ref = pixel;
},
{
alignment = -1;
pos = (105,105);
ref = pixel;
},
{
alignment = -1;
pos = (105,0);
ref = pixel;
}
);
width = 735;
}
);
unicode = 110;
},
{
glyphname = eng;
kernLeft = n;
kernRight = p;
lastChange = "2021-01-31 22:40:41 +0000";
layers = (
{
anchors = (
{
name = bottom;
pos = (553,0);
},
{
name = top;
pos = (651,551);
}
);
layerId = m01;
shapes = (
{
closed = 1;
nodes = (
(1216,551,l),
(49,551,l),
(49,0,l),
(380,0,l),
(380,378,l),
(333,336,l),
(754,336,l),
(735,369,l),
(364,-131,l),
(715,-131,l)
);
}
);
width = 1133;
}
);
metricLeft = "=n";
metricRight = "=p";
unicode = 331;
},
{
color = 0;
glyphname = o;
kernLeft = o;
kernRight = u;
lastChange = "2021-01-31 18:53:35 +0000";
layers = (
{
anchors = (
{
name = bottom;
pos = (546,0);
},
{
name = center;
pos = (601,276);
},
{
name = ogonek;
pos = (1152,0);
},
{
name = top;
pos = (735,551);
},
{
name = topright;
pos = (1180,551);
}
);
background = {
shapes = (
{
closed = 0;
nodes = (
(416,494,l),
(117,95,l)
);
}
);
};
guides = (
{
angle = 234.2461;
pos = (105,250);
},
{
angle = 54.2333;
pos = (452,249);
},
{
angle = 90;
pos = (745,249);
},
{
angle = 270;
pos = (1045,250);
}
);
layerId = m01;
shapes = (
{
closed = 1;
nodes = (
(-83,0,l),
(1152,0,l),
(1152,551,l),
(314,551,l)
);
},
{
closed = 1;
nodes = (
(573,377,l),
(498,347,l),
(868,347,l),
(821,386,l),
(821,163,l),
(868,205,l),
(403,205,l),
(422,172,l)
);
}
);
width = 1201;
}
);
metricRight = "=|n";
unicode = 111;
},
{
color = 0;
glyphname = oslash;
kernLeft = o;
kernRight = u;
lastChange = "2021-01-31 22:42:32 +0000";
layers = (
{
layerId = m01;
shapes = (
{
closed = 1;
nodes = (
(736,475,l),
(721,440,l),
(506,141,l),
(468,102,l),
(301,-131,l),
(440,-131,l),
(600,91,l),
(618,131,l),
(832,428,l),
(874,473,l),
(1147,853,l),
(1071,683,l),
(776,683,l),
(1007,853,l)
);
},
{
closed = 1;
nodes = (
(-83,0,l),
(1152,0,l),
(1152,551,l),
(314,551,l)
);
},
{
closed = 1;
nodes = (
(563,385,l),
(488,352,l),
(887,352,l),
(840,394,l),
(840,155,l),
(887,197,l),
(385,197,l),
(405,164,l)
);
}
);
width = 1201;
}
);
metricLeft = "=o";
metricRight = "=o";
unicode = 248;
},
{
color = 0;
glyphname = p;
kernLeft = p;
kernRight = p;
lastChange = "2021-01-31 18:53:35 +0000";
layers = (
{
anchors = (
{
name = bottom;
pos = (601,0);
},
{
name = top;
pos = (601,551);
}
);
background = {
shapes = (
{
closed = 1;
nodes = (
(1223,525,l),
(53,525,l),
(53,0,l),
(845,0,l)
);
},
{
closed = 1;
nodes = (
(615,202,l),
(368,202,l),
(368,326,l),
(700,326,l)
);
}
);
};
layerId = m01;
shapes = (
{
closed = 1;
nodes = (
(1284,551,l),
(49,551,l),
(49,-131,l),
(380,-131,l),
(380,0,l),
(887,0,l)
);
},
{
closed = 1;
nodes = (
(380,389,l),
(333,347,l),
(799,347,l),
(779,380,l),
(626,171,l),
(705,205,l),
(333,205,l),
(380,163,l)
);
}
);
width = 1201;
},
{
associatedMasterId = m01;
layerId = "D585A16D-AD3C-4999-B8C1-623B74826A6B";
name = "Jan 24, 21, 12:31";
shapes = (
{
alignment = -1;
pos = (105,420);
ref = pixel;
},
{
alignment = -1;
pos = (105,315);
ref = pixel;
},
{
alignment = -1;
pos = (105,210);
ref = pixel;
},
{
alignment = -1;
pos = (105,105);
ref = pixel;
},
{
alignment = -1;
pos = (105,0);
ref = pixel;
},
{
alignment = -1;
pos = (105,-105);
ref = pixel;
},
{
alignment = -1;
pos = (105,-210);
ref = pixel;
},
{
alignment = -1;
pos = (210,315);
ref = pixel;
},
{
alignment = -1;
pos = (315,420);
ref = pixel;
},
{
alignment = -1;
pos = (420,420);
ref = pixel;
},
{
alignment = -1;
pos = (525,315);
ref = pixel;
},
{
alignment = -1;
pos = (525,210);
ref = pixel;
},
{
alignment = -1;
pos = (525,105);
ref = pixel;
},
{
alignment = -1;
pos = (420,0);
ref = pixel;
},
{
alignment = -1;
pos = (315,0);
ref = pixel;
},
{
alignment = -1;
pos = (210,0);
ref = pixel;
}
);
width = 735;
}
);
metricLeft = "=n";
metricRight = "=|o";
unicode = 112;
},
{
color = 0;
glyphname = thorn;
kernLeft = h;
kernRight = p;
lastChange = "2021-01-31 18:53:35 +0000";
layers = (
{
layerId = m01;
shapes = (
{
closed = 1;
nodes = (
(380,497,l),
(380,683,l),
(49,683,l),
(49,497,l)
);
},
{
ref = p;
}
);
width = 1202;
}
);
unicode = 254;
},
{
color = 0;
glyphname = q;
kernLeft = o;
kernRight = y;
lastChange = "2021-01-31 18:53:35 +0000";
layers = (
{
anchors = (
{
name = bottom;
pos = (601,0);
},
{
name = top;
pos = (735,551);
}
);
background = {
shapes = (
{
closed = 1;
nodes = (
(777,200,l),
(440,200,l),
(529,323,l),
(777,323,l)
);
},
{
closed = 1;
nodes = (
(921,0,l),
(1250,0,l),
(1250,200,l),
(1092,200,l),
(1092,683,l),
(777,683,l),
(777,525,l),
(777,428,l),
(831,525,l),
(310,525,l),
(-68,0,l),
(777,0,l),
(777,200,l)
);
}
);
};
layerId = m01;
shapes = (
{
closed = 1;
nodes = (
(-83,0,l),
(821,0,l),
(821,-131,l),
(1152,-131,l),
(1152,551,l),
(314,551,l)
);
},
{
closed = 1;
nodes = (
(573,377,l),
(498,347,l),
(868,347,l),
(821,386,l),
(821,163,l),
(868,205,l),
(403,205,l),
(422,172,l)
);
}
);
width = 1201;
}
);
metricLeft = "=o";
metricRight = "=u";
unicode = 113;
},
{
color = 0;
glyphname = r;
kernLeft = n;
kernRight = r;
lastChange = "2021-01-31 18:53:35 +0000";
layers = (
{
anchors = (
{
name = bottom;
pos = (226,0);
},
{
name = top;
pos = (455,551);
}
);
layerId = m01;
shapes = (
{
closed = 1;
nodes = (
(854,551,l),
(49,551,l),
(49,0,l),
(402,0,l),
(402,336,l),
(854,336,l)
);
}
);
width = 854;
}
);
metricLeft = "=n";
unicode = 114;
},
{
color = 0;
glyphname = s;
kernLeft = s;
kernRight = s;
lastChange = "2021-01-31 19:53:22 +0000";
layers = (
{
anchors = (
{
name = bottom;
pos = (525,0);
},
{
name = top;
pos = (737,551);
}
);
background = {
shapes = (
{
closed = 1;
nodes = (
(330,525,l),
(539,95,l),
(124,95,l),
(124,525,l),
(19,525,l),
(19,0,l),
(502,0,l),
(638,126,l),
(444,525,l)
);
},
{
closed = 1;
nodes = (
(109,525,l),
(109,428,l),
(409,428,l),
(409,525,l)
);
},
{
closed = 1;
nodes = (
(1170,326,l),
(1170,525,l),
(278,525,l),
(512,200,l),
(344,200,l),
(344,357,l),
(29,357,l),
(29,0,l),
(343,0,l),
(344,200,l),
(291,0,l),
(1040,0,l),
(802,326,l)
);
}
);
};
layerId = m01;
shapes = (
{
closed = 1;
nodes = (
(1162,336,l),
(1162,551,l),
(259,551,l),
(533,169,l),
(554,200,l),
(301,200,l),
(351,160,l),
(351,337,l),
(20,337,l),
(20,0,l),
(1048,0,l),
(778,369,l),
(759,336,l)
);
}
);
width = 1162;
},
{
associatedMasterId = m01;
layerId = "6E48ED74-0DE7-495E-A068-AE666F7785E0";
name = "Jan 24, 21, 17:00";
shapes = (
{
closed = 1;
nodes = (
(490,95,l),
(168,95,l),
(168,315,l),
(63,315,l),
(63,0,l),
(463,0,l),
(600,126,l),
(371,431,l),
(705,431,l),
(705,525,l),
(399,525,l),
(263,399,l)
);
}
);
width = 726;
}
);
metricLeft = "=20";
metricRight = "=0";
unicode = 115;
},
{
color = 0;
glyphname = saltillo;
kernLeft = quotesingle;
kernRight = quotesingle;
lastChange = "2021-01-31 18:53:35 +0000";
layers = (
{
layerId = m01;
shapes = (
{
closed = 1;
nodes = (
(66,683,l),
(66,276,l),
(441,276,l),
(441,683,l)
);
}
);
width = 507;
}
);
metricRight = "=|";
unicode = 42892;
},
{
color = 0;
glyphname = germandbls;
kernLeft = h;
kernRight = p;
lastChange = "2021-01-31 18:53:35 +0000";
layers = (
{
background = {
shapes = (
{
closed = 1;
nodes = (
(420,525,l),
(373,467,l),
(677,467,l),
(638,517,l),
(520,349,l),
(1044,349,l),
(1024,361,l),
(885,166,l),
(960,215,l),
(373,215,l),
(420,158,l)
);
},
{
closed = 1;
nodes = (
(1173,0,l),
(1577,564,l),
(1597,551,l),
(867,551,l),
(867,683,l),
(53,683,l),
(53,0,l)
);
}
);
};
layerId = m01;
shapes = (
{
closed = 1;
nodes = (
(910,683,l),
(49,683,l),
(49,0,l),
(358,0,l),
(358,509,l),
(311,467,l),
(667,467,l),
(671,529,l),
(471,296,l),
(455,337,l),
(898,337,l),
(878,371,l),
(462,-209,l),
(442,-131,l),
(928,-131,l),
(854,-209,l),
(1397,551,l),
(895,551,l),
(910,403,l)
);
}
);
width = 1315;
},
{
anchors = (
{
name = bottom;
pos = (922,-158);
},
{
name = top;
pos = (670,368);
}
);
associatedMasterId = m01;
background = {
shapes = (
{
closed = 1;
nodes = (
(362,0,l),
(362,473,l),
(887,473,l),
(887,683,l),
(47,683,l),
(47,0,l)
);
},
{
closed = 1;
nodes = (
(513,158,l),
(887,158,l),
(887,368,l),
(362,368,l)
);
}
);
};
layerId = "A65DB548-0718-4F3A-A537-8D2A93EA6B1E";
name = "Jan 27, 21, 17:13";
shapes = (
{
closed = 1;
nodes = (
(362,0,l),
(362,473,l),
(714,473,l),
(571,303,l),
(761,38,l),
(781,53,l),
(462,53,l),
(562,29,l),
(562,209,l),
(236,209,l),
(236,-158,l),
(1318,-158,l),
(969,318,l),
(911,239,l),
(1239,683,l),
(47,683,l),
(47,0,l)
);
}
);
width = 1213;
}
);
unicode = 223;
},
{
color = 0;
glyphname = t;
kernLeft = h;
kernRight = c;
lastChange = "2021-01-31 18:53:35 +0000";
layers = (
{
anchors = (
{
name = bottom;
pos = (478,0);
},
{
name = center;
pos = (478,276);
},
{
name = top;
pos = (478,551);
},
{
name = topright;
pos = (886,860);
}
);
layerId = m01;
shapes = (
{
closed = 1;
nodes = (
(49,0,l),
(931,0,l),
(931,215,l),
(380,215,l),
(380,551,l),
(380,683,l),
(49,683,l)
);
},
{
closed = 1;
nodes = (
(566,292,l),
(491,336,l),
(979,336,l),
(931,284,l),
(931,551,l),
(380,551,l)
);
}
);
width = 953;
}
);
metricLeft = "=h";
unicode = 116;
},
{
glyphname = tbar;
kernLeft = h;
kernRight = c;
lastChange = "2021-02-01 19:46:13 +0000";
layers = (
{
anchors = (
{
name = bottom;
pos = (478,0);
},
{
name = center;
pos = (478,276);
},
{
name = top;
pos = (478,551);
},
{
name = topright;
pos = (886,860);
}
);
layerId = m01;
shapes = (
{
closed = 1;
nodes = (
(49,0,l),
(931,0,l),
(931,195,l),
(380,195,l),
(380,551,l),
(380,683,l),
(49,683,l)
);
},
{
closed = 1;
nodes = (
(566,292,l),
(491,356,l),
(979,356,l),
(931,284,l),
(931,551,l),
(380,551,l)
);
},
{
closed = 1;
nodes = (
(0,237,l),
(731,237,l),
(731,315,l),
(0,315,l)
);
}
);
width = 953;
}
);
unicode = 359;
},
{
color = 0;
glyphname = v;
kernLeft = n;
kernRight = p;
lastChange = "2021-01-31 19:51:16 +0000";
layers = (
{
anchors = (
{
name = bottom;
pos = (595,0);
},
{
name = top;
pos = (595,551);
}
);
background = {
shapes = (
{
closed = 1;
nodes = (
(1223,525,l),
(63,525,l),
(63,-158,l),
(378,-158,l),
(378,0,l),
(378,202,l),
(324,0,l),
(845,0,l)
);
},
{
closed = 1;
nodes = (
(378,326,l),
(715,326,l),
(626,202,l),
(378,202,l)
);
}
);
};
layerId = m01;
shapes = (
{
closed = 1;
nodes = (
(350,303,l),
(333,347,l),
(776,347,l),
(756,381,l),
(608,173,l),
(683,205,l),
(333,205,l),
(380,165,l),
(380,551,l),
(49,551,l),
(49,0,l),
(877,0,l),
(1274,551,l),
(527,551,l)
);
}
);
width = 1191;
}
);
metricLeft = "=n";
metricRight = "=p";
unicode = 118;
},
{
color = 0;
glyphname = x;
kernLeft = x;
kernRight = x;
lastChange = "2021-02-01 00:07:40 +0000";
layers = (
{
anchors = (
{
name = bottom;
pos = (549,0);
},
{
name = top;
pos = (549,551);
}
);
layerId = m01;
shapes = (
{
closed = 1;
nodes = (
(1078,629,l),
(350,287,l),
(554,0,l),
(1078,0,l),
(1078,215,l),
(691,212,l),
(694,200,l),
(1078,353,l)
);
},
{
closed = 1;
nodes = (
(19,-78,l),
(748,265,l),
(543,551,l),
(19,551,l),
(19,336,l),
(405,339,l),
(402,352,l),
(19,198,l)
);
}
);
width = 1097;
}
);
metricLeft = "=|";
metricRight = "=k";
unicode = 120;
},
{
color = 0;
glyphname = y;
kernLeft = u;
kernRight = y;
lastChange = "2021-01-31 18:53:35 +0000";
layers = (
{
anchors = (
{
name = bottom;
pos = (595,0);
},
{
name = top;
pos = (706,551);
}
);
layerId = m01;
shapes = (
{
closed = 1;
nodes = (
(811,110,l),
(811,-131,l),
(1141,-131,l),
(1141,110,l)
);
},
{
ref = u;
}
);
width = 1191;
}
);
metricLeft = "=u";
metricRight = "=u";
unicode = 121;
},
{
color = 0;
glyphname = c.ss03;
kernLeft = n;
kernRight = c;
lastChange = "2021-01-31 18:53:35 +0000";
layers = (
{
anchors = (
{
name = bottom;
pos = (596,0);
},
{
name = center;
pos = (483,276);
},
{
name = ogonek;
pos = (1034,0);
},
{
name = top;
pos = (596,551);
},
{
name = topright;
pos = (1063,551);
}
);
background = {
shapes = (
{
closed = 0;
nodes = (
(298,494,l),
(-1,95,l)
);
}
);
};
guides = (
{
angle = 234.2461;
pos = (-7,250);
},
{
angle = 54.2333;
pos = (340,249);
},
{
angle = 90;
pos = (633,249);
},
{
angle = 270;
pos = (933,250);
}
);
layerId = m01;
shapes = (
{
closed = 1;
nodes = (
(49,0,l),
(982,0,l),
(982,205,l),
(380,205,l),
(380,347,l),
(982,347,l),
(982,551,l),
(49,551,l)
);
}
);
width = 1001;
}
);
metricLeft = "=n";
metricRight = "=c";
},
{
color = 0;
glyphname = o.ss03;
kernLeft = n;
kernRight = u;
lastChange = "2021-01-31 19:00:39 +0000";
layers = (
{
anchors = (
{
name = bottom;
pos = (563,0);
},
{
name = center;
pos = (563,276);
},
{
name = ogonek;
pos = (1013,11);
},
{
name = top;
pos = (563,551);
},
{
name = topright;
pos = (1105,551);
}
);
background = {
shapes = (
{
closed = 0;
nodes = (
(319,494,l),
(20,95,l)
);
}
);
};
guides = (
{
angle = 234.2461;
pos = (13,250);
},
{
angle = 54.2333;
pos = (360,249);
},
{
angle = 90;
pos = (653,249);
},
{
angle = 270;
pos = (953,250);
}
);
layerId = m01;
shapes = (
{
closed = 1;
nodes = (
(49,0,l),
(1076,0,l),
(1076,551,l),
(49,551,l)
);
},
{
closed = 1;
nodes = (
(380,347,l),
(746,347,l),
(746,205,l),
(380,205,l)
);
}
);
width = 1125;
}
);
metricLeft = "=n";
metricRight = "=|n";
},
{
color = 0;
glyphname = oslash.ss03;
kernLeft = n;
kernRight = u;
lastChange = "2021-01-31 22:43:00 +0000";
layers = (
{
layerId = m01;
shapes = (
{
closed = 1;
nodes = (
(49,0,l),
(1076,0,l),
(1076,551,l),
(49,551,l)
);
},
{
closed = 1;
nodes = (
(370,357,l),
(756,357,l),
(756,194,l),
(370,194,l)
);
},
{
closed = 1;
nodes = (
(635,475,l),
(620,440,l),
(405,141,l),
(367,102,l),
(200,-131,l),
(340,-131,l),
(499,91,l),
(517,131,l),
(731,428,l),
(773,473,l),
(1046,853,l),
(1001,683,l),
(706,683,l),
(906,853,l)
);
}
);
width = 1125;
}
);
metricLeft = "=o.ss03";
metricRight = "=o";
},
{
color = 0;
glyphname = w.ss04;
kernLeft = n;
kernRight = p;
lastChange = "2021-01-31 18:53:35 +0000";
layers = (
{
anchors = (
{
name = bottom;
pos = (759,0);
},
{
name = top;
pos = (759,551);
}
);
background = {
shapes = (
{
closed = 1;
nodes = (
(765,525,l),
(47,525,l),
(47,0,l),
(362,0,l),
(362,326,l),
(765,326,l)
);
},
{
closed = 1;
nodes = (
(1662,525,l),
(834,525,l),
(887,326,l),
(886,525,l),
(572,525,l),
(572,0,l),
(887,0,l),
(887,326,l),
(1177,326,l),
(943,0,l),
(1603,0,l),
(1603,200,l),
(1425,200,l)
);
}
);
};
layerId = m01;
shapes = (
{
closed = 1;
nodes = (
(900,302,l),
(884,347,l),
(1273,347,l),
(1253,380,l),
(1104,171,l),
(1178,205,l),
(931,205,l),
(931,551,l),
(601,551,l),
(601,0,l),
(1372,0,l),
(1769,551,l),
(1077,551,l)
);
},
{
closed = 1;
nodes = (
(690,205,l),
(380,205,l),
(380,551,l),
(49,551,l),
(49,0,l),
(931,0,l)
);
}
);
width = 1686;
}
);
metricLeft = "=n";
metricRight = "=p";
},
{
color = 0;
glyphname = y.ss04;
kernLeft = n;
kernRight = p;
lastChange = "2021-01-31 18:53:35 +0000";
layers = (
{
anchors = (
{
name = bottom;
pos = (210,0);
},
{
name = top;
pos = (679,551);
}
);
layerId = m01;
shapes = (
{
closed = 1;
nodes = (
(1274,551,l),
(822,470,l),
(334,-204,l),
(326,-131,l),
(815,-131,l),
(729,-204,l)
);
},
{
ref = v;
}
);
width = 1191;
}
);
metricLeft = "=n";
metricRight = "=p";
},
{
color = 0;
glyphname = s.ss05;
kernLeft = s.ss09;
kernRight = s;
lastChange = "2021-02-01 00:31:28 +0000";
layers = (
{
anchors = (
{
name = bottom;
pos = (454,0);
},
{
name = top;
pos = (613,551);
}
);
background = {
shapes = (
{
closed = 1;
nodes = (
(206,525,l),
(415,95,l),
(0,95,l),
(0,525,l),
(-105,525,l),
(-105,0,l),
(378,0,l),
(515,126,l),
(320,525,l)
);
},
{
closed = 1;
nodes = (
(-15,525,l),
(-15,428,l),
(285,428,l),
(285,525,l)
);
},
{
closed = 1;
nodes = (
(1046,326,l),
(1046,525,l),
(154,525,l),
(389,200,l),
(221,200,l),
(221,357,l),
(-95,357,l),
(-95,0,l),
(219,0,l),
(221,200,l),
(167,0,l),
(916,0,l),
(678,326,l)
);
}
);
};
layerId = m01;
shapes = (
{
closed = 1;
nodes = (
(135,551,l),
(1059,551,l),
(1059,336,l),
(635,336,l),
(654,369,l),
(924,0,l),
(0,0,l),
(0,215,l),
(424,215,l),
(410,169,l)
);
}
);
width = 1059;
},
{
associatedMasterId = m01;
layerId = "6E48ED74-0DE7-495E-A068-AE666F7785E0";
name = "Jan 24, 21, 17:00";
shapes = (
{
closed = 1;
nodes = (
(490,95,l),
(168,95,l),
(168,315,l),
(63,315,l),
(63,0,l),
(463,0,l),
(600,126,l),
(371,431,l),
(705,431,l),
(705,525,l),
(399,525,l),
(263,399,l)
);
}
);
width = 726;
}
);
},
{
color = 0;
glyphname = z.ss05;
kernLeft = z;
kernRight = a;
lastChange = "2021-01-31 22:46:23 +0000";
layers = (
{
anchors = (
{
name = bottom;
pos = (380,0);
},
{
name = top;
pos = (487,551);
}
);
background = {
shapes = (
{
closed = 1;
nodes = (
(185,525,l),
(394,95,l),
(-21,95,l),
(-21,525,l),
(-126,525,l),
(-126,0,l),
(357,0,l),
(494,126,l),
(299,525,l)
);
},
{
closed = 1;
nodes = (
(-36,525,l),
(-36,428,l),
(264,428,l),
(264,525,l)
);
},
{
closed = 1;
nodes = (
(1025,326,l),
(1025,525,l),
(133,525,l),
(368,200,l),
(200,200,l),
(200,357,l),
(-116,357,l),
(-116,0,l),
(198,0,l),
(200,200,l),
(146,0,l),
(895,0,l),
(657,326,l)
);
}
);
};
layerId = m01;
shapes = (
{
pos = (1059,0);
ref = s.ss05;
scale = (-1,1);
}
);
width = 1059;
},
{
associatedMasterId = m01;
layerId = "6E48ED74-0DE7-495E-A068-AE666F7785E0";
name = "Jan 24, 21, 17:00";
shapes = (
{
closed = 1;
nodes = (
(490,95,l),
(168,95,l),
(168,315,l),
(63,315,l),
(63,0,l),
(463,0,l),
(600,126,l),
(371,431,l),
(705,431,l),
(705,525,l),
(399,525,l),
(263,399,l)
);
}
);
width = 726;
}
);
metricRight = "=0";
},
{
color = 3;
glyphname = a.ss06;
kernLeft = a;
lastChange = "2021-01-31 22:53:32 +0000";
layers = (
{
anchors = (
{
name = bottom;
pos = (537,0);
},
{
name = ogonek;
pos = (1054,0);
},
{
name = top;
pos = (581,551);
}
);
background = {
shapes = (
{
closed = 1;
nodes = (
(229,525,l),
(-100,525,l),
(-100,326,l),
(58,326,l),
(58,0,l),
(404,0,l),
(972,0,l),
(972,200,l),
(478,200,l),
(1054,525,l),
(373,525,l),
(373,326,l),
(583,326,l),
(373,201,l),
(373,326,l)
);
}
);
};
layerId = m01;
shapes = (
{
angle = 180;
pos = (1040,551);
ref = e;
}
);
width = 1040;
}
);
metricRight = "=|a";
},
{
color = 0;
glyphname = l.ss06;
kernLeft = h;
kernRight = d;
lastChange = "2021-02-01 19:49:19 +0000";
layers = (
{
anchors = (
{
name = bottom;
pos = (226,0);
},
{
name = center;
pos = (226,421);
},
{
name = top;
pos = (226,683);
},
{
name = topright;
pos = (641,683);
}
);
layerId = m01;
shapes = (
{
closed = 1;
nodes = (
(402,0,l),
(402,683,l),
(49,683,l),
(49,0,l)
);
}
);
width = 451;
}
);
metricLeft = "=h";
metricRight = "=d";
},
{
color = 0;
glyphname = lslash.ss06;
kernLeft = lslash.ss06;
kernRight = lslash.ss06;
lastChange = "2021-02-01 19:53:00 +0000";
layers = (
{
background = {
shapes = (
{
closed = 0;
nodes = (
(421,221,l),
(1040,551,l)
);
},
{
closed = 0;
nodes = (
(421,441,l),
(1040,772,l)
);
}
);
};
layerId = m01;
shapes = (
{
closed = 1;
nodes = (
(243,0,l),
(432,0,l),
(432,683,l),
(89,683,l),
(89,0,l)
);
},
{
closed = 1;
nodes = (
(0,227,l),
(521,447,l),
(521,549,l),
(0,324,l)
);
}
);
width = 521;
}
);
},
{
color = 0;
export = 0;
glyphname = d.ss07;
kernLeft = o;
lastChange = "2021-01-31 18:53:35 +0000";
layers = (
{
background = {
shapes = (
{
closed = 1;
nodes = (
(-68,0,l),
(1103,0,l),
(1103,525,l),
(310,525,l)
);
},
{
closed = 1;
nodes = (
(529,323,l),
(788,323,l),
(788,200,l),
(440,200,l)
);
},
{
closed = 0;
nodes = (
(532,526,l),
(910,1,l)
);
}
);
};
layerId = m01;
shapes = (
{
closed = 1;
nodes = (
(1136,497,l),
(1136,683,l),
(805,683,l),
(805,497,l)
);
},
{
ref = a.ss07;
}
);
width = 1191;
}
);
metricLeft = "=o";
metricRight = "=a.ss07";
},
{
color = 0;
export = 0;
glyphname = e.ss07;
kernLeft = n;
kernRight = e;
lastChange = "2021-01-31 18:53:35 +0000";
layers = (
{
anchors = (
{
name = bottom;
pos = (510,0);
},
{
name = ogonek;
pos = (969,0);
},
{
name = top;
pos = (510,551);
}
);
background = {
shapes = (
{
closed = 1;
nodes = (
(1042,551,l),
(-125,551,l),
(-125,0,l),
(206,0,l),
(206,378,l),
(159,336,l),
(580,336,l),
(561,369,l),
(287,0,l),
(990,0,l),
(990,215,l),
(753,215,l),
(777,183,l)
);
},
{
closed = 0;
nodes = (
(1042,551,l),
(645,0,l)
);
},
{
closed = 0;
nodes = (
(937,551,l),
(540,0,l)
);
}
);
};
layerId = m01;
shapes = (
{
closed = 1;
nodes = (
(1043,215,l),
(796,215,l),
(821,172,l),
(1094,551,l),
(49,551,l),
(49,133,l),
(49,0,l),
(1043,0,l)
);
},
{
closed = 1;
nodes = (
(333,215,l),
(380,173,l),
(380,389,l),
(333,347,l),
(885,347,l),
(899,379,l),
(754,183,l),
(792,215,l)
);
}
);
width = 1069;
}
);
metricLeft = "=e";
metricRight = "=n";
},
{
color = 0;
export = 0;
glyphname = n.ss07;
kernLeft = n;
kernRight = p;
lastChange = "2021-01-31 18:53:35 +0000";
layers = (
{
anchors = (
{
name = bottom;
pos = (553,0);
},
{
name = top;
pos = (651,551);
}
);
background = {
shapes = (
{
closed = 1;
nodes = (
(1157,525,l),
(324,525,l),
(378,315,l),
(377,525,l),
(63,525,l),
(63,0,l),
(378,0,l),
(378,315,l),
(672,315,l),
(438,0,l),
(1098,0,l),
(1098,200,l),
(920,200,l)
);
}
);
};
layerId = m01;
shapes = (
{
closed = 1;
nodes = (
(1289,551,l),
(49,551,l),
(49,0,l),
(380,0,l),
(380,378,l),
(333,336,l),
(796,336,l),
(777,369,l),
(503,0,l),
(887,0,l)
);
}
);
width = 1206;
},
{
associatedMasterId = m01;
layerId = "5B049EFC-FAD1-40C4-AADF-96B7F8DC2997";
name = "Jan 24, 21, 11:04";
shapes = (
{
alignment = -1;
pos = (420,420);
ref = pixel;
},
{
alignment = -1;
pos = (525,315);
ref = pixel;
},
{
alignment = -1;
pos = (525,210);
ref = pixel;
},
{
alignment = -1;
pos = (525,105);
ref = pixel;
},
{
alignment = -1;
pos = (525,0);
ref = pixel;
},
{
alignment = -1;
pos = (315,420);
ref = pixel;
},
{
alignment = -1;
pos = (210,315);
ref = pixel;
},
{
alignment = -1;
pos = (105,420);
ref = pixel;
},
{
alignment = -1;
pos = (105,315);
ref = pixel;
},
{
alignment = -1;
pos = (105,210);
ref = pixel;
},
{
alignment = -1;
pos = (105,105);
ref = pixel;
},
{
alignment = -1;
pos = (105,0);
ref = pixel;
}
);
width = 735;
}
);
metricLeft = "=n";
metricRight = "=p";
},
{
color = 0;
export = 0;
glyphname = t.001;
kernLeft = h;
kernRight = c;
lastChange = "2021-02-02 13:52:10 +0000";
layers = (
{
anchors = (
{
name = bottom;
pos = (478,0);
},
{
name = center;
pos = (478,276);
},
{
name = top;
pos = (478,551);
},
{
name = topright;
pos = (886,860);
}
);
layerId = m01;
shapes = (
{
closed = 1;
nodes = (
(53,612,o),
(36,552,o),
(0,551,c),
(0,336,l),
(49,336,l),
(49,0,l),
(931,0,l),
(931,215,l),
(380,215,l),
(380,335,l),
(491,336,l),
(931,336,l),
(931,551,l),
(280,551,l),
(280,563,l),
(363,563,o),
(420,633,o),
(420,733,c),
(49,733,l)
);
}
);
width = 953;
}
);
metricLeft = "=h";
},
{
color = 0;
glyphname = one;
lastChange = "2021-01-31 18:53:35 +0000";
layers = (
{
layerId = m01;
shapes = (
{
closed = 1;
nodes = (
(652,0,l),
(652,683,l),
(0,683,l),
(0,438,l),
(284,438,l),
(284,0,l)
);
}
);
width = 705;
}
);
unicode = 49;
},
{
color = 0;
glyphname = two;
kernLeft = seven;
lastChange = "2021-01-31 21:01:03 +0000";
layers = (
{
layerId = m01;
shapes = (
{
closed = 1;
nodes = (
(21,243,l),
(389,243,l),
(389,448,l),
(634,448,l),
(312,0,l),
(1349,0,l),
(1349,245,l),
(919,245,l),
(1239,683,l),
(21,683,l)
);
}
);
width = 1349;
}
);
unicode = 50;
},
{
color = 0;
glyphname = three;
kernLeft = H;
kernRight = B;
lastChange = "2021-01-31 18:53:35 +0000";
layers = (
{
background = {
shapes = (
{
alignment = -1;
angle = 180;
pos = (1284,525);
ref = G;
}
);
};
layerId = m01;
shapes = (
{
closed = 1;
nodes = (
(53,0,l),
(1045,0,l),
(1446,551,l),
(860,551,l),
(860,683,l),
(53,683,l),
(53,402,l),
(5,438,l),
(623,438,l),
(603,488,l),
(497,338,l),
(889,338,l),
(796,206,l),
(870,224,l),
(368,224,l),
(415,197,l),
(415,338,l),
(53,338,l)
);
}
);
width = 1367;
},
{
associatedMasterId = m01;
background = {
shapes = (
{
alignment = -1;
angle = 180;
pos = (1352,525);
ref = G;
}
);
};
layerId = "9E36E414-5761-45B1-9B7B-777176A4EB9A";
name = "Jan 30, 21, 13:33";
shapes = (
{
closed = 1;
nodes = (
(32,104,l),
(32,-131,l),
(1001,-131,l),
(1498,551,l),
(795,551,l),
(795,683,l),
(32,683,l),
(32,448,l),
(641,448,l),
(643,500,l),
(481,279,l),
(462,328,l),
(967,328,l),
(920,395,l),
(981,395,l),
(746,65,l),
(814,104,l)
);
},
{
closed = 1;
nodes = (
(399,317,l),
(32,317,l),
(32,-131,l),
(399,103,l)
);
}
);
width = 1420;
}
);
metricRight = "=B";
unicode = 51;
},
{
color = 0;
glyphname = four;
kernLeft = four;
lastChange = "2021-01-31 20:00:46 +0000";
layers = (
{
background = {
shapes = (
{
closed = 1;
nodes = (
(-44,96,l),
(1433,96,l),
(1433,778,l),
(447,778,l)
);
},
{
closed = 1;
nodes = (
(689,543,l),
(1066,543,l),
(1066,330,l),
(534,330,l)
);
}
);
};
guides = (
{
pos = (646,94);
}
);
layerId = m01;
shapes = (
{
closed = 1;
nodes = (
(-79,96,l),
(967,96,l),
(967,0,l),
(1336,0,l),
(1336,683,l),
(967,683,l),
(967,339,l),
(520,339,l),
(770,683,l),
(344,683,l)
);
}
);
width = 1389;
}
);
metricRight = "=U";
unicode = 52;
},
{
color = 0;
glyphname = five;
kernLeft = four;
lastChange = "2021-01-31 20:00:30 +0000";
layers = (
{
layerId = m01;
shapes = (
{
closed = 1;
nodes = (
(-174,-39,l),
(-194,95,l),
(896,95,l),
(875,172,l),
(613,-196,l),
(593,0,l),
(1246,0,l),
(1014,-196,l),
(1466,433,l),
(1483,338,l),
(413,338,l),
(433,206,l),
(601,438,l),
(1283,438,l),
(1283,683,l),
(344,683,l)
);
}
);
width = 1369;
}
);
unicode = 53;
},
{
color = 0;
glyphname = six;
kernLeft = O;
kernRight = u;
lastChange = "2021-01-31 18:53:35 +0000";
layers = (
{
background = {
shapes = (
{
closed = 1;
nodes = (
(1120,584,l),
(374,584,l),
(421,507,l),
(421,683,l),
(53,683,l),
(53,1,l),
(1467,0,l),
(1002,656,l)
);
},
{
closed = 1;
nodes = (
(868,351,l),
(794,399,l),
(914,234,l),
(421,234,l),
(421,351,l)
);
}
);
};
layerId = m01;
shapes = (
{
closed = 1;
nodes = (
(-79,0,l),
(1399,0,l),
(1399,551,l),
(730,551,l),
(730,318,l),
(1031,318,l),
(1031,234,l),
(500,234,l),
(966,878,l),
(874,683,l),
(368,683,l),
(554,878,l)
);
}
);
width = 1441;
}
);
unicode = 54;
},
{
color = 0;
glyphname = seven;
kernLeft = seven;
kernRight = D;
lastChange = "2021-01-31 18:53:35 +0000";
layers = (
{
layerId = m01;
shapes = (
{
closed = 1;
nodes = (
(1414,683,l),
(21,683,l),
(21,244,l),
(389,244,l),
(389,448,l),
(815,448,l),
(349,-195,l),
(444,0,l),
(971,0,l),
(781,-195,l)
);
}
);
width = 1336;
}
);
unicode = 55;
},
{
color = 0;
glyphname = eight;
kernLeft = eight;
kernRight = B;
lastChange = "2021-01-31 18:53:35 +0000";
layers = (
{
background = {
shapes = (
{
closed = 1;
nodes = (
(452,525,l),
(410,469,l),
(720,469,l),
(710,517,l),
(564,310,l),
(516,338,l),
(1003,338,l),
(993,361,l),
(855,166,l),
(919,225,l),
(410,225,l),
(452,158,l)
);
},
{
closed = 1;
nodes = (
(1132,0,l),
(1542,564,l),
(1562,551,l),
(947,551,l),
(947,683,l),
(89,683,l),
(89,0,l)
);
},
{
closed = 0;
nodes = (
(606,389,l),
(480,575,l)
);
},
{
closed = 0;
nodes = (
(274,408,l),
(148,595,l)
);
},
{
closed = 0;
nodes = (
(800,489,l),
(692,336,l)
);
}
);
};
layerId = m01;
shapes = (
{
closed = 1;
nodes = (
(1155,0,l),
(1556,551,l),
(1074,551,l),
(1074,683,l),
(41,683,l),
(51,721,l),
(290,372,l),
(301,449,l),
(-16,0,l)
);
},
{
closed = 1;
nodes = (
(646,439,l),
(635,361,l),
(523,527,l),
(512,488,l),
(858,488,l),
(847,528,l),
(714,338,l),
(1010,338,l),
(902,185,l),
(977,224,l),
(454,224,l),
(475,185,l)
);
}
);
width = 1477;
},
{
anchors = (
{
name = bottom;
pos = (664,2);
},
{
name = top;
pos = (799,840);
}
);
associatedMasterId = m01;
layerId = "7B72C58C-D2C8-4A3D-A060-10877D3ED4FB";
name = "Jan 30, 21, 13:39";
shapes = (
{
closed = 1;
nodes = (
(473,106,l),
(620,330,l),
(487,512,l),
(467,448,l),
(1084,448,l),
(1036,427,l),
(1036,756,l),
(1084,683,l),
(-37,683,l),
(-16,748,l),
(263,340,l),
(-79,-129,l),
(1106,-131,l),
(1603,551,l),
(858,551,l),
(660,281,l),
(630,328,l),
(1083,328,l),
(1063,356,l),
(882,104,l)
);
}
);
width = 1525;
},
{
anchors = (
{
name = bottom;
pos = (700,2);
},
{
name = top;
pos = (836,840);
}
);
associatedMasterId = m01;
background = {
shapes = (
{
closed = 1;
nodes = (
(452,525,l),
(410,469,l),
(720,469,l),
(710,517,l),
(564,310,l),
(516,338,l),
(1003,338,l),
(993,361,l),
(855,166,l),
(919,225,l),
(410,225,l),
(452,158,l)
);
},
{
closed = 1;
nodes = (
(1132,0,l),
(1542,564,l),
(1562,551,l),
(947,551,l),
(947,683,l),
(89,683,l),
(89,0,l)
);
}
);
};
layerId = "0E4D94A0-166E-43B2-8EDA-E0D62F5F8654";
name = "Jan 30, 21, 14:20";
shapes = (
{
closed = 1;
nodes = (
(723,488,l),
(620,338,l),
(979,338,l),
(885,206,l),
(960,224,l),
(404,224,l),
(452,197,l),
(546,338,l),
(225,338,l),
(-16,0,l),
(1134,0,l),
(1535,551,l),
(981,551,l),
(981,683,l),
(-21,683,l),
(225,338,l),
(546,338,l),
(444,488,l)
);
}
);
width = 1456;
}
);
metricRight = "=B";
unicode = 56;
},
{
glyphname = .notdef;
kernLeft = O;
kernRight = U;
lastChange = "2021-01-31 22:59:31 +0000";
layers = (
{
layerId = m01;
shapes = (
{
closed = 1;
nodes = (
(1437,-131,l),
(1437,683,l),
(439,683,l),
(-150,-131,l)
);
},
{
closed = 1;
nodes = (
(495,587,l),
(1336,587,l),
(1336,-37,l),
(45,-37,l)
);
},
{
closed = 1;
nodes = (
(1308,-68,l),
(1398,-27,l),
(525,613,l),
(419,583,l)
);
},
{
closed = 1;
nodes = (
(1278,613,l),
(-49,-37,l),
(75,-68,l),
(1416,589,l)
);
}
);
width = 1510;
}
);
},
{
color = 0;
glyphname = period;
kernLeft = period;
kernRight = period;
lastChange = "2021-01-31 18:53:35 +0000";
layers = (
{
layerId = m01;
shapes = (
{
closed = 1;
nodes = (
(420,0,l),
(420,263,l),
(53,263,l),
(53,0,l)
);
}
);
width = 473;
}
);
metricRight = "=|";
unicode = 46;
},
{
color = 0;
glyphname = comma;
kernLeft = period;
kernRight = period;
lastChange = "2021-01-31 18:53:35 +0000";
layers = (
{
background = {
shapes = (
{
closed = 1;
nodes = (
(420,0,l),
(420,263,l),
(53,263,l),
(53,0,l)
);
}
);
};
layerId = m01;
shapes = (
{
closed = 1;
nodes = (
(282,53,l),
(170,-105,l),
(230,-105,l),
(495,263,l),
(42,263,l),
(42,53,l)
);
}
);
width = 483;
}
);
unicode = 44;
},
{
color = 8;
glyphname = colon;
kernLeft = colon;
kernRight = colon;
lastChange = "2021-01-31 20:51:44 +0000";
layers = (
{
layerId = m01;
shapes = (
{
closed = 1;
nodes = (
(368,0,l),
(368,252,l),
(53,252,l),
(53,0,l)
);
},
{
closed = 1;
nodes = (
(368,299,l),
(368,551,l),
(53,551,l),
(53,299,l)
);
}
);
width = 420;
}
);
unicode = 58;
},
{
color = 0;
glyphname = semicolon;
kernLeft = colon;
kernRight = colon;
lastChange = "2021-01-31 18:53:35 +0000";
layers = (
{
layerId = m01;
shapes = (
{
closed = 1;
nodes = (
(368,299,l),
(368,551,l),
(53,551,l),
(53,299,l)
);
},
{
closed = 1;
nodes = (
(240,53,l),
(128,-105,l),
(188,-105,l),
(464,280,l),
(484,252,l),
(5,252,l),
(53,289,l),
(53,53,l)
);
}
);
width = 420;
}
);
unicode = 59;
},
{
color = 0;
glyphname = exclam;
lastChange = "2021-01-31 18:53:35 +0000";
layers = (
{
layerId = m01;
shapes = (
{
closed = 1;
nodes = (
(63,683,l),
(63,246,l),
(452,246,l),
(452,683,l)
);
},
{
closed = 1;
nodes = (
(452,0,l),
(452,205,l),
(63,205,l),
(63,0,l)
);
}
);
width = 515;
}
);
metricRight = "=|";
unicode = 33;
},
{
color = 0;
glyphname = question;
lastChange = "2021-01-31 18:53:35 +0000";
layers = (
{
background = {
shapes = (
{
closed = 0;
nodes = (
(21,246,l),
(1124,246,l)
);
}
);
};
layerId = m01;
shapes = (
{
closed = 1;
nodes = (
(1435,683,l),
(21,681,l),
(21,215,l),
(-26,243,l),
(436,243,l),
(389,215,l),
(389,438,l),
(890,438,l),
(902,486,l),
(705,225,l),
(686,243,l),
(1181,243,l),
(1107,224,l)
);
},
{
closed = 1;
nodes = (
(882,0,l),
(882,205,l),
(473,205,l),
(473,0,l)
);
}
);
width = 1357;
}
);
unicode = 63;
},
{
color = 0;
glyphname = bullet;
lastChange = "2021-01-31 18:53:35 +0000";
layers = (
{
layerId = m01;
shapes = (
{
closed = 1;
nodes = (
(855,539,l),
(295,539,l),
(0,144,l),
(560,144,l)
);
}
);
width = 855;
}
);
unicode = 8226;
},
{
color = 0;
glyphname = asterisk;
lastChange = "2021-01-31 18:53:35 +0000";
layers = (
{
background = {
shapes = (
{
closed = 0;
nodes = (
(726,146,l),
(574,356,l)
);
}
);
};
layerId = m01;
shapes = (
{
closed = 1;
nodes = (
(260,210,l),
(260,105,l),
(575,105,l),
(575,356,l),
(815,484,l),
(815,729,l),
(575,578,l),
(575,683,l),
(260,683,l),
(260,432,l),
(21,303,l),
(21,59,l)
);
},
{
closed = 1;
nodes = (
(260,432,l),
(102,659,l),
(21,659,l),
(21,432,l)
);
},
{
closed = 1;
nodes = (
(815,128,l),
(815,356,l),
(575,356,l),
(734,128,l)
);
}
);
width = 836;
}
);
metricRight = "=|";
unicode = 42;
},
{
color = 0;
glyphname = numbersign;
kernLeft = O;
kernRight = U;
lastChange = "2021-01-31 18:53:35 +0000";
layers = (
{
background = {
shapes = (
{
closed = 1;
nodes = (
(-51,0,l),
(379,0,l),
(873,683,l),
(440,683,l)
);
}
);
};
layerId = m01;
shapes = (
{
closed = 1;
nodes = (
(159,0,l),
(558,0,l),
(1051,683,l),
(650,683,l)
);
},
{
closed = 1;
nodes = (
(1720,360,l),
(1720,551,l),
(326,551,l),
(188,360,l)
);
},
{
closed = 1;
nodes = (
(1510,0,l),
(1510,683,l),
(1153,683,l),
(1153,0,l)
);
},
{
closed = 1;
nodes = (
(1720,100,l),
(1720,291,l),
(137,291,l),
(0,100,l)
);
}
);
width = 1772;
}
);
unicode = 35;
},
{
color = 0;
glyphname = slash;
lastChange = "2021-01-31 19:01:17 +0000";
layers = (
{
background = {
shapes = (
{
closed = 1;
nodes = (
(12,0,l),
(442,0,l),
(936,683,l),
(503,683,l)
);
}
);
};
layerId = m01;
shapes = (
{
closed = 1;
nodes = (
(-127,-196,l),
(-126,-131,l),
(368,-131,l),
(272,-196,l),
(1045,879,l),
(1044,814,l),
(548,814,l),
(644,879,l)
);
}
);
width = 918;
}
);
metricRight = "=|";
unicode = 47;
},
{
color = 0;
glyphname = backslash;
lastChange = "2021-01-31 19:01:20 +0000";
layers = (
{
layerId = m01;
shapes = (
{
closed = 1;
nodes = (
(369,814,l),
(-127,814,l),
(-128,879,l),
(645,-196,l),
(549,-131,l),
(1043,-131,l),
(1044,-196,l),
(273,879,l)
);
}
);
width = 916;
}
);
metricRight = "=|";
unicode = 92;
},
{
color = 0;
glyphname = hyphen;
kernLeft = hyphen;
kernRight = hyphen;
lastChange = "2021-01-31 18:53:35 +0000";
layers = (
{
layerId = m01;
shapes = (
{
closed = 1;
nodes = (
(771,551,l),
(158,551,l),
(-4,336,l),
(609,336,l)
);
}
);
width = 771;
}
);
unicode = 45;
},
{
color = 0;
glyphname = endash;
kernLeft = hyphen;
kernRight = hyphen;
lastChange = "2021-01-31 18:53:35 +0000";
layers = (
{
layerId = m01;
shapes = (
{
closed = 1;
nodes = (
(981,525,l),
(158,525,l),
(0,315,l),
(823,315,l)
);
}
);
width = 981;
}
);
metricRight = "=|";
unicode = 8211;
},
{
color = 0;
glyphname = emdash;
kernLeft = hyphen;
kernRight = hyphen;
lastChange = "2021-01-31 18:53:35 +0000";
layers = (
{
layerId = m01;
shapes = (
{
closed = 1;
nodes = (
(1401,525,l),
(158,525,l),
(0,315,l),
(1243,315,l)
);
}
);
width = 1401;
}
);
unicode = 8212;
},
{
color = 0;
glyphname = parenleft;
kernLeft = parenleft;
kernRight = parenleft;
lastChange = "2021-01-31 18:53:35 +0000";
layers = (
{
background = {
shapes = (
{
closed = 0;
nodes = (
(314,855,l),
(-83,303,l)
);
},
{
closed = 0;
nodes = (
(524,225,l),
(127,-327,l)
);
}
);
};
layerId = m01;
shapes = (
{
closed = 1;
nodes = (
(687,814,l),
(303,814,l),
(47,458,l),
(47,-131,l),
(687,-131,l),
(687,79,l),
(383,79,l),
(383,604,l),
(687,604,l)
);
}
);
width = 708;
}
);
unicode = 40;
},
{
color = 0;
glyphname = braceleft;
kernLeft = parenleft;
kernRight = parenleft;
lastChange = "2021-01-31 18:53:35 +0000";
layers = (
{
layerId = m01;
shapes = (
{
closed = 1;
nodes = (
(356,236,l),
(356,446,l),
(0,446,l),
(0,236,l)
);
},
{
pos = (79,0);
ref = bracketleft;
}
);
width = 786;
}
);
unicode = 123;
},
{
color = 0;
glyphname = bracketleft;
kernLeft = parenleft;
kernRight = parenleft;
lastChange = "2021-01-31 18:53:35 +0000";
layers = (
{
background = {
shapes = (
{
closed = 1;
nodes = (
(37,0,l),
(1015,0,l),
(1015,244,l),
(665,244,l),
(805,438,l),
(1015,438,l),
(1015,683,l),
(528,683,l)
);
}
);
};
layerId = m01;
shapes = (
{
closed = 1;
nodes = (
(687,814,l),
(47,814,l),
(47,-131,l),
(687,-131,l),
(687,79,l),
(383,79,l),
(383,604,l),
(687,604,l)
);
}
);
width = 708;
}
);
unicode = 91;
},
{
color = 0;
glyphname = quotedblbase;
kernLeft = period;
kernRight = period;
lastChange = "2021-01-31 18:53:35 +0000";
layers = (
{
layerId = m01;
shapes = (
{
closed = 1;
nodes = (
(197,53,l),
(85,-105,l),
(145,-105,l),
(410,263,l),
(42,263,l),
(42,53,l)
);
},
{
closed = 1;
nodes = (
(512,53,l),
(400,-105,l),
(460,-105,l),
(725,263,l),
(366,263,l),
(366,53,l)
);
}
);
width = 713;
}
);
metricLeft = "=quotesinglbase";
metricRight = "=quotesinglbase";
unicode = 8222;
},
{
color = 0;
glyphname = quotedblleft;
kernLeft = quoteleft;
kernRight = quoteleft;
lastChange = "2021-01-31 18:53:35 +0000";
layers = (
{
background = {
shapes = (
{
closed = 1;
nodes = (
(516,578,l),
(635,746,l),
(575,746,l),
(303,368,l),
(671,368,l),
(671,578,l)
);
},
{
closed = 1;
nodes = (
(201,578,l),
(320,746,l),
(260,746,l),
(-12,368,l),
(347,368,l),
(347,578,l)
);
}
);
};
layerId = m01;
shapes = (
{
closed = 1;
nodes = (
(516,551,l),
(628,709,l),
(568,709,l),
(303,341,l),
(671,341,l),
(671,551,l)
);
},
{
closed = 1;
nodes = (
(201,551,l),
(313,709,l),
(253,709,l),
(-12,341,l),
(347,341,l),
(347,551,l)
);
}
);
width = 713;
}
);
metricLeft = "=|quoteright";
metricRight = "=|quoteright";
unicode = 8220;
},
{
color = 0;
glyphname = quotedblright;
kernLeft = quoteright;
kernRight = quoteright;
lastChange = "2021-01-31 18:53:35 +0000";
layers = (
{
background = {
shapes = (
{
closed = 1;
nodes = (
(197,473,l),
(78,305,l),
(138,305,l),
(410,683,l),
(42,683,l),
(42,473,l)
);
},
{
closed = 1;
nodes = (
(512,473,l),
(393,305,l),
(453,305,l),
(725,683,l),
(366,683,l),
(366,473,l)
);
}
);
};
layerId = m01;
shapes = (
{
closed = 1;
nodes = (
(197,473,l),
(85,315,l),
(145,315,l),
(410,683,l),
(42,683,l),
(42,473,l)
);
},
{
closed = 1;
nodes = (
(512,473,l),
(400,315,l),
(460,315,l),
(725,683,l),
(366,683,l),
(366,473,l)
);
}
);
width = 713;
}
);
metricLeft = "=quoteright";
metricRight = "=quoteright";
unicode = 8221;
},
{
color = 0;
glyphname = quoteleft;
kernLeft = quoteleft;
kernRight = quoteleft;
lastChange = "2021-01-31 18:53:35 +0000";
layers = (
{
background = {
shapes = (
{
closed = 1;
nodes = (
(201,578,l),
(320,746,l),
(260,746,l),
(-12,368,l),
(399,368,l),
(399,578,l)
);
}
);
};
layerId = m01;
shapes = (
{
closed = 1;
nodes = (
(201,551,l),
(313,709,l),
(253,709,l),
(-12,341,l),
(452,341,l),
(452,551,l)
);
}
);
width = 494;
}
);
metricLeft = "=|quoteright";
metricRight = "=|quoteright";
unicode = 8216;
},
{
color = 0;
glyphname = quoteright;
kernLeft = quoteright;
kernRight = quoteright;
lastChange = "2021-01-31 19:51:35 +0000";
layers = (
{
background = {
shapes = (
{
closed = 1;
nodes = (
(240,473,l),
(121,305,l),
(181,305,l),
(453,683,l),
(42,683,l),
(42,473,l)
);
}
);
};
layerId = m01;
shapes = (
{
closed = 1;
nodes = (
(282,473,l),
(170,315,l),
(230,315,l),
(495,683,l),
(42,683,l),
(42,473,l)
);
}
);
width = 483;
}
);
metricWidth = "=comma";
unicode = 8217;
},
{
color = 0;
glyphname = guillemetleft;
kernLeft = guillemotleft;
kernRight = guillemotleft;
lastChange = "2021-01-31 18:53:35 +0000";
layers = (
{
layerId = m01;
shapes = (
{
closed = 1;
nodes = (
(253,551,l),
(0,205,l),
(201,0,l),
(495,0,l),
(294,205,l),
(547,551,l)
);
},
{
closed = 1;
nodes = (
(597,551,l),
(347,207,l),
(547,0,l),
(841,0,l),
(641,207,l),
(891,551,l)
);
}
);
width = 860;
}
);
metricLeft = "=guilsinglleft";
metricRight = "=guilsinglleft";
unicode = 171;
},
{
color = 0;
glyphname = guilsinglleft;
kernLeft = guillemotleft;
kernRight = guillemotleft;
lastChange = "2021-01-31 18:53:35 +0000";
layers = (
{
background = {
shapes = (
{
closed = 1;
nodes = (
(211,0,l),
(1387,0,l),
(1387,525,l),
(589,525,l)
);
},
{
closed = 1;
nodes = (
(809,323,l),
(1072,323,l),
(1072,200,l),
(719,200,l)
);
}
);
};
layerId = m01;
shapes = (
{
closed = 1;
nodes = (
(253,551,l),
(0,205,l),
(201,0,l),
(516,0,l),
(315,205,l),
(568,551,l)
);
}
);
width = 537;
}
);
unicode = 8249;
},
{
color = 0;
glyphname = quotedbl;
kernLeft = quotesingle;
kernRight = quotesingle;
lastChange = "2021-01-31 19:01:51 +0000";
layers = (
{
layerId = m01;
shapes = (
{
closed = 1;
nodes = (
(53,315,l),
(284,315,l),
(284,683,l),
(53,683,l)
);
},
{
closed = 1;
nodes = (
(315,315,l),
(546,315,l),
(546,683,l),
(315,683,l)
);
}
);
width = 599;
}
);
metricLeft = "=quotesingle";
metricRight = "=quotesingle";
unicode = 34;
},
{
color = 0;
glyphname = quotesingle;
kernLeft = quotesingle;
kernRight = quotesingle;
lastChange = "2021-01-31 19:01:25 +0000";
layers = (
{
layerId = m01;
shapes = (
{
closed = 1;
nodes = (
(53,315,l),
(284,315,l),
(284,683,l),
(53,683,l)
);
}
);
width = 337;
}
);
metricRight = "=|";
unicode = 39;
},
{
color = 0;
glyphname = apple;
lastChange = "2021-02-01 19:54:46 +0000";
layers = (
{
layerId = m01;
shapes = (
{
closed = 1;
nodes = (
(431,168,l),
(445,226,l),
(809,226,l),
(786,290,l),
(696,163,l),
(329,163,l),
(329,683,l),
(53,683,l),
(53,0,l),
(933,0,l),
(1258,452,l),
(1273,396,l),
(549,396,l),
(633,452,l)
);
},
{
closed = 1;
nodes = (
(570,558,l),
(612,524,l),
(360,524,l),
(360,201,l),
(319,227,l),
(457,227,l),
(399,186,l),
(593,460,l),
(570,419,l)
);
},
{
closed = 1;
nodes = (
(1142,428,l),
(1142,683,l),
(865,683,l),
(865,428,l)
);
},
{
closed = 1;
nodes = (
(602,415,l),
(568,428,l),
(834,428,l),
(834,524,l),
(568,524,l),
(602,558,l)
);
}
);
width = 1202;
}
);
metricLeft = "=signOfTheHorns";
unicode = 63743;
},
{
color = 0;
glyphname = at;
kernLeft = O;
kernRight = U;
lastChange = "2021-01-31 18:53:35 +0000";
layers = (
{
layerId = m01;
shapes = (
{
closed = 1;
nodes = (
(1414,-131,l),
(1414,-37,l),
(27,-37,l),
(501,620,l),
(426,587,l),
(1361,587,l),
(1319,629,l),
(1319,166,l),
(1282,166,l),
(1282,551,l),
(506,551,l),
(117,0,l),
(1420,0,l),
(1420,683,l),
(422,683,l),
(-167,-131,l)
);
},
{
closed = 1;
nodes = (
(1067,166,l),
(520,166,l),
(675,381,l),
(1020,381,l),
(1020,126,l)
);
}
);
width = 1493;
}
);
unicode = 64;
},
{
color = 0;
glyphname = ampersand;
lastChange = "2021-01-31 18:53:35 +0000";
layers = (
{
background = {
shapes = (
{
closed = 1;
nodes = (
(1331,0,l),
(1011,438,l),
(1473,438,l),
(1473,683,l),
(383,683,l),
(706,234,l),
(481,234,l),
(481,438,l),
(92,438,l),
(92,0,l)
);
},
{
closed = 1;
nodes = (
(524,-11,l),
(725,270,l),
(360,270,l),
(160,-11,l)
);
}
);
};
layerId = m01;
shapes = (
{
closed = 1;
nodes = (
(384,683,l),
(874,0,l),
(1313,0,l),
(988,438,l),
(1358,438,l),
(1358,683,l)
);
},
{
closed = 1;
nodes = (
(1498,184,l),
(1761,551,l),
(1439,551,l),
(1176,184,l)
);
},
{
closed = 1;
nodes = (
(410,210,l),
(412,341,l),
(689,341,l),
(689,551,l),
(42,551,l),
(42,0,l),
(576,0,l),
(723,210,l)
);
}
);
width = 1701;
},
{
associatedMasterId = m01;
background = {
shapes = (
{
closed = 1;
nodes = (
(1254,0,l),
(933,438,l),
(1395,438,l),
(1395,683,l),
(306,683,l),
(628,234,l),
(403,234,l),
(403,438,l),
(15,438,l),
(15,0,l)
);
},
{
closed = 1;
nodes = (
(446,-11,l),
(647,270,l),
(282,270,l),
(82,-11,l)
);
}
);
};
layerId = "475CA331-4861-4C4E-9C0D-A62A6D5E97AD";
name = "Jan 27, 21, 14:03";
shapes = (
{
closed = 1;
nodes = (
(420,242,l),
(420,525,l),
(32,525,l),
(32,0,l),
(450,0,l),
(623,242,l)
);
},
{
closed = 1;
nodes = (
(307,683,l),
(796,0,l),
(1256,0,l),
(931,438,l),
(1339,438,l),
(1339,683,l)
);
},
{
closed = 1;
nodes = (
(1503,158,l),
(1703,438,l),
(1339,438,l),
(1138,158,l)
);
}
);
width = 1624;
}
);
unicode = 38;
},
{
color = 0;
glyphname = paragraph;
kernLeft = O;
kernRight = U;
lastChange = "2021-01-31 18:53:35 +0000";
layers = (
{
layerId = m01;
shapes = (
{
closed = 1;
nodes = (
(1031,105,l),
(1031,-131,l),
(1399,-131,l),
(1399,105,l)
);
},
{
closed = 1;
nodes = (
(632,105,l),
(632,-131,l),
(979,-131,l),
(979,105,l)
);
},
{
ref = O;
}
);
width = 1451;
}
);
unicode = 182;
},
{
color = 0;
glyphname = section;
lastChange = "2021-01-31 18:53:35 +0000";
layers = (
{
layerId = m01;
shapes = (
{
closed = 1;
nodes = (
(1163,462,l),
(1163,683,l),
(260,683,l),
(448,420,l),
(50,420,l),
(303,67,l),
(-84,67,l),
(-84,-131,l),
(877,-131,l),
(685,131,l),
(1049,131,l),
(807,462,l)
);
},
{
closed = 1;
nodes = (
(510,226,l),
(639,95,l),
(411,377,l),
(391,315,l),
(625,315,l),
(485,457,l),
(721,166,l),
(744,226,l)
);
}
);
width = 1163;
}
);
unicode = 167;
},
{
color = 0;
glyphname = copyright;
kernLeft = O;
kernRight = U;
lastChange = "2021-01-31 22:59:33 +0000";
layers = (
{
layerId = m01;
shapes = (
{
closed = 1;
nodes = (
(1437,-131,l),
(1437,683,l),
(439,683,l),
(-150,-131,l)
);
},
{
closed = 1;
nodes = (
(495,587,l),
(1336,587,l),
(1336,-37,l),
(45,-37,l)
);
},
{
closed = 1;
nodes = (
(1299,166,l),
(1299,0,l),
(134,0,l),
(523,551,l),
(1299,551,l),
(1299,381,l),
(692,381,l),
(537,166,l)
);
}
);
width = 1510;
}
);
unicode = 169;
},
{
color = 0;
glyphname = trademark;
lastChange = "2021-01-31 18:53:35 +0000";
layers = (
{
layerId = m01;
shapes = (
{
closed = 1;
nodes = (
(441,341,l),
(441,540,l),
(668,540,l),
(668,683,l),
(0,683,l),
(0,540,l),
(226,540,l),
(226,341,l)
);
},
{
closed = 1;
nodes = (
(1662,683,l),
(998,683,l),
(998,341,l),
(1213,341,l),
(1213,550,l),
(1404,550,l),
(1390,585,l),
(1213,341,l),
(1641,341,l),
(1641,484,l),
(1474,484,l),
(1489,439,l)
);
},
{
closed = 1;
nodes = (
(1104,683,l),
(694,683,l),
(694,341,l),
(899,341,l),
(899,550,l),
(1101,550,l)
);
}
);
width = 1654;
}
);
unicode = 8482;
},
{
glyphname = minute;
kernLeft = quotesingle;
kernRight = quotesingle;
lastChange = "2021-01-31 23:02:46 +0000";
layers = (
{
layerId = m01;
shapes = (
{
closed = 1;
nodes = (
(33,315,l),
(264,315,l),
(324,683,l),
(93,683,l)
);
}
);
width = 337;
}
);
unicode = 8242;
},
{
glyphname = second;
kernLeft = quotesingle;
kernRight = quotesingle;
lastChange = "2021-01-31 23:02:48 +0000";
layers = (
{
layerId = m01;
shapes = (
{
closed = 1;
nodes = (
(33,315,l),
(264,315,l),
(324,683,l),
(93,683,l)
);
},
{
closed = 1;
nodes = (
(295,315,l),
(526,315,l),
(586,683,l),
(355,683,l)
);
}
);
width = 599;
}
);
unicode = 8243;
},
{
color = 0;
glyphname = bar;
lastChange = "2021-01-31 19:01:31 +0000";
layers = (
{
layerId = m01;
shapes = (
{
closed = 1;
nodes = (
(53,840,l),
(53,-158,l),
(368,-158,l),
(368,840,l)
);
}
);
width = 421;
}
);
metricRight = "=|";
unicode = 124;
},
{
color = 0;
glyphname = brokenbar;
lastChange = "2021-01-31 19:07:18 +0000";
layers = (
{
background = {
shapes = (
{
closed = 1;
nodes = (
(89,-179,l),
(425,-179,l),
(425,347,l),
(89,347,l)
);
},
{
closed = 1;
nodes = (
(425,378,l),
(425,504,l),
(89,504,l),
(89,378,l)
);
}
);
};
layerId = m01;
shapes = (
{
closed = 1;
nodes = (
(368,368,l),
(368,840,l),
(53,840,l),
(53,368,l)
);
},
{
closed = 1;
nodes = (
(53,315,l),
(53,-158,l),
(368,-158,l),
(368,315,l)
);
}
);
width = 421;
}
);
metricLeft = "=bar";
metricRight = "=bar";
unicode = 166;
},
{
color = 0;
glyphname = dagger;
lastChange = "2021-01-31 18:53:35 +0000";
layers = (
{
layerId = m01;
shapes = (
{
closed = 1;
nodes = (
(260,147,l),
(575,147,l),
(575,599,l),
(575,683,l),
(260,683,l)
);
},
{
closed = 1;
nodes = (
(727,389,l),
(815,389,l),
(815,599,l),
(575,599,l)
);
},
{
closed = 1;
nodes = (
(21,389,l),
(260,389,l),
(260,599,l),
(21,599,l)
);
},
{
closed = 1;
nodes = (
(575,683,l),
(260,683,l),
(260,231,l),
(260,147,l),
(575,147,l)
);
},
{
closed = 1;
nodes = (
(109,441,l),
(21,441,l),
(21,231,l),
(260,231,l)
);
},
{
closed = 1;
nodes = (
(815,441,l),
(575,441,l),
(575,231,l),
(815,231,l)
);
}
);
width = 836;
}
);
metricRight = "=|";
unicode = 8224;
},
{
color = 0;
glyphname = daggerdbl;
lastChange = "2021-01-31 18:53:35 +0000";
layers = (
{
layerId = m01;
shapes = (
{
closed = 1;
nodes = (
(260,42,l),
(575,42,l),
(575,599,l),
(575,683,l),
(260,683,l)
);
},
{
closed = 1;
nodes = (
(727,389,l),
(815,389,l),
(815,599,l),
(575,599,l)
);
},
{
closed = 1;
nodes = (
(21,389,l),
(260,389,l),
(260,599,l),
(21,599,l)
);
},
{
closed = 1;
nodes = (
(575,683,l),
(260,683,l),
(260,231,l),
(260,42,l),
(575,42,l)
);
},
{
closed = 1;
nodes = (
(109,336,l),
(21,336,l),
(21,126,l),
(260,126,l)
);
},
{
closed = 1;
nodes = (
(815,336,l),
(575,336,l),
(575,126,l),
(815,126,l)
);
}
);
width = 836;
}
);
unicode = 8225;
},
{
glyphname = numero;
lastChange = "2021-01-31 21:40:19 +0000";
layers = (
{
layerId = m01;
shapes = (
{
ref = N;
},
{
alignment = -1;
pos = (1319,132);
ref = o;
},
{
closed = 1;
nodes = (
(1580,0,l),
(2291,0,l),
(2291,87,l),
(1580,87,l)
);
}
);
width = 2491;
}
);
metricLeft = N;
unicode = 8470;
},
{
glyphname = signOfTheHorns;
lastChange = "2021-01-31 18:53:35 +0000";
layers = (
{
background = {
shapes = (
{
closed = 1;
nodes = (
(610,313,l),
(933,313,l),
(848,194,l),
(423,194,l),
(423,813,l),
(144,813,l),
(144,0,l),
(1069,0,l),
(1432,537,l),
(736,537,l),
(775,544,l)
);
}
);
};
layerId = m01;
shapes = (
{
ref = apple;
}
);
width = 1202;
},
{
associatedMasterId = m01;
background = {
shapes = (
{
closed = 1;
nodes = (
(610,313,l),
(933,313,l),
(848,194,l),
(423,194,l),
(423,813,l),
(144,813,l),
(144,0,l),
(1069,0,l),
(1432,537,l),
(736,537,l),
(775,544,l)
);
}
);
};
layerId = "F8A395E8-EB58-4145-8BDA-E08F268768B3";
name = "Jan 29, 21, 16:02";
shapes = (
{
closed = 1;
nodes = (
(621,193,l),
(601,226,l),
(1017,226,l),
(998,271,l),
(872,95,l),
(377,95,l),
(377,814,l),
(53,814,l),
(53,-131,l),
(1128,-131,l),
(1578,495,l),
(1598,449,l),
(761,449,l),
(836,495,l)
);
},
{
closed = 1;
nodes = (
(708,595,l),
(412,595,l),
(412,185,l),
(364,226,l),
(642,226,l),
(567,193,l),
(708,392,l)
);
},
{
closed = 1;
nodes = (
(1418,492,l),
(1418,814,l),
(1092,814,l),
(1092,492,l)
);
},
{
closed = 1;
nodes = (
(741,438,l),
(780,492,l),
(1059,492,l),
(1059,595,l),
(741,595,l)
);
}
);
width = 1467;
},
{
associatedMasterId = m01;
background = {
shapes = (
{
closed = 1;
nodes = (
(610,313,l),
(933,313,l),
(848,194,l),
(423,194,l),
(423,813,l),
(144,813,l),
(144,0,l),
(1069,0,l),
(1432,537,l),
(736,537,l),
(775,544,l)
);
}
);
};
layerId = "9125F69E-615A-48A9-9E53-4C0655A882B0";
name = "Jan 29, 21, 16:09";
shapes = (
{
closed = 1;
nodes = (
(546,210,l),
(549,226,l),
(1028,226,l),
(998,271,l),
(872,95,l),
(377,95,l),
(377,814,l),
(53,814,l),
(53,-131,l),
(1128,-131,l),
(1578,495,l),
(1598,460,l),
(669,460,l),
(750,495,l)
);
},
{
closed = 1;
nodes = (
(708,595,l),
(412,595,l),
(412,185,l),
(412,126,l),
(594,126,l),
(648,194,l),
(494,194,l),
(708,497,l)
);
},
{
closed = 1;
nodes = (
(1418,492,l),
(1418,814,l),
(1092,814,l),
(1092,492,l)
);
},
{
closed = 1;
nodes = (
(741,491,l),
(1059,492,l),
(1059,595,l),
(741,595,l)
);
},
{
closed = 1;
nodes = (
(633,126,l),
(848,126,l),
(897,194,l),
(687,194,l)
);
}
);
width = 1474;
},
{
associatedMasterId = m01;
background = {
shapes = (
{
closed = 1;
nodes = (
(610,313,l),
(933,313,l),
(848,194,l),
(423,194,l),
(423,813,l),
(144,813,l),
(144,0,l),
(1069,0,l),
(1432,537,l),
(736,537,l),
(775,544,l)
);
}
);
};
layerId = "0BF9412F-FE59-49CD-BD93-CB4B543FF09A";
name = "Jan 30, 21, 06:16";
shapes = (
{
closed = 1;
nodes = (
(562,210,l),
(549,226,l),
(1028,226,l),
(998,271,l),
(872,95,l),
(377,95,l),
(377,814,l),
(53,814,l),
(53,-131,l),
(1128,-131,l),
(1578,495,l),
(1598,460,l),
(669,460,l),
(765,495,l)
);
},
{
closed = 1;
nodes = (
(697,643,l),
(755,595,l),
(421,595,l),
(421,147,l),
(364,227,l),
(541,227,l),
(466,155,l),
(735,536,l),
(697,449,l)
);
},
{
closed = 1;
nodes = (
(1418,492,l),
(1418,814,l),
(1092,814,l),
(1092,492,l)
);
},
{
closed = 1;
nodes = (
(741,444,l),
(694,491,l),
(1048,492,l),
(1048,595,l),
(694,595,l),
(741,643,l)
);
}
);
width = 1474;
}
);
metricLeft = "=N";
unicode = 129304;
},
{
color = 0;
glyphname = cent;
lastChange = "2021-01-31 18:53:35 +0000";
layers = (
{
layerId = m01;
shapes = (
{
closed = 1;
nodes = (
(1030,588,l),
(1192,814,l),
(991,814,l),
(830,588,l)
);
},
{
closed = 1;
nodes = (
(478,98,l),
(313,-131,l),
(512,-131,l),
(677,98,l)
);
},
{
ref = C;
}
);
width = 1341;
}
);
unicode = 162;
},
{
color = 0;
glyphname = dollar;
kernLeft = S;
kernRight = S;
lastChange = "2021-01-31 18:53:35 +0000";
layers = (
{
layerId = m01;
shapes = (
{
closed = 1;
nodes = (
(1005,553,l),
(1192,814,l),
(991,814,l),
(804,553,l)
);
},
{
closed = 1;
nodes = (
(495,122,l),
(313,-131,l),
(512,-131,l),
(695,122,l)
);
},
{
ref = S;
}
);
width = 1370;
}
);
metricLeft = "=S";
metricRight = "=S";
unicode = 36;
},
{
color = 0;
glyphname = euro;
lastChange = "2021-01-31 18:53:35 +0000";
layers = (
{
layerId = m01;
shapes = (
{
closed = 1;
nodes = (
(-79,0,l),
(1320,0,l),
(1320,291,l),
(1367,223,l),
(481,223,l),
(501,206,l),
(696,476,l),
(622,459,l),
(1367,459,l),
(1320,391,l),
(1320,683,l),
(413,683,l)
);
},
{
closed = 1;
nodes = (
(0,356,l),
(988,356,l),
(1027,419,l),
(0,419,l)
);
},
{
closed = 1;
nodes = (
(-1,261,l),
(936,261,l),
(974,324,l),
(-1,324,l)
);
}
);
width = 1341;
}
);
unicode = 8364;
},
{
color = 0;
glyphname = sterling;
kernLeft = O;
kernRight = L.hook;
lastChange = "2021-02-01 00:30:27 +0000";
layers = (
{
layerId = m01;
shapes = (
{
closed = 1;
nodes = (
(1349,438,l),
(982,438,l),
(982,189,l),
(1027,224,l),
(481,224,l),
(500,197,l),
(848,683,l),
(420,683,l),
(-79,0,l),
(1349,0,l)
);
},
{
closed = 1;
nodes = (
(632,438,l),
(856,438,l),
(856,683,l),
(632,683,l)
);
},
{
closed = 1;
nodes = (
(30,273,l),
(856,273,l),
(856,380,l),
(30,380,l)
);
}
);
width = 1370;
}
);
metricRight = "=Z";
unicode = 163;
},
{
color = 0;
glyphname = yen;
lastChange = "2021-02-01 00:30:43 +0000";
layers = (
{
layerId = m01;
shapes = (
{
closed = 1;
nodes = (
(-59,93,l),
(-78,173,l),
(1346,173,l),
(1299,84,l),
(1299,683,l),
(937,683,l),
(937,305,l),
(984,411,l),
(433,411,l),
(452,314,l),
(726,683,l),
(23,683,l),
(23,467,l),
(228,467,l),
(209,500,l)
);
},
{
closed = 1;
nodes = (
(937,186,l),
(937,0,l),
(1299,0,l),
(1299,186,l)
);
},
{
closed = 1;
nodes = (
(1348,131,l),
(505,131,l),
(505,45,l),
(1348,45,l)
);
}
);
width = 1348;
}
);
unicode = 165;
},
{
color = 0;
glyphname = plus;
lastChange = "2021-01-31 18:53:35 +0000";
layers = (
{
layerId = m01;
shapes = (
{
closed = 1;
nodes = (
(990,456,l),
(666,456,l),
(666,683,l),
(351,683,l),
(351,456,l),
(26,456,l),
(26,246,l),
(351,246,l),
(351,0,l),
(666,0,l),
(666,246,l),
(990,246,l)
);
}
);
width = 1016;
}
);
unicode = 43;
},
{
color = 0;
glyphname = minus;
lastChange = "2021-01-31 18:53:35 +0000";
layers = (
{
layerId = m01;
shapes = (
{
closed = 1;
nodes = (
(990,456,l),
(26,456,l),
(26,246,l),
(990,246,l)
);
}
);
width = 1016;
}
);
metricRight = "=|";
unicode = 8722;
},
{
color = 0;
glyphname = multiply;
lastChange = "2021-01-31 18:53:35 +0000";
layers = (
{
layerId = m01;
shapes = (
{
closed = 1;
nodes = (
(990,715,l),
(26,238,l),
(26,-33,l),
(990,444,l)
);
},
{
closed = 1;
nodes = (
(990,-33,l),
(990,238,l),
(26,715,l),
(26,444,l)
);
}
);
width = 1016;
}
);
metricRight = "=|";
unicode = 215;
},
{
color = 0;
glyphname = divide;
lastChange = "2021-01-31 18:53:35 +0000";
layers = (
{
layerId = m01;
shapes = (
{
closed = 1;
nodes = (
(990,236,l),
(990,446,l),
(26,446,l),
(26,236,l)
);
},
{
closed = 1;
nodes = (
(676,478,l),
(676,683,l),
(340,683,l),
(340,478,l)
);
},
{
closed = 1;
nodes = (
(340,205,l),
(340,0,l),
(676,0,l),
(676,205,l)
);
}
);
width = 1016;
}
);
unicode = 247;
},
{
color = 0;
glyphname = equal;
lastChange = "2021-01-31 18:53:35 +0000";
layers = (
{
layerId = m01;
shapes = (
{
closed = 1;
nodes = (
(990,236,l),
(26,236,l),
(26,26,l),
(990,26,l)
);
},
{
closed = 1;
nodes = (
(990,656,l),
(26,656,l),
(26,446,l),
(990,446,l)
);
}
);
width = 1016;
}
);
unicode = 61;
},
{
color = 0;
glyphname = less;
lastChange = "2021-01-31 18:53:35 +0000";
layers = (
{
layerId = m01;
shapes = (
{
closed = 1;
nodes = (
(990,757,l),
(26,273,l),
(26,0,l),
(990,0,l),
(990,210,l),
(397,207,l),
(990,518,l)
);
}
);
width = 1016;
}
);
unicode = 60;
},
{
color = 0;
glyphname = asciicircum;
lastChange = "2021-01-31 18:53:35 +0000";
layers = (
{
background = {
shapes = (
{
closed = 0;
nodes = (
(-25,133,l),
(371,684,l)
);
},
{
closed = 0;
nodes = (
(275,133,l),
(671,684,l)
);
}
);
};
layerId = m01;
shapes = (
{
closed = 1;
nodes = (
(548,513,l),
(548,513,l),
(546,140,l),
(798,140,l),
(797,683,l),
(391,683,l),
(0,140,l),
(279,140,l)
);
}
);
width = 861;
}
);
unicode = 94;
},
{
color = 0;
glyphname = percent;
lastChange = "2021-01-31 18:53:35 +0000";
layers = (
{
layerId = m01;
shapes = (
{
closed = 1;
nodes = (
(990,757,l),
(26,165,l),
(26,-75,l),
(990,518,l)
);
},
{
closed = 1;
nodes = (
(26,683,l),
(26,473,l),
(532,473,l),
(434,683,l)
);
},
{
closed = 1;
nodes = (
(990,0,l),
(990,210,l),
(484,210,l),
(583,0,l)
);
}
);
width = 1016;
}
);
unicode = 37;
},
{
color = 0;
glyphname = perthousand;
lastChange = "2021-01-31 18:53:35 +0000";
layers = (
{
layerId = m01;
shapes = (
{
closed = 1;
nodes = (
(990,757,l),
(26,165,l),
(26,-75,l),
(990,518,l)
);
},
{
closed = 1;
nodes = (
(26,683,l),
(26,473,l),
(532,473,l),
(434,683,l)
);
},
{
closed = 1;
nodes = (
(885,0,l),
(885,210,l),
(484,210,l),
(583,0,l)
);
},
{
closed = 1;
nodes = (
(1285,0,l),
(1285,210,l),
(884,210,l),
(983,0,l)
);
}
);
width = 1311;
}
);
metricLeft = "=percent";
metricRight = "=percent";
unicode = 8240;
},
{
glyphname = upArrow;
lastChange = "2021-01-31 18:53:35 +0000";
layers = (
{
layerId = m01;
shapes = (
{
closed = 1;
nodes = (
(21,146,l),
(-58,174,l),
(435,523,l),
(257,528,l),
(900,54,l),
(809,29,l),
(809,462,l),
(900,350,l),
(251,831,l),
(470,844,l),
(-58,471,l),
(21,590,l)
);
},
{
closed = 1;
nodes = (
(214,-53,l),
(503,-53,l),
(503,502,l),
(214,502,l)
);
}
);
width = 830;
}
);
unicode = 8593;
},
{
glyphname = northEastArrow;
lastChange = "2021-01-31 18:53:35 +0000";
layers = (
{
layerId = m01;
shapes = (
{
closed = 1;
nodes = (
(998,683,l),
(62,683,l),
(62,460,l),
(704,460,l),
(704,0,l),
(998,0,l)
);
},
{
closed = 1;
nodes = (
(734,638,l),
(-54,0,l),
(355,0,l),
(846,417,l)
);
}
);
width = 1050;
}
);
unicode = 8599;
},
{
glyphname = rightArrow;
lastChange = "2021-01-31 18:53:35 +0000";
layers = (
{
background = {
shapes = (
{
closed = 0;
nodes = (
(1394,429,l),
(1082,859,l),
(725,859,l),
(1065,392,l)
);
},
{
closed = 1;
nodes = (
(268,0,l),
(1745,0,l),
(1745,683,l),
(759,683,l)
);
},
{
closed = 1;
nodes = (
(1001,447,l),
(1378,447,l),
(1378,234,l),
(846,234,l)
);
}
);
};
layerId = m01;
shapes = (
{
closed = 1;
nodes = (
(433,735,l),
(419,814,l),
(768,321,l),
(773,499,l),
(298,-144,l),
(316,-53,l),
(749,-53,l),
(636,-144,l),
(1117,505,l),
(1131,286,l),
(758,814,l),
(877,735,l)
);
},
{
closed = 1;
nodes = (
(21,521,l),
(21,274,l),
(789,274,l),
(789,521,l)
);
}
);
width = 1050;
},
{
associatedMasterId = m01;
background = {
shapes = (
{
closed = 0;
nodes = (
(1184,429,l),
(872,859,l),
(515,859,l),
(855,392,l)
);
}
);
};
layerId = "EC4EDB4C-156A-4FBF-8FD1-822D7B692659";
name = "Jan 31, 21, 10:42";
shapes = (
{
closed = 1;
nodes = (
(914,0,l),
(1254,467,l),
(1316,191,l),
(958,683,l),
(601,683,l),
(1001,132,l),
(897,467,l),
(557,0,l)
);
},
{
closed = 1;
nodes = (
(21,191,l),
(959,269,l),
(959,516,l),
(21,438,l)
);
}
);
width = 1184;
}
);
unicode = 8594;
},
{
color = 0;
glyphname = brevecomb_acutecomb;
lastChange = "2021-01-31 18:53:35 +0000";
layers = (
{
anchors = (
{
name = _top;
pos = (331,551);
},
{
name = top;
pos = (331,772);
}
);
annotations = (
{
pos = (204.056,911.864);
type = Plus;
},
{
pos = (232.571,904.521);
type = Plus;
},
{
pos = (197,894);
type = Plus;
}
);
layerId = m01;
shapes = (
{
closed = 1;
nodes = (
(317,775,l),
(452,775,l),
(665,1074,l),
(629,950,l),
(400,950,l),
(534,1079,l)
);
},
{
ref = brevecomb;
}
);
width = 662;
}
);
},
{
color = 0;
glyphname = brevecomb_gravecomb;
lastChange = "2021-01-31 18:53:35 +0000";
layers = (
{
anchors = (
{
name = _top;
pos = (331,551);
},
{
name = top;
pos = (331,772);
}
);
layerId = m01;
shapes = (
{
closed = 1;
nodes = (
(389,950,l),
(160,950,l),
(124,1074,l),
(337,775,l),
(471,775,l),
(254,1079,l)
);
},
{
ref = brevecomb;
}
);
width = 662;
}
);
},
{
color = 0;
glyphname = brevecomb_hookabovecomb;
lastChange = "2021-01-31 18:53:35 +0000";
layers = (
{
anchors = (
{
name = _top;
pos = (331,551);
},
{
name = top;
pos = (331,772);
}
);
layerId = m01;
shapes = (
{
closed = 1;
nodes = (
(201,960,l),
(201,802,l),
(153,863,l),
(456,863,l),
(436,899,l),
(336,756,l),
(399,756,l),
(595,1031,l),
(615,960,l)
);
},
{
alignment = 1;
ref = brevecomb;
}
);
width = 662;
}
);
},
{
color = 0;
glyphname = brevecomb_tildecomb;
lastChange = "2021-01-31 18:53:35 +0000";
layers = (
{
anchors = (
{
name = _top;
pos = (331,551);
},
{
name = top;
pos = (331,772);
}
);
layerId = m01;
shapes = (
{
closed = 1;
nodes = (
(597,1026,l),
(511,904,l),
(585,942,l),
(232,1053,l),
(333,1104,l),
(138,834,l),
(288,834,l),
(375,954,l),
(299,917,l),
(652,805,l),
(553,755,l),
(748,1026,l)
);
},
{
ref = brevecomb;
}
);
width = 662;
}
);
},
{
color = 0;
glyphname = circumflexcomb_acutecomb;
lastChange = "2021-01-31 18:53:35 +0000";
layers = (
{
anchors = (
{
name = _top;
pos = (331,551);
},
{
name = top;
pos = (331,845);
}
);
layerId = m01;
shapes = (
{
closed = 1;
nodes = (
(401,775,l),
(536,775,l),
(749,1074,l),
(713,950,l),
(484,950,l),
(618,1079,l)
);
},
{
pos = (662,0);
ref = circumflexcomb;
scale = (-1,1);
}
);
width = 662;
}
);
},
{
color = 0;
glyphname = circumflexcomb_gravecomb;
lastChange = "2021-01-31 18:53:35 +0000";
layers = (
{
anchors = (
{
name = _top;
pos = (336,551);
},
{
name = top;
pos = (336,772);
}
);
layerId = m01;
shapes = (
{
closed = 1;
nodes = (
(494,950,l),
(265,950,l),
(229,1074,l),
(442,775,l),
(576,775,l),
(359,1079,l)
);
},
{
pos = (662,0);
ref = circumflexcomb;
scale = (-1,1);
}
);
width = 662;
}
);
},
{
color = 0;
glyphname = circumflexcomb_tildecomb;
lastChange = "2021-01-31 18:53:35 +0000";
layers = (
{
anchors = (
{
name = _top;
pos = (336,551);
},
{
name = top;
pos = (336,772);
}
);
layerId = m01;
shapes = (
{
closed = 1;
nodes = (
(615,994,l),
(529,873,l),
(597,910,l),
(210,1015,l),
(311,1066,l),
(116,796,l),
(260,796,l),
(348,917,l),
(277,879,l),
(665,774,l),
(566,723,l),
(760,994,l)
);
},
{
pos = (662,0);
ref = circumflexcomb;
scale = (-1,1);
}
);
width = 662;
}
);
},
{
color = 0;
glyphname = dieresiscomb;
lastChange = "2021-01-31 18:53:35 +0000";
layers = (
{
anchors = (
{
name = _top;
pos = (331,551);
},
{
name = top;
pos = (331,683);
}
);
background = {
shapes = (
{
closed = 0;
nodes = (
(453,840,l),
(75,315,l)
);
},
{
closed = 0;
nodes = (
(495,840,l),
(117,315,l)
);
}
);
};
layerId = m01;
shapes = (
{
closed = 1;
nodes = (
(315,683,l),
(0,683,l),
(0,583,l),
(315,583,l)
);
},
{
closed = 1;
nodes = (
(662,583,l),
(662,683,l),
(347,683,l),
(347,583,l)
);
}
);
width = 662;
},
{
anchors = (
{
name = _top;
pos = (331,551);
},
{
name = top;
pos = (331,772);
}
);
associatedMasterId = m01;
background = {
shapes = (
{
closed = 0;
nodes = (
(453,840,l),
(75,315,l)
);
},
{
closed = 0;
nodes = (
(495,840,l),
(117,315,l)
);
}
);
};
layerId = "7067C548-5B5E-4E5D-B157-F4A0F2E92B05";
name = "Jan 28, 21, 12:53";
shapes = (
{
closed = 1;
nodes = (
(383,756,l),
(403,683,l),
(-47,683,l),
(0,764,l),
(0,585,l),
(309,585,l),
(234,546,l)
);
},
{
closed = 1;
nodes = (
(278,546,l),
(258,585,l),
(662,585,l),
(662,764,l),
(709,683,l),
(353,683,l),
(427,756,l)
);
}
);
width = 662;
}
);
unicode = 776;
},
{
color = 0;
glyphname = dotaccentcomb;
lastChange = "2021-01-31 18:53:35 +0000";
layers = (
{
anchors = (
{
name = _top;
pos = (331,551);
},
{
name = top;
pos = (331,717);
}
);
layerId = m01;
shapes = (
{
closed = 1;
nodes = (
(507,583,l),
(507,683,l),
(154,683,l),
(154,583,l)
);
}
);
width = 662;
}
);
unicode = 775;
},
{
glyphname = gravecomb;
lastChange = "2021-01-31 18:53:35 +0000";
layers = (
{
anchors = (
{
name = _top;
pos = (331,551);
},
{
name = top;
pos = (331,717);
}
);
layerId = m01;
shapes = (
{
alignment = -1;
pos = (662,0);
ref = acutecomb;
scale = (-1,1);
}
);
width = 662;
},
{
anchors = (
{
name = _top;
pos = (320,525);
},
{
name = top;
pos = (320,683);
}
);
associatedMasterId = m01;
layerId = "A352AFA7-4690-4D45-A32D-E3BE2A6A559C";
name = "Jan 27, 21, 11:03";
shapes = (
{
closed = 1;
nodes = (
(0,609,l),
(630,536,l),
(630,662,l),
(0,735,l)
);
}
);
width = 630;
}
);
unicode = 768;
},
{
color = 0;
glyphname = acutecomb;
lastChange = "2021-01-31 18:53:35 +0000";
layers = (
{
anchors = (
{
name = _top;
pos = (331,551);
},
{
name = top;
pos = (331,717);
}
);
background = {
shapes = (
{
closed = 1;
nodes = (
(23,662,l),
(23,536,l),
(653,609,l),
(653,735,l)
);
},
{
closed = 1;
nodes = (
(-13,347,l),
(1163,347,l),
(1163,872,l),
(365,872,l)
);
},
{
closed = 1;
nodes = (
(585,670,l),
(848,670,l),
(848,546,l),
(496,546,l)
);
},
{
closed = 0;
nodes = (
(668,872,l),
(290,347,l)
);
}
);
};
layerId = m01;
shapes = (
{
closed = 1;
nodes = (
(190,585,l),
(420,585,l),
(562,783,l),
(332,783,l)
);
}
);
width = 662;
}
);
unicode = 769;
},
{
glyphname = hungarumlautcomb;
lastChange = "2021-01-31 18:53:35 +0000";
layers = (
{
anchors = (
{
name = _top;
pos = (331,551);
},
{
name = top;
pos = (331,783);
}
);
layerId = m01;
shapes = (
{
pos = (-159,0);
ref = acutecomb;
},
{
alignment = -1;
pos = (176,0);
ref = acutecomb;
}
);
width = 662;
},
{
anchors = (
{
name = _top;
pos = (368,525);
},
{
name = top;
pos = (368,735);
}
);
associatedMasterId = m01;
layerId = "476D260C-A53E-45CD-98DB-8F9508F82352";
name = "Jan 27, 21, 11:04";
shapes = (
{
closed = 1;
nodes = (
(0,662,l),
(0,536,l),
(420,609,l),
(420,735,l)
);
},
{
closed = 1;
nodes = (
(420,662,l),
(420,536,l),
(840,609,l),
(840,735,l)
);
}
);
width = 630;
}
);
unicode = 779;
},
{
color = 0;
glyphname = caroncomb.alt;
lastChange = "2021-01-31 18:53:35 +0000";
layers = (
{
anchors = (
{
name = _topright;
pos = (448,717);
}
);
background = {
shapes = (
{
closed = 1;
nodes = (
(-183,0,l),
(1295,0,l),
(1295,683,l),
(309,683,l)
);
},
{
closed = 1;
nodes = (
(571,447,l),
(906,447,l),
(906,234,l),
(417,234,l)
);
}
);
};
layerId = m01;
shapes = (
{
closed = 1;
nodes = (
(158,441,l),
(370,441,l),
(567,717,l),
(355,717,l)
);
}
);
width = 662;
}
);
},
{
color = 0;
glyphname = circumflexcomb;
lastChange = "2021-01-31 18:53:35 +0000";
layers = (
{
anchors = (
{
name = _top;
pos = (331,551);
},
{
name = top;
pos = (331,796);
}
);
background = {
shapes = (
{
closed = 0;
nodes = (
(377,971,l),
(-20,420,l)
);
},
{
closed = 0;
nodes = (
(498,866,l),
(101,315,l)
);
}
);
};
layerId = m01;
shapes = (
{
closed = 1;
nodes = (
(0,567,l),
(392,673,l),
(662,567,l),
(662,689,l),
(402,796,l),
(0,689,l)
);
}
);
width = 662;
},
{
anchors = (
{
name = _top;
pos = (331,551);
},
{
name = top;
pos = (331,796);
}
);
associatedMasterId = m01;
layerId = "374D1644-E398-4453-A26F-CCAF191C5F1D";
name = "Jan 28, 21, 17:26";
shapes = (
{
closed = 1;
nodes = (
(0,567,l),
(392,673,l),
(662,567,l),
(662,689,l),
(402,796,l),
(0,689,l)
);
}
);
width = 662;
},
{
anchors = (
{
name = _top;
pos = (331,551);
},
{
name = top;
pos = (331,796);
}
);
associatedMasterId = m01;
background = {
shapes = (
{
closed = 0;
nodes = (
(377,971,l),
(-20,420,l)
);
},
{
closed = 0;
nodes = (
(498,866,l),
(101,315,l)
);
}
);
};
layerId = "B11FEFC5-92AB-4A8F-B6DD-FCB7CF6804C4";
name = "Jan 28, 21, 17:29";
shapes = (
{
closed = 1;
nodes = (
(397,757,l),
(396,765,l),
(393,583,l),
(588,583,l),
(587,767,l),
(209,767,l),
(77,583,l),
(273,583,l)
);
}
);
width = 662;
}
);
unicode = 770;
},
{
color = 0;
glyphname = brevecomb;
lastChange = "2021-01-31 18:53:35 +0000";
layers = (
{
anchors = (
{
name = _top;
pos = (331,551);
},
{
name = top;
pos = (414,805);
}
);
layerId = m01;
shapes = (
{
closed = 1;
nodes = (
(471,798,l),
(519,873,l),
(519,680,l),
(568,695,l),
(146,695,l),
(162,622,l),
(333,864,l),
(360,798,l),
(92,798,l),
(167,864,l),
(-34,583,l),
(662,583,l),
(662,873,l),
(709,798,l)
);
}
);
width = 662;
}
);
unicode = 774;
},
{
color = 0;
glyphname = tildecomb;
lastChange = "2021-01-31 18:53:35 +0000";
layers = (
{
anchors = (
{
name = _top;
pos = (331,551);
},
{
name = top;
pos = (332,772);
}
);
background = {
shapes = (
{
closed = 0;
nodes = (
(342,1087,l),
(-55,536,l)
);
},
{
closed = 0;
nodes = (
(483,1087,l),
(86,536,l)
);
},
{
closed = 0;
nodes = (
(772,1087,l),
(375,536,l)
);
},
{
closed = 0;
nodes = (
(912,1087,l),
(516,536,l)
);
}
);
};
layerId = m01;
shapes = (
{
closed = 1;
nodes = (
(549,798,l),
(463,676,l),
(530,714,l),
(63,802,l),
(164,853,l),
(-32,583,l),
(113,583,l),
(201,704,l),
(130,666,l),
(597,578,l),
(499,527,l),
(693,798,l)
);
}
);
width = 662;
},
{
anchors = (
{
name = _top;
pos = (320,525);
},
{
name = top;
pos = (320,735);
}
);
associatedMasterId = m01;
background = {
shapes = (
{
closed = 1;
nodes = (
(833,788,l),
(833,728,l),
(651,728,l),
(693,788,l),
(497,788,l),
(332,557,l),
(1004,557,l),
(1004,788,l)
);
}
);
};
layerId = "FA3707FD-77E8-4F51-AE70-2AF7D4090D50";
name = "Jan 27, 21, 11:19";
shapes = (
{
closed = 1;
nodes = (
(693,777,l),
(497,777,l),
(431,689,l),
(523,720,l),
(152,805,l),
(0,714,l),
(0,536,l),
(152,629,l),
(515,540,l)
);
}
);
width = 630;
},
{
anchors = (
{
name = _top;
pos = (331,551);
},
{
name = top;
pos = (332,772);
}
);
associatedMasterId = m01;
background = {
shapes = (
{
closed = 0;
nodes = (
(342,1087,l),
(-55,536,l)
);
},
{
closed = 0;
nodes = (
(483,1087,l),
(86,536,l)
);
},
{
closed = 0;
nodes = (
(772,1087,l),
(375,536,l)
);
},
{
closed = 0;
nodes = (
(912,1087,l),
(516,536,l)
);
}
);
};
layerId = "AE55D75A-916D-491D-83B8-6BD00A33BCB6";
name = "Jan 28, 21, 17:35";
shapes = (
{
closed = 1;
nodes = (
(455,798,l),
(457,676,l),
(530,714,l),
(63,802,l),
(164,853,l),
(-32,583,l),
(119,583,l),
(206,704,l),
(130,666,l),
(597,578,l),
(596,537,l),
(596,798,l)
);
}
);
width = 662;
}
);
unicode = 771;
},
{
color = 0;
glyphname = macroncomb;
lastChange = "2021-01-31 18:53:35 +0000";
layers = (
{
anchors = (
{
name = _top;
pos = (331,551);
},
{
name = top;
pos = (331,683);
}
);
layerId = m01;
shapes = (
{
closed = 1;
nodes = (
(0,583,l),
(662,583,l),
(662,683,l),
(0,683,l)
);
}
);
width = 662;
}
);
unicode = 772;
},
{
color = 0;
glyphname = hookabovecomb;
lastChange = "2021-01-31 18:53:35 +0000";
layers = (
{
anchors = (
{
name = _top;
pos = (331,551);
},
{
name = top;
pos = (331,872);
}
);
background = {
shapes = (
{
closed = 1;
nodes = (
(507,583,l),
(507,683,l),
(154,683,l),
(154,583,l)
);
}
);
};
guides = (
{
pos = (40,650);
},
{
pos = (40,530);
}
);
layerId = m01;
shapes = (
{
closed = 1;
nodes = (
(135,780,l),
(135,634,l),
(102,683,l),
(425,683,l),
(405,720,l),
(310,583,l),
(373,583,l),
(565,853,l),
(585,780,l)
);
}
);
width = 662;
}
);
unicode = 777;
},
{
color = 0;
glyphname = horncomb;
lastChange = "2021-01-31 18:53:35 +0000";
layers = (
{
anchors = (
{
name = _topright;
pos = (380,551);
},
{
name = topright;
pos = (434,717);
}
);
layerId = m01;
shapes = (
{
closed = 1;
nodes = (
(166,717,l),
(166,585,l),
(374,585,l),
(256,419,l),
(318,419,l),
(532,717,l)
);
}
);
width = 662;
}
);
unicode = 795;
},
{
color = 0;
glyphname = dotbelowcomb;
lastChange = "2021-01-31 18:53:35 +0000";
layers = (
{
anchors = (
{
name = _bottom;
pos = (331,0);
},
{
name = bottom;
pos = (331,-166);
}
);
layerId = m01;
shapes = (
{
closed = 1;
nodes = (
(507,-131,l),
(507,-32,l),
(154,-32,l),
(154,-131,l)
);
}
);
width = 662;
}
);
unicode = 803;
},
{
color = 0;
glyphname = commaaccentcomb;
lastChange = "2021-01-31 18:53:35 +0000";
layers = (
{
anchors = (
{
name = _bottom;
pos = (331,0);
},
{
name = bottom;
pos = (331,-166);
}
);
background = {
shapes = (
{
closed = 1;
nodes = (
(507,-131,l),
(507,-34,l),
(154,-34,l),
(154,-131,l)
);
}
);
};
layerId = m01;
shapes = (
{
closed = 1;
nodes = (
(152,-32,l),
(152,-131,l),
(402,-131,l),
(330,-234,l),
(393,-234,l),
(589,40,l),
(609,-32,l)
);
}
);
width = 662;
}
);
unicode = 806;
},
{
color = 0;
glyphname = cedillacomb;
lastChange = "2021-01-31 18:53:35 +0000";
layers = (
{
anchors = (
{
name = _bottom;
pos = (331,0);
},
{
name = bottom;
pos = (331,-131);
}
);
layerId = m01;
shapes = (
{
closed = 1;
nodes = (
(501,-32,l),
(195,-32,l),
(91,-169,l),
(72,-163,l),
(474,-163,l),
(398,-169,l)
);
}
);
width = 662;
}
);
unicode = 807;
},
{
color = 0;
glyphname = ogonekcomb;
lastChange = "2021-01-31 18:53:35 +0000";
layers = (
{
anchors = (
{
name = _ogonek;
pos = (626,0);
}
);
layerId = m01;
shapes = (
{
closed = 1;
nodes = (
(706,-163,l),
(687,-169,l),
(583,-32,l),
(277,-32,l),
(380,-169,l),
(305,-163,l)
);
}
);
width = 662;
}
);
unicode = 808;
},
{
color = 0;
export = 0;
glyphname = pixel;
lastChange = "2021-01-31 18:53:35 +0000";
layers = (
{
layerId = m01;
shapes = (
{
closed = 1;
nodes = (
(95,0,l),
(95,105,l),
(-11,105,l),
(-11,0,l)
);
}
